<svg width="373" height="102" viewBox="0 0 373 102" fill="none" xmlns="http://www.w3.org/2000/svg">
<rect width="373" height="102" rx="10" fill="#F7FAFC"/>
<path d="M47 27.5625C34.0625 27.5625 23.5625 38.0625 23.5625 51C23.5625 63.9375 34.0625 74.4375 47 74.4375C59.9375 74.4375 70.4375 63.9375 70.4375 51C70.4375 38.0625 59.9375 27.5625 47 27.5625ZM47 65.0625C45.2812 65.0625 43.875 63.6562 43.875 61.9375C43.875 60.2188 45.2812 58.8125 47 58.8125C48.7188 58.8125 50.125 60.2188 50.125 61.9375C50.125 63.6562 48.7188 65.0625 47 65.0625ZM50.5781 40.8281L49.5313 53.3594C49.4219 54.6719 48.3281 55.6875 47 55.6875C45.6719 55.6875 44.5781 54.6719 44.4688 53.3594L43.4219 40.8281C43.25 38.7344 44.8906 36.9375 47 36.9375C47.4719 36.9375 47.9393 37.0305 48.3753 37.2111C48.8113 37.3917 49.2075 37.6564 49.5412 37.9901C49.8749 38.3238 50.1396 38.72 50.3202 39.156C50.5008 39.592 50.5937 40.0593 50.5937 40.5312C50.5937 40.625 50.5938 40.7344 50.5781 40.8281Z" fill="#FF6174"/>
<path d="M87.9993 28.8636V18.3636H89.451V19.6016H89.5753C89.6615 19.4425 89.7857 19.2585 89.9482 19.0497C90.1106 18.8409 90.3359 18.6586 90.6243 18.5028C90.9126 18.3438 91.2938 18.2642 91.7678 18.2642C92.3842 18.2642 92.9344 18.42 93.4183 18.7315C93.9022 19.0431 94.2817 19.4922 94.5568 20.0788C94.8352 20.6655 94.9744 21.3714 94.9744 22.1967C94.9744 23.022 94.8369 23.7296 94.5618 24.3196C94.2867 24.9062 93.9089 25.3587 93.4283 25.6768C92.9477 25.9917 92.3991 26.1491 91.7827 26.1491C91.3187 26.1491 90.9392 26.0713 90.6442 25.9155C90.3525 25.7597 90.1238 25.5774 89.9581 25.3686C89.7924 25.1598 89.6648 24.9742 89.5753 24.8118H89.4858V28.8636H87.9993ZM89.456 22.1818C89.456 22.7187 89.5339 23.1894 89.6896 23.5938C89.8454 23.9981 90.0708 24.3146 90.3658 24.5433C90.6607 24.7687 91.022 24.8814 91.4496 24.8814C91.8937 24.8814 92.2649 24.7637 92.5632 24.5284C92.8615 24.2898 93.0869 23.9666 93.2393 23.5589C93.3951 23.1513 93.473 22.6922 93.473 22.1818C93.473 21.678 93.3968 21.2256 93.2443 20.8246C93.0952 20.4235 92.8698 20.107 92.5682 19.875C92.2699 19.643 91.897 19.527 91.4496 19.527C91.0187 19.527 90.6541 19.638 90.3558 19.8601C90.0608 20.0821 89.8371 20.392 89.6847 20.7898C89.5322 21.1875 89.456 21.6515 89.456 22.1818ZM97.8464 15.8182V26H96.3599V15.8182H97.8464ZM102.857 26.1541C102.105 26.1541 101.457 25.9934 100.914 25.6719C100.373 25.3471 99.9557 24.8913 99.6607 24.3047C99.369 23.7147 99.2232 23.0237 99.2232 22.2315C99.2232 21.4493 99.369 20.7599 99.6607 20.1634C99.9557 19.5668 100.367 19.1011 100.894 18.7663C101.424 18.4316 102.044 18.2642 102.753 18.2642C103.184 18.2642 103.602 18.3355 104.006 18.478C104.41 18.6205 104.773 18.8442 105.095 19.1491C105.416 19.4541 105.67 19.8501 105.855 20.3374C106.041 20.8213 106.134 21.4096 106.134 22.1023V22.6293H100.063V21.5156H104.677C104.677 21.1245 104.597 20.7782 104.438 20.4766C104.279 20.1716 104.056 19.9313 103.767 19.7557C103.482 19.58 103.147 19.4922 102.763 19.4922C102.345 19.4922 101.981 19.5949 101.669 19.8004C101.361 20.0026 101.122 20.2678 100.953 20.5959C100.788 20.9207 100.705 21.2737 100.705 21.6548V22.5249C100.705 23.0353 100.794 23.4695 100.973 23.8274C101.155 24.1854 101.409 24.4588 101.734 24.6477C102.059 24.8333 102.438 24.9261 102.872 24.9261C103.154 24.9261 103.411 24.8864 103.643 24.8068C103.875 24.724 104.075 24.6013 104.245 24.4389C104.414 24.2765 104.543 24.076 104.632 23.8374L106.039 24.0909C105.927 24.5052 105.724 24.8681 105.433 25.1797C105.144 25.4879 104.781 25.7282 104.344 25.9006C103.91 26.0696 103.414 26.1541 102.857 26.1541ZM109.725 26.169C109.241 26.169 108.804 26.0795 108.413 25.9006C108.022 25.7183 107.712 25.4548 107.483 25.1101C107.258 24.7654 107.145 24.3428 107.145 23.8423C107.145 23.4115 107.228 23.0568 107.394 22.7784C107.559 22.5 107.783 22.2796 108.065 22.1172C108.347 21.9548 108.661 21.8321 109.009 21.7493C109.357 21.6664 109.712 21.6035 110.073 21.5604C110.531 21.5073 110.902 21.4643 111.187 21.4311C111.472 21.3946 111.679 21.3366 111.808 21.2571C111.938 21.1776 112.002 21.0483 112.002 20.8693V20.8345C112.002 20.4003 111.88 20.0639 111.634 19.8253C111.392 19.5866 111.031 19.4673 110.551 19.4673C110.05 19.4673 109.656 19.5784 109.367 19.8004C109.082 20.0192 108.885 20.2628 108.776 20.5312L107.379 20.2131C107.544 19.7491 107.786 19.3745 108.105 19.0895C108.426 18.8011 108.796 18.5923 109.213 18.4631C109.631 18.3305 110.07 18.2642 110.531 18.2642C110.836 18.2642 111.159 18.3007 111.5 18.3736C111.845 18.4432 112.166 18.5724 112.465 18.7614C112.766 18.9503 113.013 19.2204 113.205 19.5717C113.398 19.9197 113.494 20.3722 113.494 20.929V26H112.042V24.956H111.982C111.886 25.1482 111.742 25.3371 111.55 25.5227C111.358 25.7083 111.111 25.8625 110.809 25.9851C110.508 26.1077 110.146 26.169 109.725 26.169ZM110.048 24.9759C110.459 24.9759 110.811 24.8946 111.102 24.7322C111.397 24.5698 111.621 24.3577 111.774 24.0959C111.929 23.8307 112.007 23.5473 112.007 23.2457V22.2614C111.954 22.3144 111.852 22.3641 111.699 22.4105C111.55 22.4536 111.379 22.4917 111.187 22.5249C110.995 22.5547 110.807 22.5829 110.625 22.6094C110.443 22.6326 110.29 22.6525 110.168 22.669C109.879 22.7055 109.616 22.7668 109.377 22.853C109.142 22.9392 108.953 23.0634 108.811 23.2259C108.671 23.3849 108.602 23.5971 108.602 23.8622C108.602 24.2301 108.738 24.5085 109.009 24.6974C109.281 24.883 109.628 24.9759 110.048 24.9759ZM120.916 20.228L119.569 20.4666C119.512 20.2943 119.423 20.1302 119.3 19.9744C119.181 19.8187 119.019 19.6911 118.813 19.5916C118.608 19.4922 118.351 19.4425 118.042 19.4425C117.622 19.4425 117.27 19.5369 116.988 19.7259C116.707 19.9115 116.566 20.1518 116.566 20.4467C116.566 20.7019 116.66 20.9074 116.849 21.0632C117.038 21.219 117.343 21.3466 117.764 21.446L118.977 21.7244C119.68 21.8868 120.203 22.1371 120.548 22.4751C120.893 22.8132 121.065 23.2524 121.065 23.7926C121.065 24.25 120.933 24.6577 120.667 25.0156C120.406 25.3703 120.039 25.6487 119.569 25.8509C119.101 26.053 118.56 26.1541 117.943 26.1541C117.088 26.1541 116.39 25.9718 115.85 25.6072C115.31 25.2393 114.978 24.7173 114.856 24.0412L116.292 23.8224C116.382 24.197 116.566 24.4804 116.844 24.6726C117.123 24.8615 117.486 24.956 117.933 24.956C118.42 24.956 118.81 24.8549 119.101 24.6527C119.393 24.4472 119.539 24.197 119.539 23.902C119.539 23.6634 119.449 23.4628 119.27 23.3004C119.095 23.138 118.825 23.0154 118.46 22.9325L117.167 22.6491C116.455 22.4867 115.928 22.2282 115.586 21.8736C115.248 21.5189 115.079 21.0698 115.079 20.5263C115.079 20.0755 115.205 19.6811 115.457 19.343C115.709 19.005 116.057 18.7415 116.501 18.5526C116.945 18.3603 117.454 18.2642 118.028 18.2642C118.853 18.2642 119.502 18.4432 119.976 18.8011C120.45 19.1558 120.764 19.6314 120.916 20.228ZM125.711 26.1541C124.958 26.1541 124.31 25.9934 123.767 25.6719C123.227 25.3471 122.809 24.8913 122.514 24.3047C122.222 23.7147 122.077 23.0237 122.077 22.2315C122.077 21.4493 122.222 20.7599 122.514 20.1634C122.809 19.5668 123.22 19.1011 123.747 18.7663C124.277 18.4316 124.897 18.2642 125.606 18.2642C126.037 18.2642 126.455 18.3355 126.859 18.478C127.264 18.6205 127.627 18.8442 127.948 19.1491C128.27 19.4541 128.523 19.8501 128.709 20.3374C128.894 20.8213 128.987 21.4096 128.987 22.1023V22.6293H122.917V21.5156H127.53C127.53 21.1245 127.451 20.7782 127.292 20.4766C127.133 20.1716 126.909 19.9313 126.621 19.7557C126.336 19.58 126.001 19.4922 125.616 19.4922C125.199 19.4922 124.834 19.5949 124.523 19.8004C124.214 20.0026 123.976 20.2678 123.807 20.5959C123.641 20.9207 123.558 21.2737 123.558 21.6548V22.5249C123.558 23.0353 123.648 23.4695 123.827 23.8274C124.009 24.1854 124.262 24.4588 124.587 24.6477C124.912 24.8333 125.292 24.9261 125.726 24.9261C126.007 24.9261 126.264 24.8864 126.496 24.8068C126.728 24.724 126.929 24.6013 127.098 24.4389C127.267 24.2765 127.396 24.076 127.486 23.8374L128.893 24.0909C128.78 24.5052 128.578 24.8681 128.286 25.1797C127.998 25.4879 127.635 25.7282 127.197 25.9006C126.763 26.0696 126.268 26.1541 125.711 26.1541ZM137.073 26.1541C136.32 26.1541 135.672 25.9934 135.129 25.6719C134.589 25.3471 134.171 24.8913 133.876 24.3047C133.584 23.7147 133.438 23.0237 133.438 22.2315C133.438 21.4493 133.584 20.7599 133.876 20.1634C134.171 19.5668 134.582 19.1011 135.109 18.7663C135.639 18.4316 136.259 18.2642 136.968 18.2642C137.399 18.2642 137.817 18.3355 138.221 18.478C138.625 18.6205 138.988 18.8442 139.31 19.1491C139.631 19.4541 139.885 19.8501 140.071 20.3374C140.256 20.8213 140.349 21.4096 140.349 22.1023V22.6293H134.279V21.5156H138.892C138.892 21.1245 138.813 20.7782 138.654 20.4766C138.495 20.1716 138.271 19.9313 137.982 19.7557C137.697 19.58 137.363 19.4922 136.978 19.4922C136.561 19.4922 136.196 19.5949 135.884 19.8004C135.576 20.0026 135.338 20.2678 135.169 20.5959C135.003 20.9207 134.92 21.2737 134.92 21.6548V22.5249C134.92 23.0353 135.009 23.4695 135.188 23.8274C135.371 24.1854 135.624 24.4588 135.949 24.6477C136.274 24.8333 136.653 24.9261 137.088 24.9261C137.369 24.9261 137.626 24.8864 137.858 24.8068C138.09 24.724 138.291 24.6013 138.46 24.4389C138.629 24.2765 138.758 24.076 138.848 23.8374L140.254 24.0909C140.142 24.5052 139.94 24.8681 139.648 25.1797C139.36 25.4879 138.997 25.7282 138.559 25.9006C138.125 26.0696 137.629 26.1541 137.073 26.1541ZM143.205 21.4659V26H141.718V18.3636H143.145V19.6065H143.24C143.415 19.2022 143.69 18.8774 144.065 18.6321C144.443 18.3868 144.918 18.2642 145.492 18.2642C146.012 18.2642 146.468 18.3736 146.859 18.5923C147.25 18.8078 147.553 19.1293 147.769 19.5568C147.984 19.9844 148.092 20.513 148.092 21.1428V26H146.605V21.3217C146.605 20.7682 146.461 20.3357 146.173 20.0241C145.884 19.7093 145.488 19.5518 144.985 19.5518C144.64 19.5518 144.333 19.6264 144.065 19.7756C143.8 19.9247 143.589 20.1435 143.433 20.4318C143.281 20.7169 143.205 21.0616 143.205 21.4659ZM155.528 20.228L154.18 20.4666C154.124 20.2943 154.035 20.1302 153.912 19.9744C153.793 19.8187 153.63 19.6911 153.425 19.5916C153.219 19.4922 152.962 19.4425 152.654 19.4425C152.233 19.4425 151.882 19.5369 151.6 19.7259C151.318 19.9115 151.178 20.1518 151.178 20.4467C151.178 20.7019 151.272 20.9074 151.461 21.0632C151.65 21.219 151.955 21.3466 152.376 21.446L153.589 21.7244C154.291 21.8868 154.815 22.1371 155.16 22.4751C155.505 22.8132 155.677 23.2524 155.677 23.7926C155.677 24.25 155.544 24.6577 155.279 25.0156C155.017 25.3703 154.651 25.6487 154.18 25.8509C153.713 26.053 153.171 26.1541 152.555 26.1541C151.7 26.1541 151.002 25.9718 150.462 25.6072C149.921 25.2393 149.59 24.7173 149.467 24.0412L150.904 23.8224C150.994 24.197 151.178 24.4804 151.456 24.6726C151.734 24.8615 152.097 24.956 152.545 24.956C153.032 24.956 153.421 24.8549 153.713 24.6527C154.005 24.4472 154.151 24.197 154.151 23.902C154.151 23.6634 154.061 23.4628 153.882 23.3004C153.707 23.138 153.436 23.0154 153.072 22.9325L151.779 22.6491C151.067 22.4867 150.54 22.2282 150.198 21.8736C149.86 21.5189 149.691 21.0698 149.691 20.5263C149.691 20.0755 149.817 19.6811 150.069 19.343C150.321 19.005 150.669 18.7415 151.113 18.5526C151.557 18.3603 152.066 18.2642 152.639 18.2642C153.465 18.2642 154.114 18.4432 154.588 18.8011C155.062 19.1558 155.375 19.6314 155.528 20.228ZM161.869 22.8331V18.3636H163.36V26H161.899V24.6776H161.819C161.643 25.0852 161.362 25.425 160.974 25.6967C160.589 25.9652 160.11 26.0994 159.537 26.0994C159.046 26.0994 158.612 25.9917 158.234 25.7763C157.86 25.5575 157.565 25.2344 157.349 24.8068C157.137 24.3793 157.031 23.8506 157.031 23.2209V18.3636H158.518V23.0419C158.518 23.5623 158.662 23.9766 158.95 24.2848C159.239 24.593 159.613 24.7472 160.074 24.7472C160.352 24.7472 160.629 24.6776 160.904 24.5384C161.183 24.3991 161.413 24.1887 161.595 23.907C161.781 23.6252 161.872 23.2673 161.869 22.8331ZM165.077 26V18.3636H166.514V19.5767H166.594C166.733 19.1657 166.978 18.8426 167.33 18.6072C167.684 18.3686 168.085 18.2493 168.533 18.2493C168.626 18.2493 168.735 18.2526 168.861 18.2592C168.99 18.2659 169.091 18.2741 169.164 18.2841V19.706C169.104 19.6894 168.998 19.6712 168.846 19.6513C168.693 19.6281 168.541 19.6165 168.389 19.6165C168.037 19.6165 167.724 19.6911 167.449 19.8402C167.177 19.986 166.962 20.1899 166.803 20.4517C166.644 20.7102 166.564 21.0052 166.564 21.3366V26H165.077ZM173.188 26.1541C172.436 26.1541 171.788 25.9934 171.244 25.6719C170.704 25.3471 170.287 24.8913 169.992 24.3047C169.7 23.7147 169.554 23.0237 169.554 22.2315C169.554 21.4493 169.7 20.7599 169.992 20.1634C170.287 19.5668 170.698 19.1011 171.225 18.7663C171.755 18.4316 172.375 18.2642 173.084 18.2642C173.515 18.2642 173.932 18.3355 174.337 18.478C174.741 18.6205 175.104 18.8442 175.426 19.1491C175.747 19.4541 176.001 19.8501 176.186 20.3374C176.372 20.8213 176.465 21.4096 176.465 22.1023V22.6293H170.394V21.5156H175.008C175.008 21.1245 174.928 20.7782 174.769 20.4766C174.61 20.1716 174.386 19.9313 174.098 19.7557C173.813 19.58 173.478 19.4922 173.094 19.4922C172.676 19.4922 172.312 19.5949 172 19.8004C171.692 20.0026 171.453 20.2678 171.284 20.5959C171.118 20.9207 171.036 21.2737 171.036 21.6548V22.5249C171.036 23.0353 171.125 23.4695 171.304 23.8274C171.486 24.1854 171.74 24.4588 172.065 24.6477C172.39 24.8333 172.769 24.9261 173.203 24.9261C173.485 24.9261 173.742 24.8864 173.974 24.8068C174.206 24.724 174.406 24.6013 174.575 24.4389C174.744 24.2765 174.874 24.076 174.963 23.8374L176.37 24.0909C176.257 24.5052 176.055 24.8681 175.764 25.1797C175.475 25.4879 175.112 25.7282 174.675 25.9006C174.241 26.0696 173.745 26.1541 173.188 26.1541ZM182.199 28.8636C181.977 28.8636 181.774 28.8454 181.592 28.8089C181.41 28.7758 181.274 28.7393 181.184 28.6996L181.542 27.4815C181.814 27.5545 182.056 27.5859 182.268 27.576C182.48 27.5661 182.668 27.4865 182.83 27.3374C182.996 27.1882 183.142 26.9446 183.268 26.6065L183.451 26.0994L180.657 18.3636H182.248L184.182 24.2898H184.262L186.196 18.3636H187.792L184.645 27.0192C184.499 27.4169 184.313 27.7533 184.088 28.0284C183.862 28.3068 183.594 28.5156 183.282 28.6548C182.971 28.794 182.61 28.8636 182.199 28.8636ZM191.866 26.1541C191.15 26.1541 190.525 25.9901 189.991 25.6619C189.458 25.3338 189.043 24.8748 188.748 24.2848C188.453 23.6948 188.306 23.0054 188.306 22.2166C188.306 21.4245 188.453 20.7318 188.748 20.1385C189.043 19.5452 189.458 19.0845 189.991 18.7564C190.525 18.4283 191.15 18.2642 191.866 18.2642C192.581 18.2642 193.206 18.4283 193.74 18.7564C194.273 19.0845 194.688 19.5452 194.983 20.1385C195.278 20.7318 195.425 21.4245 195.425 22.2166C195.425 23.0054 195.278 23.6948 194.983 24.2848C194.688 24.8748 194.273 25.3338 193.74 25.6619C193.206 25.9901 192.581 26.1541 191.866 26.1541ZM191.87 24.9062C192.335 24.9062 192.719 24.7836 193.024 24.5384C193.329 24.2931 193.554 23.9666 193.7 23.5589C193.849 23.1513 193.924 22.7022 193.924 22.2116C193.924 21.7244 193.849 21.277 193.7 20.8693C193.554 20.4583 193.329 20.1286 193.024 19.88C192.719 19.6314 192.335 19.5071 191.87 19.5071C191.403 19.5071 191.015 19.6314 190.707 19.88C190.402 20.1286 190.175 20.4583 190.026 20.8693C189.88 21.277 189.807 21.7244 189.807 22.2116C189.807 22.7022 189.88 23.1513 190.026 23.5589C190.175 23.9666 190.402 24.2931 190.707 24.5384C191.015 24.7836 191.403 24.9062 191.87 24.9062ZM201.642 22.8331V18.3636H203.133V26H201.672V24.6776H201.592C201.416 25.0852 201.135 25.425 200.747 25.6967C200.362 25.9652 199.884 26.0994 199.31 26.0994C198.82 26.0994 198.385 25.9917 198.008 25.7763C197.633 25.5575 197.338 25.2344 197.123 24.8068C196.911 24.3793 196.804 23.8506 196.804 23.2209V18.3636H198.291V23.0419C198.291 23.5623 198.435 23.9766 198.723 24.2848C199.012 24.593 199.386 24.7472 199.847 24.7472C200.125 24.7472 200.402 24.6776 200.677 24.5384C200.956 24.3991 201.186 24.1887 201.368 23.907C201.554 23.6252 201.645 23.2673 201.642 22.8331ZM213.113 22.8331V18.3636H214.605V26H213.143V24.6776H213.063C212.888 25.0852 212.606 25.425 212.218 25.6967C211.834 25.9652 211.355 26.0994 210.781 26.0994C210.291 26.0994 209.857 25.9917 209.479 25.7763C209.104 25.5575 208.809 25.2344 208.594 24.8068C208.382 24.3793 208.276 23.8506 208.276 23.2209V18.3636H209.762V23.0419C209.762 23.5623 209.906 23.9766 210.195 24.2848C210.483 24.593 210.858 24.7472 211.318 24.7472C211.597 24.7472 211.873 24.6776 212.149 24.5384C212.427 24.3991 212.657 24.1887 212.84 23.907C213.025 23.6252 213.116 23.2673 213.113 22.8331ZM222.044 20.228L220.697 20.4666C220.641 20.2943 220.551 20.1302 220.428 19.9744C220.309 19.8187 220.147 19.6911 219.941 19.5916C219.736 19.4922 219.479 19.4425 219.171 19.4425C218.75 19.4425 218.398 19.5369 218.117 19.7259C217.835 19.9115 217.694 20.1518 217.694 20.4467C217.694 20.7019 217.788 20.9074 217.977 21.0632C218.166 21.219 218.471 21.3466 218.892 21.446L220.105 21.7244C220.808 21.8868 221.332 22.1371 221.676 22.4751C222.021 22.8132 222.193 23.2524 222.193 23.7926C222.193 24.25 222.061 24.6577 221.796 25.0156C221.534 25.3703 221.168 25.6487 220.697 25.8509C220.23 26.053 219.688 26.1541 219.071 26.1541C218.216 26.1541 217.518 25.9718 216.978 25.6072C216.438 25.2393 216.106 24.7173 215.984 24.0412L217.421 23.8224C217.51 24.197 217.694 24.4804 217.972 24.6726C218.251 24.8615 218.614 24.956 219.061 24.956C219.548 24.956 219.938 24.8549 220.23 24.6527C220.521 24.4472 220.667 24.197 220.667 23.902C220.667 23.6634 220.578 23.4628 220.399 23.3004C220.223 23.138 219.953 23.0154 219.588 22.9325L218.296 22.6491C217.583 22.4867 217.056 22.2282 216.715 21.8736C216.377 21.5189 216.208 21.0698 216.208 20.5263C216.208 20.0755 216.333 19.6811 216.585 19.343C216.837 19.005 217.185 18.7415 217.629 18.5526C218.074 18.3603 218.582 18.2642 219.156 18.2642C219.981 18.2642 220.631 18.4432 221.105 18.8011C221.578 19.1558 221.892 19.6314 222.044 20.228ZM226.839 26.1541C226.087 26.1541 225.439 25.9934 224.895 25.6719C224.355 25.3471 223.937 24.8913 223.642 24.3047C223.351 23.7147 223.205 23.0237 223.205 22.2315C223.205 21.4493 223.351 20.7599 223.642 20.1634C223.937 19.5668 224.348 19.1011 224.875 18.7663C225.405 18.4316 226.025 18.2642 226.735 18.2642C227.165 18.2642 227.583 18.3355 227.987 18.478C228.392 18.6205 228.755 18.8442 229.076 19.1491C229.398 19.4541 229.651 19.8501 229.837 20.3374C230.022 20.8213 230.115 21.4096 230.115 22.1023V22.6293H224.045V21.5156H228.659C228.659 21.1245 228.579 20.7782 228.42 20.4766C228.261 20.1716 228.037 19.9313 227.749 19.7557C227.464 19.58 227.129 19.4922 226.744 19.4922C226.327 19.4922 225.962 19.5949 225.651 19.8004C225.342 20.0026 225.104 20.2678 224.935 20.5959C224.769 20.9207 224.686 21.2737 224.686 21.6548V22.5249C224.686 23.0353 224.776 23.4695 224.955 23.8274C225.137 24.1854 225.391 24.4588 225.715 24.6477C226.04 24.8333 226.42 24.9261 226.854 24.9261C227.136 24.9261 227.392 24.8864 227.624 24.8068C227.856 24.724 228.057 24.6013 228.226 24.4389C228.395 24.2765 228.524 24.076 228.614 23.8374L230.021 24.0909C229.908 24.5052 229.706 24.8681 229.414 25.1797C229.126 25.4879 228.763 25.7282 228.325 25.9006C227.891 26.0696 227.396 26.1541 226.839 26.1541Z" fill="#1C4532"/>
<path d="M90.571 60.2216C90.0085 60.2216 89.5256 60.0227 89.1222 59.625C88.7244 59.2216 88.5256 58.7386 88.5256 58.1761C88.5256 57.6193 88.7244 57.142 89.1222 56.7443C89.5256 56.3466 90.0085 56.1477 90.571 56.1477C91.1165 56.1477 91.5938 56.3466 92.0028 56.7443C92.4119 57.142 92.6165 57.6193 92.6165 58.1761C92.6165 58.5511 92.5199 58.8949 92.3267 59.2074C92.1392 59.5142 91.892 59.7614 91.5852 59.9489C91.2784 60.1307 90.9403 60.2216 90.571 60.2216ZM97.6997 60L94.1372 46.9091H97.8105L99.8389 55.7045H99.9582L102.072 46.9091H105.677L107.825 55.6534H107.935L109.93 46.9091H113.595L110.041 60H106.197L103.947 51.767H103.785L101.535 60H97.6997ZM120.638 60.2557C119.314 60.2557 118.169 59.9744 117.203 59.4119C116.243 58.8437 115.502 58.054 114.979 57.0426C114.456 56.0256 114.195 54.8466 114.195 53.5057C114.195 52.1534 114.456 50.9716 114.979 49.9602C115.502 48.9432 116.243 48.1534 117.203 47.5909C118.169 47.0227 119.314 46.7386 120.638 46.7386C121.962 46.7386 123.104 47.0227 124.064 47.5909C125.03 48.1534 125.774 48.9432 126.297 49.9602C126.82 50.9716 127.081 52.1534 127.081 53.5057C127.081 54.8466 126.82 56.0256 126.297 57.0426C125.774 58.054 125.03 58.8437 124.064 59.4119C123.104 59.9744 121.962 60.2557 120.638 60.2557ZM120.655 57.4432C121.257 57.4432 121.76 57.2727 122.164 56.9318C122.567 56.5852 122.871 56.1136 123.076 55.517C123.286 54.9205 123.391 54.2415 123.391 53.4801C123.391 52.7188 123.286 52.0398 123.076 51.4432C122.871 50.8466 122.567 50.375 122.164 50.0284C121.76 49.6818 121.257 49.5085 120.655 49.5085C120.047 49.5085 119.536 49.6818 119.121 50.0284C118.712 50.375 118.402 50.8466 118.192 51.4432C117.987 52.0398 117.885 52.7188 117.885 53.4801C117.885 54.2415 117.987 54.9205 118.192 55.517C118.402 56.1136 118.712 56.5852 119.121 56.9318C119.536 57.2727 120.047 57.4432 120.655 57.4432ZM128.962 60V46.9091H132.482V49.1932H132.618C132.857 48.3807 133.257 47.767 133.82 47.3523C134.382 46.9318 135.03 46.7216 135.763 46.7216C135.945 46.7216 136.141 46.733 136.351 46.7557C136.561 46.7784 136.746 46.8097 136.905 46.8494V50.071C136.735 50.0199 136.499 49.9744 136.198 49.9347C135.897 49.8949 135.621 49.875 135.371 49.875C134.837 49.875 134.36 49.9915 133.939 50.2244C133.524 50.4517 133.195 50.7699 132.951 51.179C132.712 51.5881 132.593 52.0597 132.593 52.5938V60H128.962ZM141.592 56.233L141.601 51.8778H142.129L146.322 46.9091H150.49L144.856 53.4886H143.995L141.592 56.233ZM138.302 60V42.5455H141.933V60H138.302ZM146.484 60L142.632 54.2983L145.052 51.733L150.737 60H146.484ZM157.667 53.0028C157.667 50.8892 157.948 48.9432 158.511 47.1648C159.079 45.3864 159.945 43.7386 161.11 42.2216H164.579C164.136 42.7841 163.724 43.4716 163.343 44.2841C162.962 45.0909 162.63 45.9773 162.346 46.9432C162.062 47.9091 161.84 48.9091 161.681 49.9432C161.522 50.9716 161.442 51.9915 161.442 53.0028C161.442 54.3494 161.579 55.7102 161.852 57.0852C162.13 58.4545 162.505 59.7273 162.977 60.9034C163.454 62.0795 163.988 63.0426 164.579 63.7926H161.11C159.945 62.2756 159.079 60.6278 158.511 58.8494C157.948 57.071 157.667 55.1222 157.667 53.0028ZM169.837 52.4318V60H166.206V46.9091H169.666V49.2188H169.82C170.109 48.4574 170.595 47.8551 171.277 47.4119C171.959 46.9631 172.786 46.7386 173.757 46.7386C174.666 46.7386 175.459 46.9375 176.135 47.3352C176.811 47.733 177.337 48.3011 177.712 49.0398C178.087 49.7727 178.274 50.6477 178.274 51.6648V60H174.644V52.3125C174.649 51.5114 174.445 50.8864 174.03 50.4375C173.615 49.983 173.044 49.7557 172.317 49.7557C171.828 49.7557 171.396 49.8608 171.021 50.071C170.652 50.2812 170.362 50.5881 170.152 50.9915C169.948 51.3892 169.842 51.8693 169.837 52.4318ZM186.571 60.2557C185.247 60.2557 184.102 59.9744 183.136 59.4119C182.176 58.8437 181.434 58.054 180.911 57.0426C180.389 56.0256 180.127 54.8466 180.127 53.5057C180.127 52.1534 180.389 50.9716 180.911 49.9602C181.434 48.9432 182.176 48.1534 183.136 47.5909C184.102 47.0227 185.247 46.7386 186.571 46.7386C187.894 46.7386 189.036 47.0227 189.997 47.5909C190.963 48.1534 191.707 48.9432 192.23 49.9602C192.752 50.9716 193.014 52.1534 193.014 53.5057C193.014 54.8466 192.752 56.0256 192.23 57.0426C191.707 58.054 190.963 58.8437 189.997 59.4119C189.036 59.9744 187.894 60.2557 186.571 60.2557ZM186.588 57.4432C187.19 57.4432 187.693 57.2727 188.096 56.9318C188.499 56.5852 188.803 56.1136 189.008 55.517C189.218 54.9205 189.323 54.2415 189.323 53.4801C189.323 52.7188 189.218 52.0398 189.008 51.4432C188.803 50.8466 188.499 50.375 188.096 50.0284C187.693 49.6818 187.19 49.5085 186.588 49.5085C185.98 49.5085 185.468 49.6818 185.053 50.0284C184.644 50.375 184.335 50.8466 184.124 51.4432C183.92 52.0398 183.818 52.7188 183.818 53.4801C183.818 54.2415 183.92 54.9205 184.124 55.517C184.335 56.1136 184.644 56.5852 185.053 56.9318C185.468 57.2727 185.98 57.4432 186.588 57.4432ZM201.858 46.9091V49.6364H193.974V46.9091H201.858ZM195.764 43.7727H199.394V55.9773C199.394 56.3125 199.446 56.5739 199.548 56.7614C199.65 56.9432 199.792 57.071 199.974 57.1449C200.162 57.2187 200.377 57.2557 200.622 57.2557C200.792 57.2557 200.963 57.2415 201.133 57.2131C201.304 57.179 201.434 57.1534 201.525 57.1364L202.096 59.8381C201.914 59.8949 201.659 59.9602 201.329 60.0341C201 60.1136 200.599 60.1619 200.127 60.179C199.252 60.2131 198.485 60.0966 197.826 59.8295C197.173 59.5625 196.664 59.1477 196.301 58.5852C195.937 58.0227 195.758 57.3125 195.764 56.4545V43.7727ZM210.939 60.2216C210.377 60.2216 209.894 60.0227 209.491 59.625C209.093 59.2216 208.894 58.7386 208.894 58.1761C208.894 57.6193 209.093 57.142 209.491 56.7443C209.894 56.3466 210.377 56.1477 210.939 56.1477C211.485 56.1477 211.962 56.3466 212.371 56.7443C212.78 57.142 212.985 57.6193 212.985 58.1761C212.985 58.5511 212.888 58.8949 212.695 59.2074C212.508 59.5142 212.26 59.7614 211.954 59.9489C211.647 60.1307 211.309 60.2216 210.939 60.2216ZM221.401 60.2557C220.06 60.2557 218.906 59.9716 217.94 59.4034C216.98 58.8295 216.241 58.0341 215.724 57.017C215.213 56 214.957 54.8295 214.957 53.5057C214.957 52.1648 215.216 50.9886 215.733 49.9773C216.256 48.9602 216.997 48.1676 217.957 47.5994C218.918 47.0256 220.06 46.7386 221.383 46.7386C222.526 46.7386 223.526 46.946 224.383 47.3608C225.241 47.7756 225.92 48.358 226.42 49.108C226.92 49.858 227.196 50.7386 227.247 51.75H223.821C223.724 51.0966 223.469 50.571 223.054 50.1733C222.645 49.7699 222.108 49.5682 221.443 49.5682C220.881 49.5682 220.389 49.7216 219.969 50.0284C219.554 50.3295 219.23 50.7699 218.997 51.3494C218.764 51.929 218.648 52.6307 218.648 53.4545C218.648 54.2898 218.761 55 218.989 55.5852C219.222 56.1705 219.548 56.6165 219.969 56.9233C220.389 57.2301 220.881 57.3835 221.443 57.3835C221.858 57.3835 222.23 57.2983 222.56 57.1278C222.895 56.9574 223.17 56.7102 223.386 56.3864C223.608 56.0568 223.753 55.6619 223.821 55.2017H227.247C227.19 56.2017 226.918 57.0824 226.429 57.8438C225.946 58.5994 225.278 59.1903 224.426 59.6165C223.574 60.0426 222.565 60.2557 221.401 60.2557ZM235.006 60.2557C233.683 60.2557 232.538 59.9744 231.572 59.4119C230.612 58.8437 229.87 58.054 229.347 57.0426C228.825 56.0256 228.563 54.8466 228.563 53.5057C228.563 52.1534 228.825 50.9716 229.347 49.9602C229.87 48.9432 230.612 48.1534 231.572 47.5909C232.538 47.0227 233.683 46.7386 235.006 46.7386C236.33 46.7386 237.472 47.0227 238.433 47.5909C239.398 48.1534 240.143 48.9432 240.666 49.9602C241.188 50.9716 241.45 52.1534 241.45 53.5057C241.45 54.8466 241.188 56.0256 240.666 57.0426C240.143 58.054 239.398 58.8437 238.433 59.4119C237.472 59.9744 236.33 60.2557 235.006 60.2557ZM235.023 57.4432C235.626 57.4432 236.129 57.2727 236.532 56.9318C236.935 56.5852 237.239 56.1136 237.444 55.517C237.654 54.9205 237.759 54.2415 237.759 53.4801C237.759 52.7188 237.654 52.0398 237.444 51.4432C237.239 50.8466 236.935 50.375 236.532 50.0284C236.129 49.6818 235.626 49.5085 235.023 49.5085C234.416 49.5085 233.904 49.6818 233.489 50.0284C233.08 50.375 232.771 50.8466 232.56 51.4432C232.356 52.0398 232.254 52.7188 232.254 53.4801C232.254 54.2415 232.356 54.9205 232.56 55.517C232.771 56.1136 233.08 56.5852 233.489 56.9318C233.904 57.2727 234.416 57.4432 235.023 57.4432ZM245.453 60.2216C244.89 60.2216 244.407 60.0227 244.004 59.625C243.606 59.2216 243.407 58.7386 243.407 58.1761C243.407 57.6193 243.606 57.142 244.004 56.7443C244.407 56.3466 244.89 56.1477 245.453 56.1477C245.998 56.1477 246.475 56.3466 246.884 56.7443C247.293 57.142 247.498 57.6193 247.498 58.1761C247.498 58.5511 247.401 58.8949 247.208 59.2074C247.021 59.5142 246.774 59.7614 246.467 59.9489C246.16 60.1307 245.822 60.2216 245.453 60.2216ZM258.394 54.4261V46.9091H262.024V60H258.539V57.6222H258.402C258.107 58.3892 257.615 59.0057 256.928 59.4716C256.246 59.9375 255.414 60.1705 254.431 60.1705C253.556 60.1705 252.786 59.9716 252.121 59.5739C251.456 59.1761 250.936 58.6108 250.561 57.8778C250.192 57.1449 250.005 56.267 249.999 55.2443V46.9091H253.63V54.5966C253.635 55.3693 253.843 55.9801 254.252 56.429C254.661 56.8778 255.209 57.1023 255.897 57.1023C256.334 57.1023 256.743 57.0028 257.124 56.804C257.505 56.5994 257.811 56.2983 258.044 55.9006C258.283 55.5028 258.399 55.0114 258.394 54.4261ZM267.738 56.233L267.747 51.8778H268.275L272.468 46.9091H276.636L271.003 53.4886H270.142L267.738 56.233ZM264.449 60V42.5455H268.079V60H264.449ZM272.63 60L268.778 54.2983L271.199 51.733L276.883 60H272.63ZM284.057 53.0028C284.057 55.1222 283.773 57.071 283.204 58.8494C282.642 60.6278 281.778 62.2756 280.613 63.7926H277.145C277.588 63.2301 278 62.5426 278.38 61.7301C278.761 60.9176 279.094 60.0312 279.378 59.071C279.662 58.1051 279.883 57.1051 280.042 56.071C280.202 55.0369 280.281 54.0142 280.281 53.0028C280.281 51.6562 280.142 50.2983 279.863 48.929C279.591 47.554 279.216 46.2812 278.738 45.1108C278.267 43.9347 277.736 42.9716 277.145 42.2216H280.613C281.778 43.7386 282.642 45.3864 283.204 47.1648C283.773 48.9432 284.057 50.8892 284.057 53.0028Z" fill="#1C4532"/>
<path d="M201.985 86L199.161 75.8182H200.777L202.761 83.7031H202.855L204.918 75.8182H206.519L208.582 83.7081H208.677L210.656 75.8182H212.276L209.448 86H207.901L205.759 78.3736H205.679L203.536 86H201.985ZM214.764 81.4659V86H213.278V75.8182H214.744V79.6065H214.839C215.018 79.1955 215.291 78.8691 215.659 78.6271C216.027 78.3852 216.508 78.2642 217.101 78.2642C217.625 78.2642 218.082 78.3719 218.473 78.5874C218.868 78.8028 219.172 79.1243 219.388 79.5518C219.607 79.9761 219.716 80.5064 219.716 81.1428V86H218.23V81.3217C218.23 80.7616 218.085 80.3274 217.797 80.0192C217.509 79.7076 217.108 79.5518 216.594 79.5518C216.243 79.5518 215.928 79.6264 215.649 79.7756C215.374 79.9247 215.157 80.1435 214.998 80.4318C214.842 80.7169 214.764 81.0616 214.764 81.4659ZM224.711 86.1541C223.959 86.1541 223.311 85.9934 222.767 85.6719C222.227 85.3471 221.809 84.8913 221.514 84.3047C221.222 83.7147 221.077 83.0237 221.077 82.2315C221.077 81.4493 221.222 80.7599 221.514 80.1634C221.809 79.5668 222.22 79.1011 222.747 78.7663C223.277 78.4316 223.897 78.2642 224.606 78.2642C225.037 78.2642 225.455 78.3355 225.859 78.478C226.264 78.6205 226.627 78.8442 226.948 79.1491C227.27 79.4541 227.523 79.8501 227.709 80.3374C227.894 80.8213 227.987 81.4096 227.987 82.1023V82.6293H221.917V81.5156H226.53C226.53 81.1245 226.451 80.7782 226.292 80.4766C226.133 80.1716 225.909 79.9313 225.621 79.7557C225.336 79.58 225.001 79.4922 224.616 79.4922C224.199 79.4922 223.834 79.5949 223.523 79.8004C223.214 80.0026 222.976 80.2678 222.807 80.5959C222.641 80.9207 222.558 81.2737 222.558 81.6548V82.5249C222.558 83.0353 222.648 83.4695 222.827 83.8274C223.009 84.1854 223.262 84.4588 223.587 84.6477C223.912 84.8333 224.292 84.9261 224.726 84.9261C225.008 84.9261 225.264 84.8864 225.496 84.8068C225.728 84.724 225.929 84.6013 226.098 84.4389C226.267 84.2765 226.396 84.076 226.486 83.8374L227.893 84.0909C227.78 84.5052 227.578 84.8681 227.286 85.1797C226.998 85.4879 226.635 85.7282 226.197 85.9006C225.763 86.0696 225.268 86.1541 224.711 86.1541ZM230.843 81.4659V86H229.356V78.3636H230.783V79.6065H230.878C231.053 79.2022 231.329 78.8774 231.703 78.6321C232.081 78.3868 232.557 78.2642 233.13 78.2642C233.65 78.2642 234.106 78.3736 234.497 78.5923C234.888 78.8078 235.191 79.1293 235.407 79.5568C235.622 79.9844 235.73 80.513 235.73 81.1428V86H234.244V81.3217C234.244 80.7682 234.099 80.3357 233.811 80.0241C233.523 79.7093 233.127 79.5518 232.623 79.5518C232.278 79.5518 231.972 79.6264 231.703 79.7756C231.438 79.9247 231.227 80.1435 231.072 80.4318C230.919 80.7169 230.843 81.0616 230.843 81.4659ZM240.869 86V78.3636H242.296V79.6065H242.39C242.549 79.1856 242.809 78.8575 243.171 78.6222C243.532 78.3835 243.964 78.2642 244.468 78.2642C244.979 78.2642 245.406 78.3835 245.751 78.6222C246.099 78.8608 246.356 79.1889 246.521 79.6065H246.601C246.783 79.1989 247.073 78.8741 247.471 78.6321C247.869 78.3868 248.343 78.2642 248.893 78.2642C249.586 78.2642 250.151 78.4813 250.588 78.9155C251.029 79.3497 251.249 80.0043 251.249 80.8793V86H249.763V81.0185C249.763 80.5014 249.622 80.1269 249.34 79.8949C249.059 79.6629 248.722 79.5469 248.331 79.5469C247.847 79.5469 247.471 79.696 247.203 79.9943C246.934 80.2893 246.8 80.6688 246.8 81.1328V86H245.318V80.924C245.318 80.5097 245.189 80.1766 244.931 79.9247C244.672 79.6728 244.336 79.5469 243.921 79.5469C243.64 79.5469 243.379 79.6214 243.141 79.7706C242.905 79.9164 242.715 80.1203 242.569 80.3821C242.427 80.6439 242.355 80.9472 242.355 81.2919V86H240.869ZM255.184 86.169C254.7 86.169 254.263 86.0795 253.872 85.9006C253.48 85.7183 253.171 85.4548 252.942 85.1101C252.717 84.7654 252.604 84.3428 252.604 83.8423C252.604 83.4115 252.687 83.0568 252.852 82.7784C253.018 82.5 253.242 82.2796 253.524 82.1172C253.805 81.9548 254.12 81.8321 254.468 81.7493C254.816 81.6664 255.171 81.6035 255.532 81.5604C255.989 81.5073 256.361 81.4643 256.646 81.4311C256.931 81.3946 257.138 81.3366 257.267 81.2571C257.396 81.1776 257.461 81.0483 257.461 80.8693V80.8345C257.461 80.4003 257.338 80.0639 257.093 79.8253C256.851 79.5866 256.49 79.4673 256.009 79.4673C255.509 79.4673 255.114 79.5784 254.826 79.8004C254.541 80.0192 254.344 80.2628 254.235 80.5312L252.837 80.2131C253.003 79.7491 253.245 79.3745 253.563 79.0895C253.885 78.8011 254.254 78.5923 254.672 78.4631C255.09 78.3305 255.529 78.2642 255.989 78.2642C256.294 78.2642 256.618 78.3007 256.959 78.3736C257.304 78.4432 257.625 78.5724 257.923 78.7614C258.225 78.9503 258.472 79.2204 258.664 79.5717C258.856 79.9197 258.953 80.3722 258.953 80.929V86H257.501V84.956H257.441C257.345 85.1482 257.201 85.3371 257.009 85.5227C256.816 85.7083 256.57 85.8625 256.268 85.9851C255.966 86.1077 255.605 86.169 255.184 86.169ZM255.507 84.9759C255.918 84.9759 256.27 84.8946 256.561 84.7322C256.856 84.5698 257.08 84.3577 257.232 84.0959C257.388 83.8307 257.466 83.5473 257.466 83.2457V82.2614C257.413 82.3144 257.31 82.3641 257.158 82.4105C257.009 82.4536 256.838 82.4917 256.646 82.5249C256.453 82.5547 256.266 82.5829 256.084 82.6094C255.902 82.6326 255.749 82.6525 255.627 82.669C255.338 82.7055 255.075 82.7668 254.836 82.853C254.601 82.9392 254.412 83.0634 254.269 83.2259C254.13 83.3849 254.061 83.5971 254.061 83.8622C254.061 84.2301 254.196 84.5085 254.468 84.6974C254.74 84.883 255.086 84.9759 255.507 84.9759ZM260.652 86V78.3636H262.139V86H260.652ZM261.403 77.1854C261.145 77.1854 260.923 77.0992 260.737 76.9268C260.555 76.7512 260.464 76.5424 260.464 76.3004C260.464 76.0552 260.555 75.8464 260.737 75.674C260.923 75.4983 261.145 75.4105 261.403 75.4105C261.662 75.4105 261.882 75.4983 262.064 75.674C262.25 75.8464 262.343 76.0552 262.343 76.3004C262.343 76.5424 262.25 76.7512 262.064 76.9268C261.882 77.0992 261.662 77.1854 261.403 77.1854ZM265.345 75.8182V86H263.859V75.8182H265.345ZM267.065 86V78.3636H268.552V86H267.065ZM267.816 77.1854C267.557 77.1854 267.335 77.0992 267.15 76.9268C266.967 76.7512 266.876 76.5424 266.876 76.3004C266.876 76.0552 266.967 75.8464 267.15 75.674C267.335 75.4983 267.557 75.4105 267.816 75.4105C268.074 75.4105 268.295 75.4983 268.477 75.674C268.663 75.8464 268.755 76.0552 268.755 76.3004C268.755 76.5424 268.663 76.7512 268.477 76.9268C268.295 77.0992 268.074 77.1854 267.816 77.1854ZM271.758 81.4659V86H270.271V78.3636H271.698V79.6065H271.793C271.968 79.2022 272.244 78.8774 272.618 78.6321C272.996 78.3868 273.472 78.2642 274.045 78.2642C274.565 78.2642 275.021 78.3736 275.412 78.5923C275.803 78.8078 276.106 79.1293 276.322 79.5568C276.537 79.9844 276.645 80.513 276.645 81.1428V86H275.159V81.3217C275.159 80.7682 275.014 80.3357 274.726 80.0241C274.438 79.7093 274.042 79.5518 273.538 79.5518C273.193 79.5518 272.887 79.6264 272.618 79.7756C272.353 79.9247 272.142 80.1435 271.987 80.4318C271.834 80.7169 271.758 81.0616 271.758 81.4659ZM281.56 89.0227C280.954 89.0227 280.432 88.9432 279.994 88.7841C279.56 88.625 279.205 88.4145 278.93 88.1527C278.655 87.8909 278.45 87.6042 278.314 87.2926L279.592 86.7656C279.681 86.9115 279.8 87.0656 279.95 87.228C280.102 87.3937 280.308 87.5346 280.566 87.6506C280.828 87.7666 281.164 87.8246 281.575 87.8246C282.139 87.8246 282.604 87.687 282.972 87.4119C283.34 87.1402 283.524 86.706 283.524 86.1094V84.608H283.43C283.34 84.7704 283.211 84.951 283.042 85.1499C282.876 85.3487 282.647 85.5211 282.356 85.6669C282.064 85.8127 281.685 85.8857 281.217 85.8857C280.614 85.8857 280.071 85.7448 279.587 85.4631C279.106 85.178 278.725 84.7588 278.443 84.2053C278.165 83.6484 278.026 82.964 278.026 82.152C278.026 81.34 278.163 80.6439 278.438 80.0639C278.717 79.4839 279.098 79.0398 279.582 78.7315C280.066 78.42 280.614 78.2642 281.227 78.2642C281.701 78.2642 282.084 78.3438 282.376 78.5028C282.667 78.6586 282.894 78.8409 283.057 79.0497C283.223 79.2585 283.35 79.4425 283.44 79.6016H283.549V78.3636H285.006V86.169C285.006 86.8253 284.853 87.3639 284.548 87.7848C284.243 88.2057 283.831 88.5173 283.31 88.7195C282.793 88.9216 282.21 89.0227 281.56 89.0227ZM281.545 84.6527C281.973 84.6527 282.334 84.5533 282.629 84.3544C282.928 84.1522 283.153 83.8639 283.305 83.4893C283.461 83.1115 283.539 82.6591 283.539 82.1321C283.539 81.6184 283.463 81.166 283.31 80.7749C283.158 80.3838 282.934 80.0788 282.639 79.8601C282.344 79.638 281.98 79.527 281.545 79.527C281.098 79.527 280.725 79.643 280.427 79.875C280.129 80.1037 279.903 80.4152 279.751 80.8097C279.602 81.2041 279.527 81.6449 279.527 82.1321C279.527 82.6326 279.603 83.0717 279.756 83.4496C279.908 83.8274 280.134 84.1224 280.432 84.3345C280.733 84.5466 281.105 84.6527 281.545 84.6527Z" fill="#1C4532"/>
</svg>
