<svg width="20" height="22" viewBox="0 0 20 22" fill="none" xmlns="http://www.w3.org/2000/svg">
<path d="M10 0.75C14.3635 0.75 17.8875 4.51455 17.8877 9.11035C17.8877 10.7277 17.4106 12.4246 16.4834 14.1514C16.3088 14.4764 15.9052 14.6023 15.582 14.4102C15.2669 14.2226 15.165 13.8124 15.3359 13.4941C16.1636 11.9526 16.5762 10.4782 16.5762 9.11035C16.576 5.23301 13.6115 2.10449 10 2.10449C6.38849 2.10449 3.42395 5.23303 3.42383 9.11035C3.42383 12.1266 5.27414 14.9109 6.86035 16.7373C8.10989 18.1761 9.37615 19.2358 9.99219 19.7217C10.5271 19.2833 11.5591 18.3933 12.6426 17.2051C12.8939 16.9297 13.3164 16.9202 13.5791 17.1855C13.8346 17.4439 13.8421 17.8655 13.5977 18.1338C12.963 18.8298 12.3524 19.4246 11.8369 19.8955H19.0938C19.4679 19.8955 19.7498 20.2106 19.75 20.5723C19.75 20.9341 19.468 21.25 19.0938 21.25H0.90625C0.532011 21.25 0.25 20.9341 0.25 20.5723C0.2502 20.2106 0.532143 19.8955 0.90625 19.8955H8.11621C7.47201 19.3218 6.6866 18.5645 5.89648 17.6562C3.89864 15.3596 2.1123 12.3913 2.1123 9.11035C2.11245 4.51455 5.63654 0.75 10 0.75Z" fill="#D64575" stroke="#D64575" stroke-width="0.5"/>
<path d="M10.1923 5C7.32927 5 5 7.33535 5 10.2059C5 13.0764 7.32927 15.4117 10.1923 15.4117C13.0553 15.4117 15.3846 13.0764 15.3846 10.2059C15.3846 7.33535 13.0553 5 10.1923 5ZM10.1923 14.6425C7.75342 14.6425 5.76923 12.6522 5.76923 10.2058C5.76923 7.75946 7.75342 5.76923 10.1923 5.76923C12.6312 5.76923 14.6154 7.7595 14.6154 10.2059C14.6154 12.6523 12.6312 14.6425 10.1923 14.6425Z" fill="#D64575"/>
<path d="M13.5864 9.00911L10.42 6.68446C10.354 6.636 10.2743 6.60986 10.1924 6.60986C10.1105 6.60986 10.0308 6.636 9.96481 6.68446L6.79846 9.00911C6.53873 9.35061 6.61461 9.58219 7.02608 9.70376H7.674C7.674 9.70376 7.67469 12.0411 7.67515 12.0487H7.52027C7.26538 12.0487 7.05873 12.2553 7.05873 12.5102C7.05873 12.7651 7.26538 12.9718 7.52027 12.9718H13.0402C13.2951 12.9718 13.5017 12.7651 13.5017 12.5102C13.5017 12.2553 13.2951 12.0487 13.0402 12.0487H12.7103C12.7107 12.0411 12.7114 9.70376 12.7114 9.70376H13.3588C13.7702 9.58219 13.8461 9.35065 13.5864 9.00911ZM8.44323 9.70376H9.80781C9.80781 9.70376 9.8085 12.0361 9.80973 12.0487H8.44208C8.44254 12.0411 8.44323 9.70376 8.44323 9.70376ZM11.9433 12.0487H10.5751C10.5764 12.036 10.577 9.70376 10.577 9.70376H11.9422C11.9422 9.70376 11.9429 12.0411 11.9433 12.0487Z" fill="#D64575"/>
<path d="M13.9261 16.8013C14.1581 16.8013 14.3462 16.6147 14.3462 16.3845C14.3462 16.1544 14.1581 15.9678 13.9261 15.9678C13.694 15.9678 13.5059 16.1544 13.5059 16.3845C13.5059 16.6147 13.694 16.8013 13.9261 16.8013Z" fill="#D64575"/>
</svg>
