<svg width="22" height="20" viewBox="0 0 22 20" fill="none" xmlns="http://www.w3.org/2000/svg">
<path fill-rule="evenodd" clip-rule="evenodd" d="M20.7516 16.875H19.3585V7.25C19.3585 6.49061 18.7348 5.875 17.9654 5.875H12.3931V1.75C12.3935 1.24266 12.1107 0.776356 11.6576 0.536898C11.2044 0.297439 10.6545 0.323737 10.2269 0.605313L3.26153 5.1875C2.87344 5.44307 2.64073 5.87342 2.64162 6.33391V16.875H1.24854C0.863855 16.875 0.552005 17.1828 0.552005 17.5625C0.552005 17.9422 0.863855 18.25 1.24854 18.25H20.7516C21.1363 18.25 21.4481 17.9422 21.4481 17.5625C21.4481 17.1828 21.1363 16.875 20.7516 16.875ZM17.9654 7.25V16.875H12.3931V7.25H17.9654ZM4.03469 6.33391L11.0001 1.75V16.875H4.03469V6.33391ZM9.60698 8.625V10C9.60698 10.3797 9.29513 10.6875 8.91044 10.6875C8.52576 10.6875 8.21391 10.3797 8.21391 10V8.625C8.21391 8.2453 8.52576 7.9375 8.91044 7.9375C9.29513 7.9375 9.60698 8.2453 9.60698 8.625ZM6.82083 8.625V10C6.82083 10.3797 6.50898 10.6875 6.1243 10.6875C5.73961 10.6875 5.42776 10.3797 5.42776 10V8.625C5.42776 8.2453 5.73961 7.9375 6.1243 7.9375C6.50898 7.9375 6.82083 8.2453 6.82083 8.625ZM6.82083 13.4375V14.8125C6.82083 15.1922 6.50898 15.5 6.1243 15.5C5.73961 15.5 5.42776 15.1922 5.42776 14.8125V13.4375C5.42776 13.0578 5.73961 12.75 6.1243 12.75C6.50898 12.75 6.82083 13.0578 6.82083 13.4375ZM9.60698 13.4375V14.8125C9.60698 15.1922 9.29513 15.5 8.91044 15.5C8.52576 15.5 8.21391 15.1922 8.21391 14.8125V13.4375C8.21391 13.0578 8.52576 12.75 8.91044 12.75C9.29513 12.75 9.60698 13.0578 9.60698 13.4375Z" fill="white"/>
</svg>
