<svg width="25" height="25" viewBox="0 0 25 25" fill="none" xmlns="http://www.w3.org/2000/svg">
<path d="M9.80566 14.9351H15.8057" stroke="#D64575" stroke-width="1.8" stroke-linecap="round" stroke-linejoin="round"/>
<path d="M9.80566 11.9351H15.8057" stroke="#D64575" stroke-width="1.8" stroke-linecap="round" stroke-linejoin="round"/>
<path d="M15.8058 4.43506H19.5557C19.7546 4.43506 19.9453 4.51408 20.086 4.65473C20.2266 4.79538 20.3057 4.98615 20.3057 5.18506V20.9351C20.3057 21.134 20.2266 21.3247 20.086 21.4654C19.9453 21.606 19.7546 21.6851 19.5557 21.6851H6.05566C5.85675 21.6851 5.66599 21.606 5.52533 21.4654C5.38468 21.3247 5.30566 21.134 5.30566 20.9351V5.18506C5.30566 4.98615 5.38468 4.79538 5.52533 4.65473C5.66599 4.51408 5.85675 4.43506 6.05566 4.43506H9.80546" stroke="#D64575" stroke-width="1.8" stroke-linecap="round" stroke-linejoin="round"/>
<path d="M9.05566 7.43506V6.68506C9.05566 5.6905 9.45075 4.73667 10.154 4.03341C10.8573 3.33015 11.8111 2.93506 12.8057 2.93506C13.8002 2.93506 14.7541 3.33015 15.4573 4.03341C16.1606 4.73667 16.5557 5.6905 16.5557 6.68506V7.43506H9.05566Z" stroke="#D64575" stroke-width="1.8" stroke-linecap="round" stroke-linejoin="round"/>
</svg>
