<svg width="27" height="27" viewBox="0 0 27 27" fill="none" xmlns="http://www.w3.org/2000/svg">
<path d="M25.2588 19.5585H7.72633V2.02601C7.72633 1.71602 7.60319 1.41872 7.38399 1.19952C7.16479 0.980322 6.8675 0.857178 6.5575 0.857178C6.24751 0.857178 5.95021 0.980322 5.73101 1.19952C5.51182 1.41872 5.38867 1.71602 5.38867 2.02601V20.7273C5.38867 21.0373 5.51182 21.3346 5.73101 21.5538C5.95021 21.773 6.24751 21.8961 6.5575 21.8961H25.2588C25.5688 21.8961 25.8661 21.773 26.0853 21.5538C26.3045 21.3346 26.4276 21.0373 26.4276 20.7273C26.4276 20.4173 26.3045 20.12 26.0853 19.9008C25.8661 19.6816 25.5688 19.5585 25.2588 19.5585Z" fill="#E5004E"/>
<path d="M10.0655 7.87013H19.4161V17.2208C19.4161 17.5308 19.5393 17.8281 19.7585 18.0473C19.9777 18.2665 20.275 18.3896 20.585 18.3896C20.895 18.3896 21.1923 18.2665 21.4115 18.0473C21.6307 17.8281 21.7538 17.5308 21.7538 17.2208V6.7013C21.7538 6.39131 21.6307 6.09401 21.4115 5.87481C21.1923 5.65562 20.895 5.53247 20.585 5.53247H10.0655C9.7555 5.53247 9.4582 5.65562 9.23901 5.87481C9.01981 6.09401 8.89666 6.39131 8.89666 6.7013C8.89666 7.0113 9.01981 7.30859 9.23901 7.52779C9.4582 7.74699 9.7555 7.87013 10.0655 7.87013ZM3.05251 5.53247H1.88368C1.57368 5.53247 1.27638 5.65562 1.05719 5.87481C0.837988 6.09401 0.714844 6.39131 0.714844 6.7013C0.714844 7.0113 0.837988 7.30859 1.05719 7.52779C1.27638 7.74699 1.57368 7.87013 1.88368 7.87013H3.05251C3.3625 7.87013 3.6598 7.74699 3.879 7.52779C4.09819 7.30859 4.22134 7.0113 4.22134 6.7013C4.22134 6.39131 4.09819 6.09401 3.879 5.87481C3.6598 5.65562 3.3625 5.53247 3.05251 5.53247ZM20.585 23.0649C20.275 23.0649 19.9777 23.1881 19.7585 23.4073C19.5393 23.6265 19.4161 23.9238 19.4161 24.2338V25.4026C19.4161 25.7126 19.5393 26.0099 19.7585 26.2291C19.9777 26.4483 20.275 26.5714 20.585 26.5714C20.895 26.5714 21.1923 26.4483 21.4115 26.2291C21.6307 26.0099 21.7538 25.7126 21.7538 25.4026V24.2338C21.7538 23.9238 21.6307 23.6265 21.4115 23.4073C21.1923 23.1881 20.895 23.0649 20.585 23.0649Z" fill="#E5004E"/>
</svg>
