<svg width="112" height="100" viewBox="0 0 112 100" fill="none" xmlns="http://www.w3.org/2000/svg">
<path d="M64.8129 8.3335H27.7759C25.3202 8.3335 22.965 9.21147 21.2286 10.7743C19.4921 12.3371 18.5166 14.4567 18.5166 16.6668V83.3335C18.5166 85.5436 19.4921 87.6632 21.2286 89.226C22.965 90.7889 25.3202 91.6668 27.7759 91.6668H83.3314C85.7871 91.6668 88.1422 90.7889 89.8787 89.226C91.6151 87.6632 92.5907 85.5436 92.5907 83.3335V33.3335M64.8129 8.3335L92.5907 33.3335M64.8129 8.3335V33.3335H92.5907M74.0722 54.1668H37.0351M74.0722 70.8335H37.0351M46.2944 37.5002H37.0351" stroke="#D64575" stroke-width="4" stroke-linecap="round" stroke-linejoin="round"/>
</svg>
