<svg width="22" height="20" viewBox="0 0 22 20" fill="none" xmlns="http://www.w3.org/2000/svg">
<path d="M4.15411 16.2742H4.25813L7.02881 16.0189C7.41652 15.9811 7.77586 15.8109 8.05009 15.5366L18.5087 5.07801C19.0004 4.58629 19.2747 3.93381 19.2747 3.2435C19.2747 2.55319 19.0004 1.90071 18.5087 1.40898L17.8373 0.737589C16.8539 -0.245863 15.1423 -0.245863 14.1588 0.737589L12.8255 2.07092L3.70967 11.1868C3.43543 11.461 3.26522 11.8203 3.23685 12.208L2.98153 14.9787C2.95316 15.3286 3.0761 15.669 3.32196 15.9244C3.54891 16.1513 3.84205 16.2742 4.15411 16.2742ZM16.0028 1.39007C16.3054 1.39007 16.608 1.50355 16.835 1.73995L17.5064 2.41135C17.6168 2.51995 17.7046 2.64947 17.7645 2.79234C17.8244 2.93521 17.8552 3.08858 17.8552 3.2435C17.8552 3.39842 17.8244 3.55179 17.7645 3.69466C17.7046 3.83753 17.6168 3.96705 17.5064 4.07565L16.6742 4.9078L14.3385 2.5721L15.1707 1.73995C15.3976 1.513 15.7002 1.39007 16.0028 1.39007ZM4.64584 12.3404C4.64584 12.2837 4.6742 12.2364 4.71203 12.1986L13.3267 3.57447L15.6624 5.91017L7.04773 14.5248C7.04773 14.5248 6.95316 14.591 6.90588 14.591L4.41888 14.818L4.64584 12.331V12.3404ZM21.1659 19.2908C21.1659 19.6785 20.8444 20 20.4567 20H1.54418C1.15647 20 0.834961 19.6785 0.834961 19.2908C0.834961 18.9031 1.15647 18.5816 1.54418 18.5816H20.4567C20.8444 18.5816 21.1659 18.9031 21.1659 19.2908Z" fill="#E5004E"/>
</svg>
