<svg width="18" height="20" viewBox="0 0 18 20" fill="none" xmlns="http://www.w3.org/2000/svg">
<path d="M2.57768 13.875C2.57768 13.1892 2.5998 12.5 2.57257 11.8125C2.52662 10.6365 3.45749 9.54627 4.81947 9.56102C5.97724 9.5735 7.13444 9.56385 8.29221 9.56385C8.37219 9.56385 8.45218 9.56385 8.54861 9.56385V6.11154C7.55421 5.91697 6.77934 5.38999 6.30965 4.46252C5.98688 3.82493 5.91881 3.15046 6.07821 2.45387C6.38907 1.09813 7.6705 0.107702 9.05574 0.150246C10.5238 0.195059 11.7343 1.25696 11.9703 2.65922C12.191 3.97185 11.407 5.76154 9.43693 6.12799V9.56385C9.52542 9.56385 9.60257 9.56385 9.67972 9.56385C10.8505 9.56385 12.0219 9.56215 13.1927 9.56385C14.3465 9.56556 15.2014 10.2735 15.4005 11.4023C15.4362 11.6043 15.4226 11.8153 15.4237 12.0223C15.4266 12.6372 15.4249 13.2527 15.4249 13.8841C16.3779 14.0622 17.1232 14.5427 17.61 15.3884C17.9753 16.0226 18.0762 16.7056 17.9452 17.4209C17.6877 18.8254 16.396 19.8754 14.9677 19.8505C13.4792 19.8244 12.246 18.7602 12.0265 17.2848C11.7984 15.7532 12.7962 14.1887 14.557 13.8767C14.5598 13.82 14.5655 13.761 14.5649 13.702C14.561 12.9929 14.5785 12.2827 14.5451 11.5753C14.5156 10.9446 13.9625 10.4403 13.3317 10.4391C10.441 10.4346 7.55024 10.4346 4.6595 10.4391C4.0497 10.4403 3.48528 10.9417 3.46033 11.5447C3.42856 12.3184 3.45238 13.095 3.45238 13.8875C4.40878 14.0707 5.16039 14.5642 5.64199 15.4332C5.99709 16.0742 6.08161 16.7595 5.94093 17.4714C5.66695 18.8612 4.35659 19.8959 2.94299 19.8482C1.41707 19.7971 0.219593 18.725 0.0227557 17.1929C-0.159333 15.7764 0.756784 14.2125 2.57654 13.8744L2.57768 13.875Z" fill="#D64575"/>
</svg>
