<svg width="18" height="24" viewBox="0 0 18 24" fill="none" xmlns="http://www.w3.org/2000/svg">
<path d="M9.50319 0.305664C9.88943 0.409123 10.2914 0.474154 10.658 0.623923C12.3025 1.29591 13.2937 2.51574 13.5627 4.27454C13.943 6.75558 12.2158 9.01788 9.82933 9.46423C7.27537 9.94211 4.7628 8.12912 4.43174 5.54659C4.10559 2.99264 5.84173 0.703734 8.37401 0.350989C8.41638 0.345077 8.45678 0.321429 8.49816 0.305664C8.83317 0.305664 9.16818 0.305664 9.50319 0.305664Z" fill="#D64575"/>
<path d="M8.99279 23.6933C6.61718 23.6933 4.24255 23.6933 1.86694 23.6933C0.719041 23.6933 0.00468302 22.9779 0.00468302 21.8261C0.00468302 19.7707 -0.00812608 17.7143 0.0086244 15.659C0.0194629 14.316 0.523948 13.1897 1.59795 12.3473C2.14185 11.9206 2.78428 11.7462 3.45035 11.6388C4.01987 11.5462 4.59037 11.4575 5.16186 11.3708C5.55599 11.3117 5.68014 11.3866 5.81611 11.76C6.69502 14.1701 7.57491 16.5812 8.45185 18.9923C8.55038 19.2642 8.64694 19.5392 9.00363 19.5372C9.36032 19.5362 9.45392 19.2603 9.55245 18.9884C10.4235 16.5911 11.2965 14.1948 12.1705 11.7985C12.3242 11.3777 12.4532 11.3068 12.8917 11.3807C13.5056 11.4841 14.1214 11.5787 14.7362 11.6812C15.9344 11.8802 16.8054 12.5542 17.4281 13.5691C17.8104 14.1908 17.9947 14.8776 17.9967 15.6077C18.0006 17.7094 18.0016 19.8101 17.9967 21.9118C17.9947 22.9592 17.2557 23.6923 16.2113 23.6933C13.8051 23.6952 11.3999 23.6933 8.99378 23.6933H8.99279Z" fill="#D64575"/>
<path d="M9.0125 11.0417C9.21055 11.0417 9.4086 11.0378 9.60566 11.0417C10.0914 11.0526 10.3476 11.5117 10.0944 11.9275C9.93673 12.1877 9.75149 12.431 9.59778 12.6921C9.53767 12.7946 9.49136 12.9316 9.50319 13.0459C9.57807 13.779 9.67266 14.5101 9.75445 15.2422C9.76627 15.3436 9.76528 15.4579 9.73178 15.5525C9.56822 16.0176 9.39677 16.4807 9.2135 16.9379C9.17902 17.0236 9.06965 17.1517 9.01545 17.1419C8.92875 17.1271 8.82529 17.0266 8.78883 16.9379C8.60359 16.4807 8.43411 16.0176 8.26956 15.5525C8.23606 15.4579 8.23508 15.3446 8.2469 15.2422C8.32868 14.5101 8.42327 13.779 8.49816 13.0459C8.50998 12.9316 8.46367 12.7946 8.40455 12.6921C8.25971 12.4429 8.09221 12.2064 7.9316 11.966C7.79858 11.7669 7.76212 11.558 7.87445 11.3423C7.9917 11.1166 8.19172 11.0299 8.442 11.0378C8.63216 11.0437 8.82233 11.0388 9.0125 11.0388V11.0417Z" fill="#D64575"/>
</svg>
