<svg width="14" height="18" viewBox="0 0 14 18" fill="none" xmlns="http://www.w3.org/2000/svg">
<path d="M6.99988 0C3.40533 0 0.480957 2.92437 0.480957 6.51889C0.480957 10.9798 6.31476 17.5287 6.56314 17.8053C6.79643 18.0651 7.20375 18.0647 7.43663 17.8053C7.68501 17.5287 13.5188 10.9798 13.5188 6.51889C13.5187 2.92437 10.5944 0 6.99988 0ZM6.99988 9.79873C5.19137 9.79873 3.72008 8.3274 3.72008 6.51889C3.72008 4.71038 5.19141 3.23909 6.99988 3.23909C8.80836 3.23909 10.2796 4.71042 10.2796 6.51893C10.2796 8.32744 8.80836 9.79873 6.99988 9.79873Z" fill="#D64575"/>
</svg>
