<svg width="17" height="18" viewBox="0 0 17 18" fill="none" xmlns="http://www.w3.org/2000/svg">
<path d="M10.1663 1.5H3.49967C3.05765 1.5 2.63372 1.65804 2.32116 1.93934C2.0086 2.22064 1.83301 2.60218 1.83301 3V15C1.83301 15.3978 2.0086 15.7794 2.32116 16.0607C2.63372 16.342 3.05765 16.5 3.49967 16.5H13.4997C13.9417 16.5 14.3656 16.342 14.6782 16.0607C14.9907 15.7794 15.1663 15.3978 15.1663 15V6M10.1663 1.5L15.1663 6M10.1663 1.5V6H15.1663M11.833 9.75H5.16634M11.833 12.75H5.16634M6.83301 6.75H5.16634" stroke="#E5004E" stroke-width="2" stroke-linecap="round" stroke-linejoin="round"/>
</svg>
