<svg width="140" height="30" viewBox="0 0 140 30" fill="none" xmlns="http://www.w3.org/2000/svg">
<path d="M61.4473 11.2756C61.3715 10.6032 61.059 10.0824 60.5098 9.71307C59.9605 9.33902 59.2692 9.15199 58.4359 9.15199C57.8393 9.15199 57.3232 9.24669 56.8876 9.43608C56.452 9.62074 56.1135 9.87642 55.872 10.2031C55.6352 10.5251 55.5169 10.892 55.5169 11.304C55.5169 11.6496 55.5974 11.9479 55.7583 12.1989C55.9241 12.4498 56.1395 12.6605 56.4047 12.831C56.6745 12.9967 56.9634 13.1364 57.2711 13.25C57.5789 13.3589 57.8748 13.4489 58.1589 13.5199L59.5794 13.8892C60.0434 14.0028 60.5192 14.1567 61.0069 14.3509C61.4946 14.545 61.9468 14.8007 62.3635 15.1179C62.7801 15.4351 63.1163 15.8281 63.372 16.2969C63.6324 16.7656 63.7626 17.3267 63.7626 17.9801C63.7626 18.804 63.5495 19.5355 63.1234 20.1747C62.702 20.8139 62.0888 21.3182 61.2839 21.6875C60.4837 22.0568 59.5154 22.2415 58.3791 22.2415C57.2901 22.2415 56.3478 22.0687 55.5524 21.723C54.7569 21.3774 54.1343 20.8873 53.6845 20.2528C53.2347 19.6136 52.9861 18.8561 52.9387 17.9801H55.1404C55.1831 18.5057 55.3535 18.9437 55.6518 19.294C55.9548 19.6397 56.3407 19.8977 56.8095 20.0682C57.283 20.2339 57.8014 20.3168 58.3649 20.3168C58.9851 20.3168 59.5368 20.2197 60.0197 20.0256C60.5074 19.8267 60.8909 19.5521 61.1703 19.2017C61.4496 18.8466 61.5893 18.4323 61.5893 17.9588C61.5893 17.5279 61.4662 17.1752 61.22 16.9006C60.9785 16.6259 60.6494 16.3987 60.2328 16.2188C59.8208 16.0388 59.3545 15.8802 58.8336 15.7429L57.1149 15.2741C55.9501 14.9569 55.0268 14.4905 54.345 13.875C53.6679 13.2595 53.3294 12.4451 53.3294 11.4318C53.3294 10.5937 53.5566 9.86222 54.0112 9.23722C54.4657 8.61222 55.0813 8.12689 55.8578 7.78125C56.6343 7.43087 57.5102 7.25568 58.4856 7.25568C59.4705 7.25568 60.3393 7.4285 61.0922 7.77415C61.8497 8.11979 62.4463 8.59564 62.8819 9.2017C63.3175 9.80303 63.5448 10.4943 63.5637 11.2756H61.4473ZM73.1252 17.4759V11.0909H75.2559V22H73.1678V20.1108H73.0542C72.8032 20.6932 72.4007 21.1785 71.8468 21.5668C71.2975 21.9503 70.6133 22.142 69.7942 22.142C69.0935 22.142 68.4732 21.9882 67.9334 21.6804C67.3984 21.3679 66.977 20.9062 66.6692 20.2955C66.3662 19.6847 66.2147 18.9295 66.2147 18.0298V11.0909H68.3382V17.7741C68.3382 18.5175 68.5442 19.1094 68.9561 19.5497C69.3681 19.9901 69.9031 20.2102 70.5613 20.2102C70.959 20.2102 71.3543 20.1108 71.7473 19.9119C72.1451 19.7131 72.4741 19.4124 72.7346 19.0099C72.9997 18.6075 73.1299 18.0961 73.1252 17.4759ZM78.1092 26.0909V11.0909H80.1831V12.8594H80.3606C80.4837 12.6321 80.6613 12.3693 80.8933 12.071C81.1253 11.7727 81.4473 11.5123 81.8592 11.2898C82.2711 11.0625 82.8156 10.9489 83.4927 10.9489C84.3734 10.9489 85.1594 11.1714 85.8507 11.6165C86.542 12.0616 87.0841 12.7031 87.4771 13.5412C87.8748 14.3793 88.0737 15.3878 88.0737 16.5668C88.0737 17.7457 87.8772 18.7566 87.4842 19.5994C87.0912 20.4375 86.5514 21.0838 85.8649 21.5384C85.1783 21.9882 84.3947 22.2131 83.514 22.2131C82.8511 22.2131 82.309 22.1018 81.8876 21.8793C81.4709 21.6567 81.1442 21.3963 80.9075 21.098C80.6708 20.7997 80.4885 20.5346 80.3606 20.3026H80.2328V26.0909H78.1092ZM80.1902 16.5455C80.1902 17.3125 80.3014 17.9848 80.524 18.5625C80.7465 19.1402 81.0685 19.5923 81.4899 19.919C81.9113 20.241 82.4274 20.402 83.0382 20.402C83.6726 20.402 84.2029 20.2339 84.6291 19.8977C85.0552 19.5568 85.3772 19.0952 85.595 18.5128C85.8175 17.9304 85.9288 17.2746 85.9288 16.5455C85.9288 15.8258 85.8199 15.1795 85.6021 14.6065C85.389 14.0336 85.0671 13.5814 84.6362 13.25C84.21 12.9186 83.6774 12.7528 83.0382 12.7528C82.4226 12.7528 81.9018 12.9115 81.4757 13.2287C81.0543 13.5459 80.7347 13.9886 80.5169 14.5568C80.2991 15.125 80.1902 15.7879 80.1902 16.5455ZM90.4529 26.0909V11.0909H92.5268V12.8594H92.7044C92.8275 12.6321 93.005 12.3693 93.237 12.071C93.469 11.7727 93.791 11.5123 94.2029 11.2898C94.6149 11.0625 95.1594 10.9489 95.8365 10.9489C96.7172 10.9489 97.5031 11.1714 98.1944 11.6165C98.8857 12.0616 99.4279 12.7031 99.8208 13.5412C100.219 14.3793 100.417 15.3878 100.417 16.5668C100.417 17.7457 100.221 18.7566 99.8279 19.5994C99.435 20.4375 98.8952 21.0838 98.2086 21.5384C97.5221 21.9882 96.7385 22.2131 95.8578 22.2131C95.1949 22.2131 94.6528 22.1018 94.2314 21.8793C93.8147 21.6567 93.488 21.3963 93.2512 21.098C93.0145 20.7997 92.8322 20.5346 92.7044 20.3026H92.5765V26.0909H90.4529ZM92.5339 16.5455C92.5339 17.3125 92.6452 17.9848 92.8677 18.5625C93.0903 19.1402 93.4122 19.5923 93.8336 19.919C94.255 20.241 94.7711 20.402 95.3819 20.402C96.0164 20.402 96.5467 20.2339 96.9728 19.8977C97.399 19.5568 97.7209 19.0952 97.9387 18.5128C98.1613 17.9304 98.2725 17.2746 98.2725 16.5455C98.2725 15.8258 98.1636 15.1795 97.9458 14.6065C97.7328 14.0336 97.4108 13.5814 96.9799 13.25C96.5538 12.9186 96.0211 12.7528 95.3819 12.7528C94.7664 12.7528 94.2456 12.9115 93.8194 13.2287C93.398 13.5459 93.0784 13.9886 92.8606 14.5568C92.6428 15.125 92.5339 15.7879 92.5339 16.5455ZM107.392 22.2202C106.369 22.2202 105.477 21.9858 104.714 21.517C103.952 21.0483 103.36 20.3925 102.939 19.5497C102.517 18.7069 102.307 17.7221 102.307 16.5952C102.307 15.4635 102.517 14.474 102.939 13.6264C103.36 12.7789 103.952 12.1207 104.714 11.652C105.477 11.1832 106.369 10.9489 107.392 10.9489C108.415 10.9489 109.307 11.1832 110.069 11.652C110.832 12.1207 111.424 12.7789 111.845 13.6264C112.266 14.474 112.477 15.4635 112.477 16.5952C112.477 17.7221 112.266 18.7069 111.845 19.5497C111.424 20.3925 110.832 21.0483 110.069 21.517C109.307 21.9858 108.415 22.2202 107.392 22.2202ZM107.399 20.4375C108.062 20.4375 108.611 20.2623 109.047 19.9119C109.482 19.5616 109.804 19.0952 110.013 18.5128C110.226 17.9304 110.332 17.2888 110.332 16.5881C110.332 15.892 110.226 15.2528 110.013 14.6705C109.804 14.0833 109.482 13.6122 109.047 13.2571C108.611 12.902 108.062 12.7244 107.399 12.7244C106.731 12.7244 106.177 12.902 105.737 13.2571C105.301 13.6122 104.977 14.0833 104.764 14.6705C104.556 15.2528 104.452 15.892 104.452 16.5881C104.452 17.2888 104.556 17.9304 104.764 18.5128C104.977 19.0952 105.301 19.5616 105.737 19.9119C106.177 20.2623 106.731 20.4375 107.399 20.4375ZM114.847 22V11.0909H116.9V12.8239H117.014C117.213 12.2367 117.563 11.7751 118.065 11.4389C118.571 11.098 119.144 10.9276 119.784 10.9276C119.916 10.9276 120.072 10.9323 120.252 10.9418C120.437 10.9512 120.581 10.9631 120.686 10.9773V13.0085C120.6 12.9848 120.449 12.9588 120.231 12.9304C120.013 12.8973 119.795 12.8807 119.578 12.8807C119.076 12.8807 118.628 12.9872 118.235 13.2003C117.847 13.4086 117.539 13.6998 117.312 14.0739C117.085 14.4432 116.971 14.8646 116.971 15.3381V22H114.847ZM128.26 11.0909V12.7955H122.301V11.0909H128.26ZM123.899 8.47727H126.023V18.7969C126.023 19.2088 126.084 19.5189 126.208 19.7273C126.331 19.9309 126.489 20.0705 126.683 20.1463C126.882 20.2173 127.098 20.2528 127.33 20.2528C127.5 20.2528 127.649 20.241 127.777 20.2173C127.905 20.1937 128.004 20.1747 128.075 20.1605L128.459 21.9148C128.336 21.9621 128.161 22.0095 127.933 22.0568C127.706 22.1089 127.422 22.1373 127.081 22.142C126.522 22.1515 126.002 22.0521 125.519 21.8438C125.036 21.6354 124.645 21.3134 124.347 20.8778C124.048 20.4422 123.899 19.8954 123.899 19.2372V8.47727Z" fill="#F7FAFC"/>
<path d="M30.166 15.275C30.166 8.4125 24.841 3.75 18.916 3.75C13.0535 3.75 7.66602 8.3125 7.66602 15.35C6.91602 15.775 6.41602 16.575 6.41602 17.5V20C6.41602 21.375 7.54102 22.5 8.91602 22.5H10.166V14.875C10.166 10.0375 14.0785 6.125 18.916 6.125C23.7535 6.125 27.666 10.0375 27.666 14.875V23.75H17.666V26.25H27.666C29.041 26.25 30.166 25.125 30.166 23.75V22.225C30.9035 21.8375 31.416 21.075 31.416 20.175V17.3C31.416 16.425 30.9035 15.6625 30.166 15.275Z" fill="#F7FAFC"/>
<path d="M15.166 17.5C15.8564 17.5 16.416 16.9404 16.416 16.25C16.416 15.5596 15.8564 15 15.166 15C14.4757 15 13.916 15.5596 13.916 16.25C13.916 16.9404 14.4757 17.5 15.166 17.5Z" fill="#F7FAFC"/>
<path d="M22.666 17.5C23.3564 17.5 23.916 16.9404 23.916 16.25C23.916 15.5596 23.3564 15 22.666 15C21.9757 15 21.416 15.5596 21.416 16.25C21.416 16.9404 21.9757 17.5 22.666 17.5Z" fill="#F7FAFC"/>
<path d="M26.4161 13.7875C26.118 12.0302 25.2079 10.435 23.8467 9.28423C22.4855 8.1335 20.761 7.50146 18.9786 7.5C15.1911 7.5 11.1161 10.6375 11.4411 15.5625C12.9825 14.9317 14.3439 13.9294 15.4039 12.6447C16.4639 11.3601 17.1895 9.83315 17.5161 8.2C19.1536 11.4875 22.5161 13.75 26.4161 13.7875Z" fill="#F7FAFC"/>
</svg>
