<svg width="21" height="20" viewBox="0 0 21 20" fill="none" xmlns="http://www.w3.org/2000/svg">
<path d="M6.80762 12.5001H9.66512M6.80762 9.16675H13.4743M12.2243 1.66675H8.05762C7.7261 1.66675 7.40815 1.79844 7.17373 2.03286C6.93931 2.26729 6.80762 2.58523 6.80762 2.91675C6.80762 3.24827 6.93931 3.56621 7.17373 3.80063C7.40815 4.03505 7.7261 4.16675 8.05762 4.16675H12.2243C12.5558 4.16675 12.8737 4.03505 13.1082 3.80063C13.3426 3.56621 13.4743 3.24827 13.4743 2.91675C13.4743 2.58523 13.3426 2.26729 13.1082 2.03286C12.8737 1.79844 12.5558 1.66675 12.2243 1.66675Z" stroke="white" stroke-width="1.25" stroke-linecap="round" stroke-linejoin="round"/>
<path d="M13.4746 2.91675C14.7688 2.95591 15.5413 3.10008 16.0754 3.63508C16.8088 4.36675 16.8088 5.54592 16.8088 7.90175V13.3334C16.8088 15.6901 16.8088 16.8684 16.0754 17.6009C15.3438 18.3334 14.1646 18.3334 11.8088 18.3334H8.47544C6.11711 18.3334 4.93878 18.3334 4.20711 17.6009C3.47544 16.8684 3.47461 15.6901 3.47461 13.3334V7.90258C3.47461 5.54591 3.47461 4.36675 4.20711 3.63508C4.74128 3.10008 5.51378 2.95591 6.80794 2.91675" stroke="white" stroke-width="1.25" stroke-linecap="round" stroke-linejoin="round"/>
</svg>
