<svg width="18" height="13" viewBox="0 0 18 13" fill="none" xmlns="http://www.w3.org/2000/svg">
<path d="M0.240234 1.31298C0.240234 0.72726 0.715053 0.252441 1.30077 0.252441H2.36131C2.94703 0.252441 3.42185 0.72726 3.42185 1.31298C3.42185 1.8987 2.94703 2.37352 2.36131 2.37352H1.30077C0.715053 2.37352 0.240234 1.8987 0.240234 1.31298ZM5.54292 1.31298C5.54292 0.72726 6.01774 0.252441 6.60346 0.252441H16.1483C16.734 0.252441 17.2088 0.72726 17.2088 1.31298C17.2088 1.8987 16.734 2.37352 16.1483 2.37352H6.60346C6.01774 2.37352 5.54292 1.8987 5.54292 1.31298ZM0.240234 6.61567C0.240234 6.02995 0.715053 5.55513 1.30077 5.55513H2.36131C2.94703 5.55513 3.42185 6.02995 3.42185 6.61567C3.42185 7.20139 2.94703 7.67621 2.36131 7.67621H1.30077C0.715053 7.67621 0.240234 7.20139 0.240234 6.61567ZM5.54292 6.61567C5.54292 6.02995 6.01774 5.55513 6.60346 5.55513H16.1483C16.734 5.55513 17.2088 6.02995 17.2088 6.61567C17.2088 7.20139 16.734 7.67621 16.1483 7.67621H6.60346C6.01774 7.67621 5.54292 7.20139 5.54292 6.61567ZM0.240234 11.9184C0.240234 11.3326 0.715053 10.8578 1.30077 10.8578H2.36131C2.94703 10.8578 3.42185 11.3326 3.42185 11.9184C3.42185 12.5041 2.94703 12.9789 2.36131 12.9789H1.30077C0.715053 12.9789 0.240234 12.5041 0.240234 11.9184ZM5.54292 11.9184C5.54292 11.3326 6.01774 10.8578 6.60346 10.8578H16.1483C16.734 10.8578 17.2088 11.3326 17.2088 11.9184C17.2088 12.5041 16.734 12.9789 16.1483 12.9789H6.60346C6.01774 12.9789 5.54292 12.5041 5.54292 11.9184Z" fill="#1C1D22"/>
</svg>
