<svg width="21" height="20" viewBox="0 0 21 20" fill="none" xmlns="http://www.w3.org/2000/svg">
<g clip-path="url(#clip0_544_10222)">
<path d="M13.127 12.295C12.8026 11.7813 12.6349 11.1842 12.6445 10.5767C12.6542 9.96915 12.8407 9.37763 13.1813 8.87448C13.5219 8.37134 14.0017 7.97838 14.5622 7.74372C15.1226 7.50905 15.7393 7.44285 16.3368 7.55321C16.9343 7.66357 17.4866 7.94571 17.9262 8.3651C18.3658 8.78449 18.6737 9.32294 18.812 9.91456C18.9504 10.5062 18.9133 11.1253 18.7053 11.6962C18.4973 12.267 18.1273 12.7649 17.6408 13.1287C19.1595 13.9663 20.1445 15.575 20.1445 17.5V19.375C20.1445 19.5408 20.0787 19.6997 19.9615 19.8169C19.8443 19.9342 19.6853 20 19.5195 20C19.3538 20 19.1948 19.9342 19.0776 19.8169C18.9604 19.6997 18.8945 19.5408 18.8945 19.375V17.5C18.8945 15.345 17.2995 13.75 15.1445 13.75C14.007 13.75 13.522 13.725 12.8883 13.5975C11.3258 13.28 9.97203 12.3475 8.40703 10.39C8.35115 10.3265 8.30873 10.2524 8.28234 10.1721C8.25595 10.0917 8.24613 10.0069 8.25349 9.92264C8.26084 9.8384 8.28521 9.75653 8.32512 9.68198C8.36503 9.60744 8.41966 9.54176 8.48568 9.48894C8.55171 9.43612 8.62777 9.39724 8.70926 9.37467C8.79075 9.35209 8.87597 9.34629 8.95977 9.35761C9.04357 9.36893 9.1242 9.39713 9.19678 9.44051C9.26936 9.48389 9.33238 9.54155 9.38203 9.61C10.507 11.015 11.4483 11.785 12.4245 12.1637C12.6183 12.2288 12.8558 12.2675 13.127 12.295ZM15.3583 12.455C15.4624 12.4675 15.567 12.4817 15.672 12.4975L15.7695 12.5C16.2488 12.4989 16.7095 12.3144 17.057 11.9842C17.4044 11.654 17.6122 11.2034 17.6377 10.7247C17.6632 10.2461 17.5045 9.77592 17.1941 9.41072C16.8837 9.04551 16.4452 8.81304 15.9687 8.76106C15.4922 8.70908 15.014 8.84155 14.6321 9.13123C14.2503 9.42092 13.9939 9.84584 13.9156 10.3187C13.8373 10.7915 13.943 11.2764 14.2111 11.6737C14.4792 12.0711 14.8905 12.3506 15.3583 12.455ZM12.3695 14.9625C12.5353 14.9625 12.6943 15.0283 12.8115 15.1456C12.9287 15.2628 12.9945 15.4217 12.9945 15.5875C12.9852 15.6859 12.9642 15.7828 12.932 15.8763C12.7083 16.3512 12.6445 16.8438 12.6445 17.5037V19.3787C12.6445 19.5445 12.5787 19.7035 12.4615 19.8207C12.3443 19.9379 12.1853 20.0037 12.0195 20.0037C11.8538 20.0037 11.6948 19.9379 11.5776 19.8207C11.4604 19.7035 11.3945 19.5445 11.3945 19.3787V17.5037C11.3945 16.6825 11.4845 16.0212 11.7783 15.3837C11.8207 15.2607 11.9005 15.154 12.0065 15.0785C12.1125 15.003 12.2394 14.9624 12.3695 14.9625ZM7.59203 7.215C7.68956 7.34483 7.73274 7.50752 7.71241 7.66862C7.69209 7.82973 7.60986 7.9766 7.48314 8.07813C7.35642 8.17967 7.19516 8.2279 7.0335 8.21262C6.87184 8.19734 6.72248 8.11974 6.61703 7.99625L4.03203 4.765C3.97615 4.70154 3.93373 4.62739 3.90734 4.54706C3.88095 4.46673 3.87113 4.38187 3.87849 4.29764C3.88584 4.2134 3.91021 4.13153 3.95012 4.05698C3.99003 3.98244 4.04466 3.91676 4.11068 3.86394C4.17671 3.81112 4.25277 3.77224 4.33426 3.74967C4.41575 3.72709 4.50097 3.72129 4.58477 3.73261C4.66857 3.74393 4.7492 3.77213 4.82178 3.81551C4.89436 3.85889 4.95738 3.91655 5.00703 3.985L7.59203 7.215ZM1.39453 13.75H8.26953C8.43529 13.75 8.59426 13.8158 8.71147 13.9331C8.82868 14.0503 8.89453 14.2092 8.89453 14.375C8.89453 14.5408 8.82868 14.6997 8.71147 14.8169C8.59426 14.9342 8.43529 15 8.26953 15H0.769531C0.603771 15 0.4448 14.9342 0.32759 14.8169C0.210379 14.6997 0.144531 14.5408 0.144531 14.375V0.625C0.144531 0.45924 0.210379 0.300269 0.32759 0.183058C0.4448 0.065848 0.603771 0 0.769531 0L15.7695 0C15.9353 0 16.0943 0.065848 16.2115 0.183058C16.3287 0.300269 16.3945 0.45924 16.3945 0.625V4.375C16.3945 4.54076 16.3287 4.69973 16.2115 4.81694C16.0943 4.93415 15.9353 5 15.7695 5C15.6038 5 15.4448 4.93415 15.3276 4.81694C15.2104 4.69973 15.1445 4.54076 15.1445 4.375V1.25H1.39453V13.75Z" fill="white"/>
</g>
<defs>
<clipPath id="clip0_544_10222">
<rect width="20" height="20" fill="white" transform="translate(0.144531)"/>
</clipPath>
</defs>
</svg>
