<svg width="26" height="27" viewBox="0 0 26 27" fill="none" xmlns="http://www.w3.org/2000/svg">
<path d="M24.5457 14.8831C24.2357 14.8831 23.9384 15.0062 23.7192 15.2254C23.5 15.4446 23.3769 15.7419 23.3769 16.0519V20.9762C23.3759 21.8399 23.0324 22.6679 22.4217 23.2787C21.811 23.8894 20.983 24.2329 20.1193 24.2338H5.59525C4.73157 24.2329 3.90354 23.8894 3.29283 23.2787C2.68212 22.6679 2.33861 21.8399 2.33769 20.9762V16.0519C2.33769 15.7419 2.21454 15.4446 1.99534 15.2254C1.77614 15.0062 1.47884 14.8831 1.16884 14.8831C0.858846 14.8831 0.561547 15.0062 0.342346 15.2254C0.123146 15.4446 0 15.7419 0 16.0519V20.9762C0.00154706 22.4597 0.591542 23.882 1.64052 24.931C2.6895 25.9799 4.11177 26.5699 5.59525 26.5715H20.1193C21.6028 26.5699 23.025 25.9799 24.074 24.931C25.123 23.882 25.713 22.4597 25.7145 20.9762V16.0519C25.7145 15.7419 25.5914 15.4446 25.3722 15.2254C25.153 15.0062 24.8557 14.8831 24.5457 14.8831Z" fill="#E5004E"/>
<path d="M6.67226 9.8652L11.6901 4.84736V19.5584C11.6901 19.8684 11.8132 20.1657 12.0324 20.3849C12.2516 20.6041 12.5489 20.7272 12.8589 20.7272C13.1689 20.7272 13.4662 20.6041 13.6854 20.3849C13.9046 20.1657 14.0278 19.8684 14.0278 19.5584V4.84736L19.0456 9.8652C19.2661 10.0781 19.5613 10.1959 19.8678 10.1933C20.1743 10.1906 20.4674 10.0677 20.6841 9.85096C20.9008 9.63425 21.0238 9.34109 21.0264 9.03462C21.0291 8.72815 20.9113 8.4329 20.6984 8.21245L13.6853 1.1994C13.4661 0.980275 13.1689 0.857178 12.8589 0.857178C12.549 0.857178 12.2518 0.980275 12.0326 1.1994L5.01951 8.21245C4.8066 8.4329 4.68879 8.72815 4.69145 9.03462C4.69411 9.34109 4.81704 9.63425 5.03375 9.85096C5.25047 10.0677 5.54363 10.1906 5.85009 10.1933C6.15656 10.1959 6.45181 10.0781 6.67226 9.8652Z" fill="#E5004E"/>
</svg>
