<svg width="20" height="15" viewBox="0 0 20 15" fill="none" xmlns="http://www.w3.org/2000/svg">
<path fill-rule="evenodd" clip-rule="evenodd" d="M19.4652 8.78128C19.1841 8.99207 18.7854 8.93511 18.5746 8.65406C17.7971 7.60891 16.5695 6.9951 15.2668 7.00015C15.0111 7.00013 14.7802 6.84695 14.6808 6.61132C14.6141 6.45321 14.6141 6.27485 14.6808 6.11674C14.7802 5.88111 15.0111 5.72794 15.2668 5.72791C16.2585 5.72783 17.0849 4.96818 17.1683 3.97999C17.2516 2.99181 16.5642 2.10445 15.5866 1.93821C14.6089 1.77197 13.6668 2.38227 13.4189 3.34247C13.3311 3.68281 12.984 3.88751 12.6436 3.79968C12.3033 3.71185 12.0986 3.36475 12.1864 3.02441C12.5261 1.7099 13.6628 0.755965 15.0163 0.64946C16.3699 0.542955 17.6417 1.30737 18.1829 2.55257C18.724 3.79776 18.4151 5.24917 17.4137 6.16604C18.2787 6.54055 19.0306 7.13486 19.5948 7.88992C19.696 8.02523 19.7393 8.19526 19.7149 8.36249C19.6906 8.52972 19.6008 8.6804 19.4652 8.78128ZM15.181 13.6794C15.3063 13.8766 15.3135 14.1266 15.1996 14.3307C15.0857 14.5347 14.8692 14.6599 14.6355 14.6567C14.4019 14.6535 14.1888 14.5225 14.0805 14.3155C13.2652 12.935 11.7812 12.0879 10.1779 12.0879C8.57459 12.0879 7.0906 12.935 6.2753 14.3155C6.16699 14.5225 5.9539 14.6535 5.72026 14.6567C5.48662 14.6599 5.27005 14.5347 5.15618 14.3307C5.04231 14.1266 5.04947 13.8766 5.17482 13.6794C5.79153 12.6198 6.73187 11.7859 7.85764 11.3003C6.55878 10.3058 6.03807 8.59424 6.56308 7.04492C7.08808 5.4956 8.54203 4.45313 10.1779 4.45313C11.8137 4.45313 13.2677 5.4956 13.7927 7.04492C14.3177 8.59424 13.797 10.3058 12.4981 11.3003C13.6239 11.7859 14.5642 12.6198 15.181 13.6794ZM10.1779 10.8169C11.5832 10.8169 12.7224 9.67766 12.7224 8.27238C12.7224 6.86711 11.5832 5.72791 10.1779 5.72791C8.77261 5.72791 7.63341 6.86711 7.63341 8.27238C7.63341 9.67766 8.77261 10.8169 10.1779 10.8169ZM5.72506 6.36403C5.72506 6.01271 5.44026 5.72791 5.08894 5.72791C4.09725 5.72783 3.27088 4.96818 3.18751 3.97999C3.10414 2.99181 3.79155 2.10445 4.76921 1.93821C5.74688 1.77197 6.68894 2.38227 6.93686 3.34247C7.02469 3.68281 7.37179 3.88751 7.71213 3.79968C8.05247 3.71185 8.25717 3.36475 8.16934 3.02441C7.82962 1.7099 6.69295 0.755965 5.33943 0.64946C3.98591 0.542955 2.71402 1.30737 2.17289 2.55257C1.63175 3.79776 1.94069 5.24917 2.94204 6.16604C2.07794 6.54091 1.32687 7.13518 0.763341 7.88992C0.552331 8.17097 0.609113 8.56987 0.890167 8.78088C1.17122 8.99189 1.57012 8.93511 1.78113 8.65406C2.55867 7.60891 3.78631 6.9951 5.08894 7.00015C5.44026 7.00015 5.72506 6.71535 5.72506 6.36403Z" fill="white"/>
</svg>
