<svg width="21" height="20" viewBox="0 0 21 20" fill="none" xmlns="http://www.w3.org/2000/svg">
<mask id="path-1-outside-1_238_16737" maskUnits="userSpaceOnUse" x="-0.407959" y="0.1875" width="21" height="20" fill="black">
<rect fill="white" x="-0.407959" y="0.1875" width="21" height="20"/>
<path d="M17.1243 13.1121V10.9437C17.1243 10.4627 16.733 10.0714 16.252 10.0714H10.4697V7.2631C10.4855 7.26178 10.5013 7.26091 10.517 7.25928C10.53 7.25793 10.5428 7.25604 10.5558 7.25457C10.5939 7.25042 10.6319 7.24561 10.6698 7.24012C10.6781 7.2388 10.6864 7.23718 10.6948 7.23586C10.7372 7.22912 10.7795 7.22149 10.8217 7.21299C10.8246 7.21239 10.8277 7.21167 10.8308 7.21111C11.3978 7.09392 11.9205 6.81714 12.3429 6.40228C12.3473 6.39798 12.3512 6.39315 12.3553 6.38844C12.9101 5.83677 13.2543 5.07338 13.2543 4.23098C13.2543 2.55282 11.889 1.1875 10.2107 1.1875C8.80488 1.1875 7.58934 2.13984 7.25465 3.50365C7.23671 3.57685 7.24858 3.65417 7.28764 3.71863C7.3267 3.78308 7.38976 3.82938 7.46295 3.84735C7.53616 3.86529 7.6135 3.85341 7.67795 3.81434C7.74241 3.77526 7.7887 3.71218 7.80666 3.63898C8.07857 2.5301 9.06716 1.75577 10.2106 1.75577C11.5755 1.75577 12.686 2.86626 12.686 4.23098C12.686 4.75815 12.5197 5.247 12.2378 5.64888C12.0178 5.23495 11.6591 4.91168 11.2246 4.73574C11.4834 4.47636 11.6438 4.11851 11.6438 3.72398C11.6438 2.93376 11.0009 2.29091 10.2106 2.29091C9.42057 2.29091 8.77756 2.9338 8.77756 3.72398C8.77756 4.11851 8.93791 4.47636 9.19684 4.73574C8.76109 4.9121 8.40159 5.23664 8.18172 5.65213C8.00653 5.40133 7.87931 5.12026 7.80651 4.82312C7.79762 4.78688 7.78168 4.75273 7.7596 4.72265C7.73752 4.69256 7.70972 4.66712 7.6778 4.64778C7.64588 4.62844 7.61047 4.61558 7.57358 4.60993C7.53669 4.60428 7.49904 4.60596 7.4628 4.61486C7.38962 4.63285 7.32658 4.67916 7.28753 4.74361C7.24847 4.80806 7.23661 4.88537 7.25454 4.95857C7.52826 6.07393 8.39141 6.91381 9.46595 7.18292C9.47803 7.18587 9.4904 7.18869 9.50266 7.19149C9.53492 7.19915 9.56718 7.2065 9.59993 7.21314C9.6157 7.21624 9.63162 7.21918 9.6475 7.22227C9.69419 7.23097 9.74107 7.23858 9.78812 7.2451C9.81804 7.24925 9.84811 7.2528 9.87829 7.25619C9.88598 7.25695 9.89364 7.25808 9.90145 7.25898V10.0714H4.16956C3.68853 10.0714 3.29724 10.4626 3.29724 10.9437V13.1112C2.00282 13.2199 0.913865 14.1374 0.600116 15.4167C0.583098 15.4896 0.595498 15.5662 0.634625 15.63C0.673753 15.6938 0.73645 15.7395 0.80911 15.7574C0.881771 15.7752 0.958532 15.7636 1.02273 15.7252C1.08694 15.6868 1.1334 15.6246 1.15204 15.5522C1.41995 14.4595 2.38365 13.6921 3.50577 13.6695C3.53038 13.6764 3.55582 13.6799 3.58138 13.68C3.60571 13.68 3.62914 13.6766 3.6517 13.6709C4.97246 13.7213 6.03154 14.811 6.03154 16.1439C6.03154 16.6711 5.86527 17.1597 5.58332 17.5616C5.36332 17.1477 5.00462 16.8244 4.57013 16.6485C4.82894 16.3891 4.98929 16.0313 4.98929 15.6367C4.98929 14.8465 4.3464 14.2037 3.55617 14.2037C2.76595 14.2037 2.1231 14.8465 2.1231 15.6367C2.1231 16.0313 2.28344 16.3891 2.54237 16.6485C2.10665 16.8249 1.74717 17.1494 1.52725 17.5649C1.35203 17.3142 1.22486 17.0332 1.1522 16.7362C1.11473 16.5838 0.960912 16.4908 0.80849 16.5279C0.772247 16.5368 0.738111 16.5527 0.70803 16.5748C0.67795 16.5969 0.652514 16.6247 0.633175 16.6566C0.613836 16.6885 0.600973 16.724 0.59532 16.7608C0.589667 16.7977 0.591335 16.8354 0.600229 16.8716C0.725742 17.386 0.983698 17.8587 1.34846 18.2425C1.71322 18.6263 2.17208 18.908 2.67944 19.0596L2.68401 19.0607C2.72589 19.0733 2.76803 19.0846 2.81047 19.0952C2.82387 19.0988 2.83745 19.1017 2.85099 19.1048C2.88193 19.1122 2.91287 19.1191 2.94414 19.1254C2.96108 19.129 2.97802 19.1321 2.99512 19.1353C3.02356 19.1406 3.05201 19.1455 3.08076 19.1499C3.09887 19.1529 3.11698 19.1555 3.13513 19.158C3.16372 19.162 3.19247 19.1654 3.22133 19.1686C3.23918 19.1705 3.25688 19.1726 3.27468 19.1742C3.30607 19.177 3.33761 19.1792 3.36915 19.181C3.38451 19.182 3.39968 19.1832 3.41499 19.184C3.51329 19.1887 3.61175 19.1885 3.71003 19.1835C3.72229 19.1829 3.73437 19.1816 3.74663 19.1809C3.78558 19.1787 3.82448 19.1757 3.86332 19.172C3.87392 19.1708 3.88441 19.1694 3.89501 19.168C3.93548 19.1637 3.97586 19.1586 4.01612 19.1527C4.02265 19.1517 4.0291 19.1503 4.03559 19.1493C4.07988 19.1424 4.124 19.1345 4.16794 19.1256C4.16956 19.1253 4.17103 19.1248 4.17251 19.1246C4.74096 19.008 5.26516 18.7308 5.68843 18.315C5.69285 18.3107 5.69655 18.3059 5.70051 18.3014C6.25553 17.7499 6.5998 16.9863 6.5998 16.1439C6.5998 14.57 5.39898 13.2713 3.86555 13.1159V10.9437C3.86555 10.7761 4.00186 10.6396 4.16956 10.6396H9.90149V13.1163C8.62933 13.2444 7.56422 14.154 7.25462 15.4167C7.23669 15.4899 7.24855 15.5672 7.2876 15.6317C7.32665 15.6961 7.3897 15.7424 7.46288 15.7604C7.53606 15.7783 7.61337 15.7664 7.67781 15.7274C7.74225 15.6883 7.78856 15.6253 7.80654 15.5521C8.07845 14.4432 9.06705 13.6685 10.2107 13.6685C11.5755 13.6685 12.686 14.779 12.686 16.1439C12.686 16.6711 12.5198 17.1597 12.2378 17.5616C12.0178 17.1477 11.6591 16.8244 11.2246 16.6485C11.4834 16.3891 11.6438 16.0313 11.6438 15.6367C11.6438 14.8467 11.0009 14.2037 10.2107 14.2037C9.4206 14.2037 8.7776 14.8467 8.7776 15.6367C8.7776 16.0313 8.93794 16.3891 9.19687 16.6485C8.76113 16.8249 8.40163 17.1494 8.18175 17.5649C8.00652 17.3142 7.87933 17.0332 7.80666 16.7362C7.76923 16.5838 7.61538 16.4908 7.46299 16.5279C7.42675 16.5368 7.39261 16.5527 7.36253 16.5748C7.33245 16.5969 7.30701 16.6247 7.28768 16.6566C7.26834 16.6885 7.25547 16.724 7.24982 16.7608C7.24417 16.7977 7.24584 16.8354 7.25473 16.8716C7.38024 17.386 7.6382 17.8587 8.00296 18.2425C8.36772 18.6263 8.82658 18.908 9.33394 19.0596C9.33541 19.06 9.33704 19.0605 9.33851 19.0607C9.38039 19.0733 9.42238 19.0846 9.46482 19.0954C9.4784 19.0988 9.49191 19.1017 9.50549 19.1049C9.53643 19.1122 9.56737 19.1193 9.59864 19.1256C9.61558 19.129 9.63252 19.1322 9.64962 19.1353C9.69611 19.1439 9.74279 19.1516 9.78963 19.1581C9.81822 19.162 9.84697 19.1655 9.87584 19.1686C9.89368 19.1705 9.91138 19.1726 9.92918 19.1742C9.96057 19.1772 9.99211 19.1792 10.0237 19.1812C10.039 19.182 10.0542 19.1833 10.0695 19.1841C10.1164 19.1862 10.1634 19.1875 10.2107 19.1875C10.2621 19.1875 10.3134 19.186 10.3644 19.1835C10.3768 19.1829 10.3889 19.1816 10.4011 19.1809C10.4401 19.1787 10.479 19.1757 10.5178 19.172C10.5284 19.171 10.5389 19.1694 10.5494 19.1682C10.5899 19.1638 10.6303 19.1586 10.6707 19.1527C10.6771 19.1517 10.6836 19.1503 10.6901 19.1493C10.7359 19.1422 10.7816 19.134 10.827 19.1247C11.3955 19.008 11.9197 18.7308 12.3429 18.315C12.3473 18.3107 12.351 18.3059 12.3552 18.3013C12.91 17.7497 13.2543 16.9863 13.2543 16.1439C13.2543 14.5529 12.0271 13.244 10.4698 13.112V10.6397H16.2518C16.4195 10.6397 16.5558 10.7761 16.5558 10.9437V13.1163C15.2838 13.2444 14.2186 14.154 13.9091 15.4167C13.8994 15.4532 13.8971 15.4913 13.9023 15.5287C13.9074 15.5661 13.92 15.6022 13.9393 15.6347C13.9586 15.6672 13.9841 15.6955 14.0145 15.718C14.0448 15.7405 14.0794 15.7567 14.1161 15.7657C14.1528 15.7747 14.1909 15.7763 14.2282 15.7704C14.2655 15.7645 14.3013 15.7512 14.3334 15.7313C14.3655 15.7114 14.3934 15.6853 14.4153 15.6545C14.4372 15.6237 14.4527 15.5889 14.461 15.552C14.7253 14.4745 15.6661 13.7129 16.7682 13.6706C16.7916 13.6767 16.8158 13.6799 16.84 13.68C16.8659 13.68 16.891 13.6762 16.9149 13.6697C18.2567 13.6964 19.3404 14.7955 19.3404 16.1439C19.3404 16.6711 19.1743 17.1597 18.8924 17.5616C18.6723 17.1477 18.3135 16.8244 17.879 16.6485C18.1379 16.3891 18.2981 16.0313 18.2981 15.6367C18.2981 14.8467 17.6552 14.2037 16.8652 14.2037C16.075 14.2037 15.4321 14.8467 15.4321 15.6367C15.4321 16.0313 15.5924 16.3891 15.8513 16.6485C15.4155 16.8249 15.0561 17.1494 14.8363 17.5649C14.661 17.3142 14.5338 17.0332 14.461 16.7362C14.443 16.663 14.3967 16.6 14.3323 16.5609C14.2678 16.5219 14.1905 16.51 14.1173 16.5279C14.0442 16.5459 13.9811 16.5922 13.9421 16.6567C13.903 16.7211 13.8911 16.7984 13.9091 16.8716C14.0346 17.3861 14.2926 17.8587 14.6574 18.2426C15.0222 18.6264 15.4812 18.9081 15.9886 19.0596C15.9896 19.06 15.9908 19.0602 15.992 19.0606C16.0341 19.0731 16.0766 19.0846 16.1194 19.0954C16.1327 19.0988 16.1461 19.1017 16.1595 19.1048C16.1906 19.1122 16.2217 19.1192 16.2531 19.1256C16.2699 19.129 16.2869 19.1322 16.3038 19.1353C16.3504 19.144 16.3971 19.1516 16.444 19.1581C16.4726 19.162 16.5015 19.1655 16.5304 19.1686C16.5482 19.1705 16.5658 19.1726 16.5837 19.1742C16.6149 19.1772 16.6465 19.1792 16.6782 19.1812C16.6933 19.182 16.7085 19.1833 16.7238 19.1841C16.7707 19.1862 16.8177 19.1875 16.8652 19.1875C16.9166 19.1875 16.9678 19.186 17.0189 19.1835C17.0311 19.1829 17.0432 19.1816 17.0555 19.1809C17.0944 19.1787 17.1333 19.1757 17.1722 19.172C17.1828 19.171 17.1932 19.1694 17.2039 19.1682C17.2443 19.1638 17.2847 19.1586 17.325 19.1527C17.3315 19.1517 17.3379 19.1503 17.3444 19.1493C17.3888 19.1424 17.433 19.1345 17.4769 19.1256L17.4814 19.1247C18.0499 19.008 18.574 18.7308 18.9973 18.315C19.0017 18.3107 19.0055 18.3059 19.0095 18.3013C19.5645 17.7497 19.9087 16.9863 19.9087 16.1439C19.9088 14.5529 18.6816 13.244 17.1243 13.112L17.1243 13.1121ZM3.55617 14.7719C4.03306 14.7719 4.42099 15.16 4.42099 15.6367C4.42099 16.1135 4.0331 16.5015 3.55617 16.5015C3.07944 16.5015 2.69151 16.1135 2.69151 15.6367C2.69151 15.16 3.07944 14.7719 3.55617 14.7719ZM4.17575 18.5406C4.17413 18.5411 4.17236 18.5414 4.17058 18.5418C4.13538 18.5509 4.09984 18.559 4.06404 18.5666C4.05683 18.568 4.04959 18.5695 4.04223 18.5708C4.01171 18.577 3.98105 18.5825 3.95029 18.5874C3.9398 18.5891 3.92935 18.5907 3.91874 18.5923C3.8906 18.5965 3.86215 18.6 3.8337 18.6031C3.82163 18.6046 3.80937 18.6061 3.7973 18.6072C3.76885 18.61 3.7401 18.612 3.71139 18.6137C3.69973 18.6145 3.68822 18.6155 3.6766 18.6161C3.63665 18.618 3.59658 18.6192 3.55617 18.6192C3.51965 18.6192 3.48325 18.6183 3.44699 18.6168C3.43548 18.6162 3.42397 18.6152 3.41235 18.6146C3.38787 18.6131 3.36327 18.6118 3.33878 18.6096C3.32509 18.6086 3.31169 18.6068 3.29811 18.6053C3.27585 18.603 3.25348 18.6009 3.23133 18.598C3.21768 18.5962 3.20394 18.5938 3.1904 18.5918C3.16829 18.5885 3.14633 18.5854 3.12452 18.5816C3.11155 18.5792 3.09872 18.5766 3.08589 18.5742C3.06337 18.5698 3.04065 18.5654 3.01824 18.5605C3.00677 18.558 2.99542 18.5551 2.98406 18.5524C2.96001 18.5468 2.93604 18.5408 2.91215 18.5346C2.90287 18.5321 2.89374 18.5293 2.88446 18.5268C2.85805 18.5194 2.83198 18.5117 2.80591 18.5035C2.79957 18.5016 2.79323 18.4993 2.78689 18.4973C2.75737 18.4877 2.72804 18.4776 2.69891 18.4669C2.69638 18.4661 2.69389 18.465 2.69136 18.4641C2.41859 18.3623 2.16603 18.2129 1.94536 18.0229C2.14758 17.4544 2.68386 17.07 3.30034 17.07H3.81216C4.42808 17.07 4.96393 17.4539 5.16657 18.0214C4.88406 18.264 4.54685 18.4445 4.17575 18.5406ZM10.2107 14.7719C10.6876 14.7719 11.0755 15.16 11.0755 15.6367C11.0755 16.1135 10.6876 16.5015 10.2107 16.5015C9.7339 16.5015 9.34601 16.1135 9.34601 15.6367C9.34601 15.16 9.7339 14.7719 10.2107 14.7719ZM10.8303 18.5406C10.8286 18.5411 10.8269 18.5414 10.8251 18.5418C10.7899 18.5508 10.7543 18.559 10.7185 18.5666C10.7113 18.568 10.7041 18.5695 10.6967 18.5708C10.6664 18.577 10.6357 18.5825 10.6049 18.5874C10.5943 18.5889 10.5838 18.5907 10.5732 18.5923C10.5451 18.5965 10.5168 18.5999 10.4883 18.6031C10.4761 18.6046 10.464 18.6061 10.4518 18.6072C10.4232 18.6099 10.3946 18.6121 10.366 18.6137C10.3544 18.6145 10.3429 18.6155 10.3313 18.6161C10.2913 18.618 10.2512 18.6192 10.2108 18.6192C10.1743 18.6192 10.1379 18.6183 10.1016 18.6168C10.0901 18.6162 10.0786 18.6152 10.067 18.6146C10.0425 18.6131 10.0178 18.6118 9.99343 18.6096C9.97974 18.6086 9.96635 18.6068 9.95276 18.6053C9.9305 18.603 9.90813 18.6009 9.88598 18.598C9.87218 18.5962 9.85859 18.5938 9.84486 18.5918C9.82294 18.5885 9.80098 18.5854 9.77917 18.5816C9.7662 18.5792 9.75337 18.5766 9.74054 18.5742C9.71787 18.5698 9.6953 18.5654 9.67274 18.5605C9.66142 18.558 9.65007 18.5551 9.63871 18.5524C9.61466 18.5468 9.59069 18.5408 9.5668 18.5346C9.55752 18.5321 9.54824 18.5293 9.53907 18.5268C9.5127 18.5194 9.48663 18.5117 9.46052 18.5035C9.45418 18.5016 9.44784 18.4993 9.44151 18.4973C9.41198 18.4877 9.38265 18.4776 9.35352 18.4669C9.35103 18.4661 9.34854 18.465 9.34601 18.4641C9.07325 18.3623 8.82068 18.2129 8.60001 18.0229C8.80224 17.4544 9.33851 17.07 9.95499 17.07H10.4668C11.0827 17.07 11.6186 17.4539 11.8212 18.0214C11.5387 18.264 11.2015 18.4445 10.8303 18.5406ZM10.2107 2.85925C10.6876 2.85925 11.0755 3.24709 11.0755 3.72402C11.0755 4.20079 10.6876 4.58883 10.2107 4.58883C9.73394 4.58883 9.34605 4.20079 9.34605 3.72402C9.34605 3.24713 9.73394 2.85925 10.2107 2.85925ZM10.4508 6.69457C10.424 6.69721 10.3968 6.69909 10.3697 6.70075C10.3565 6.70162 10.3435 6.70283 10.3302 6.70339C10.2944 6.70502 10.2583 6.70592 10.222 6.70619C10.2182 6.70619 10.2146 6.70634 10.2107 6.70634C10.1739 6.70634 10.1372 6.70558 10.1006 6.704C10.0937 6.7037 10.0868 6.70294 10.0797 6.70268C10.0505 6.70127 10.0214 6.69935 9.9923 6.6969C9.98155 6.69589 9.9708 6.69457 9.96004 6.6934C9.9349 6.691 9.9098 6.68823 9.88474 6.6851C9.87308 6.68351 9.86142 6.68159 9.8498 6.67981C9.8258 6.67653 9.80186 6.6728 9.77801 6.66861C9.76654 6.66672 9.75518 6.66435 9.74382 6.66212C9.71968 6.65765 9.6956 6.65279 9.67161 6.64756C9.66142 6.64533 9.65143 6.64265 9.64124 6.64031C9.61591 6.63446 9.59066 6.62822 9.56552 6.6216C9.55741 6.61941 9.5493 6.61688 9.54103 6.61469C9.50819 6.6056 9.47556 6.59576 9.44317 6.58519C9.41265 6.57527 9.38234 6.56476 9.35224 6.55365C9.35062 6.55308 9.34884 6.55252 9.34726 6.55191C9.0739 6.45011 8.82083 6.3005 8.59986 6.11008C8.80208 5.54177 9.33839 5.15713 9.95473 5.15713H10.4667C11.0826 5.15713 11.6183 5.54106 11.8211 6.10872C11.5389 6.35116 11.2018 6.53169 10.8312 6.62764C10.8286 6.62839 10.826 6.62899 10.8234 6.62971C10.7891 6.63839 10.7545 6.64635 10.7196 6.65374L10.6954 6.65861C10.6658 6.6645 10.6362 6.66966 10.6063 6.67453C10.5949 6.67627 10.5834 6.67819 10.5721 6.67981C10.545 6.68381 10.5177 6.68721 10.4904 6.6903C10.4772 6.69162 10.4641 6.69325 10.4508 6.69457H10.4508ZM16.8652 14.772C17.3421 14.772 17.73 15.16 17.73 15.6368C17.73 16.1135 17.3421 16.5016 16.8652 16.5016C16.3884 16.5016 16.0006 16.1135 16.0006 15.6368C16.0006 15.16 16.3884 14.772 16.8652 14.772ZM17.4848 18.5407C17.483 18.5411 17.4814 18.5414 17.4796 18.5419C17.4444 18.5509 17.4089 18.5591 17.3731 18.5666C17.3659 18.5681 17.3585 18.5696 17.3513 18.5709C17.3209 18.5771 17.2903 18.5826 17.2594 18.5874C17.2489 18.589 17.2382 18.5908 17.2277 18.5924C17.1996 18.5966 17.1712 18.6 17.1429 18.6032C17.1306 18.6047 17.1186 18.6061 17.1063 18.6073C17.0778 18.61 17.0492 18.6122 17.0205 18.6138C17.0089 18.6146 16.9974 18.6156 16.9858 18.6161C16.9458 18.6181 16.9058 18.6192 16.8654 18.6192C16.8288 18.6192 16.7924 18.6184 16.7562 18.6169C16.7447 18.6163 16.7332 18.6153 16.7215 18.6147C16.6969 18.6132 16.6723 18.6119 16.6478 18.6097C16.6343 18.6086 16.6209 18.6069 16.6073 18.6054C16.5849 18.6031 16.5627 18.601 16.5404 18.598C16.5267 18.5963 16.5131 18.5939 16.4994 18.5918C16.4775 18.5886 16.4554 18.5855 16.4336 18.5817C16.4207 18.5793 16.4079 18.5766 16.3951 18.5743C16.3724 18.5699 16.3498 18.5654 16.3273 18.5606C16.316 18.5581 16.3048 18.5551 16.2934 18.5525C16.2692 18.5469 16.2451 18.5409 16.2212 18.5345C16.2121 18.5322 16.2029 18.5295 16.1938 18.527C16.1674 18.5195 16.1412 18.5118 16.1151 18.5036C16.1087 18.5017 16.1025 18.4994 16.0963 18.4974C16.0666 18.4878 16.0371 18.4776 16.0079 18.4669C16.0056 18.466 16.0032 18.4651 16.0009 18.4644C15.728 18.3624 15.4753 18.2129 15.2545 18.0228C15.4568 17.4545 15.993 17.07 16.6095 17.07H17.1214C17.7372 17.07 18.2731 17.454 18.4758 18.0215C18.1932 18.2641 17.856 18.4446 17.4848 18.5407Z"/>
</mask>
<path d="M17.1243 13.1121V10.9437C17.1243 10.4627 16.733 10.0714 16.252 10.0714H10.4697V7.2631C10.4855 7.26178 10.5013 7.26091 10.517 7.25928C10.53 7.25793 10.5428 7.25604 10.5558 7.25457C10.5939 7.25042 10.6319 7.24561 10.6698 7.24012C10.6781 7.2388 10.6864 7.23718 10.6948 7.23586C10.7372 7.22912 10.7795 7.22149 10.8217 7.21299C10.8246 7.21239 10.8277 7.21167 10.8308 7.21111C11.3978 7.09392 11.9205 6.81714 12.3429 6.40228C12.3473 6.39798 12.3512 6.39315 12.3553 6.38844C12.9101 5.83677 13.2543 5.07338 13.2543 4.23098C13.2543 2.55282 11.889 1.1875 10.2107 1.1875C8.80488 1.1875 7.58934 2.13984 7.25465 3.50365C7.23671 3.57685 7.24858 3.65417 7.28764 3.71863C7.3267 3.78308 7.38976 3.82938 7.46295 3.84735C7.53616 3.86529 7.6135 3.85341 7.67795 3.81434C7.74241 3.77526 7.7887 3.71218 7.80666 3.63898C8.07857 2.5301 9.06716 1.75577 10.2106 1.75577C11.5755 1.75577 12.686 2.86626 12.686 4.23098C12.686 4.75815 12.5197 5.247 12.2378 5.64888C12.0178 5.23495 11.6591 4.91168 11.2246 4.73574C11.4834 4.47636 11.6438 4.11851 11.6438 3.72398C11.6438 2.93376 11.0009 2.29091 10.2106 2.29091C9.42057 2.29091 8.77756 2.9338 8.77756 3.72398C8.77756 4.11851 8.93791 4.47636 9.19684 4.73574C8.76109 4.9121 8.40159 5.23664 8.18172 5.65213C8.00653 5.40133 7.87931 5.12026 7.80651 4.82312C7.79762 4.78688 7.78168 4.75273 7.7596 4.72265C7.73752 4.69256 7.70972 4.66712 7.6778 4.64778C7.64588 4.62844 7.61047 4.61558 7.57358 4.60993C7.53669 4.60428 7.49904 4.60596 7.4628 4.61486C7.38962 4.63285 7.32658 4.67916 7.28753 4.74361C7.24847 4.80806 7.23661 4.88537 7.25454 4.95857C7.52826 6.07393 8.39141 6.91381 9.46595 7.18292C9.47803 7.18587 9.4904 7.18869 9.50266 7.19149C9.53492 7.19915 9.56718 7.2065 9.59993 7.21314C9.6157 7.21624 9.63162 7.21918 9.6475 7.22227C9.69419 7.23097 9.74107 7.23858 9.78812 7.2451C9.81804 7.24925 9.84811 7.2528 9.87829 7.25619C9.88598 7.25695 9.89364 7.25808 9.90145 7.25898V10.0714H4.16956C3.68853 10.0714 3.29724 10.4626 3.29724 10.9437V13.1112C2.00282 13.2199 0.913865 14.1374 0.600116 15.4167C0.583098 15.4896 0.595498 15.5662 0.634625 15.63C0.673753 15.6938 0.73645 15.7395 0.80911 15.7574C0.881771 15.7752 0.958532 15.7636 1.02273 15.7252C1.08694 15.6868 1.1334 15.6246 1.15204 15.5522C1.41995 14.4595 2.38365 13.6921 3.50577 13.6695C3.53038 13.6764 3.55582 13.6799 3.58138 13.68C3.60571 13.68 3.62914 13.6766 3.6517 13.6709C4.97246 13.7213 6.03154 14.811 6.03154 16.1439C6.03154 16.6711 5.86527 17.1597 5.58332 17.5616C5.36332 17.1477 5.00462 16.8244 4.57013 16.6485C4.82894 16.3891 4.98929 16.0313 4.98929 15.6367C4.98929 14.8465 4.3464 14.2037 3.55617 14.2037C2.76595 14.2037 2.1231 14.8465 2.1231 15.6367C2.1231 16.0313 2.28344 16.3891 2.54237 16.6485C2.10665 16.8249 1.74717 17.1494 1.52725 17.5649C1.35203 17.3142 1.22486 17.0332 1.1522 16.7362C1.11473 16.5838 0.960912 16.4908 0.80849 16.5279C0.772247 16.5368 0.738111 16.5527 0.70803 16.5748C0.67795 16.5969 0.652514 16.6247 0.633175 16.6566C0.613836 16.6885 0.600973 16.724 0.59532 16.7608C0.589667 16.7977 0.591335 16.8354 0.600229 16.8716C0.725742 17.386 0.983698 17.8587 1.34846 18.2425C1.71322 18.6263 2.17208 18.908 2.67944 19.0596L2.68401 19.0607C2.72589 19.0733 2.76803 19.0846 2.81047 19.0952C2.82387 19.0988 2.83745 19.1017 2.85099 19.1048C2.88193 19.1122 2.91287 19.1191 2.94414 19.1254C2.96108 19.129 2.97802 19.1321 2.99512 19.1353C3.02356 19.1406 3.05201 19.1455 3.08076 19.1499C3.09887 19.1529 3.11698 19.1555 3.13513 19.158C3.16372 19.162 3.19247 19.1654 3.22133 19.1686C3.23918 19.1705 3.25688 19.1726 3.27468 19.1742C3.30607 19.177 3.33761 19.1792 3.36915 19.181C3.38451 19.182 3.39968 19.1832 3.41499 19.184C3.51329 19.1887 3.61175 19.1885 3.71003 19.1835C3.72229 19.1829 3.73437 19.1816 3.74663 19.1809C3.78558 19.1787 3.82448 19.1757 3.86332 19.172C3.87392 19.1708 3.88441 19.1694 3.89501 19.168C3.93548 19.1637 3.97586 19.1586 4.01612 19.1527C4.02265 19.1517 4.0291 19.1503 4.03559 19.1493C4.07988 19.1424 4.124 19.1345 4.16794 19.1256C4.16956 19.1253 4.17103 19.1248 4.17251 19.1246C4.74096 19.008 5.26516 18.7308 5.68843 18.315C5.69285 18.3107 5.69655 18.3059 5.70051 18.3014C6.25553 17.7499 6.5998 16.9863 6.5998 16.1439C6.5998 14.57 5.39898 13.2713 3.86555 13.1159V10.9437C3.86555 10.7761 4.00186 10.6396 4.16956 10.6396H9.90149V13.1163C8.62933 13.2444 7.56422 14.154 7.25462 15.4167C7.23669 15.4899 7.24855 15.5672 7.2876 15.6317C7.32665 15.6961 7.3897 15.7424 7.46288 15.7604C7.53606 15.7783 7.61337 15.7664 7.67781 15.7274C7.74225 15.6883 7.78856 15.6253 7.80654 15.5521C8.07845 14.4432 9.06705 13.6685 10.2107 13.6685C11.5755 13.6685 12.686 14.779 12.686 16.1439C12.686 16.6711 12.5198 17.1597 12.2378 17.5616C12.0178 17.1477 11.6591 16.8244 11.2246 16.6485C11.4834 16.3891 11.6438 16.0313 11.6438 15.6367C11.6438 14.8467 11.0009 14.2037 10.2107 14.2037C9.4206 14.2037 8.7776 14.8467 8.7776 15.6367C8.7776 16.0313 8.93794 16.3891 9.19687 16.6485C8.76113 16.8249 8.40163 17.1494 8.18175 17.5649C8.00652 17.3142 7.87933 17.0332 7.80666 16.7362C7.76923 16.5838 7.61538 16.4908 7.46299 16.5279C7.42675 16.5368 7.39261 16.5527 7.36253 16.5748C7.33245 16.5969 7.30701 16.6247 7.28768 16.6566C7.26834 16.6885 7.25547 16.724 7.24982 16.7608C7.24417 16.7977 7.24584 16.8354 7.25473 16.8716C7.38024 17.386 7.6382 17.8587 8.00296 18.2425C8.36772 18.6263 8.82658 18.908 9.33394 19.0596C9.33541 19.06 9.33704 19.0605 9.33851 19.0607C9.38039 19.0733 9.42238 19.0846 9.46482 19.0954C9.4784 19.0988 9.49191 19.1017 9.50549 19.1049C9.53643 19.1122 9.56737 19.1193 9.59864 19.1256C9.61558 19.129 9.63252 19.1322 9.64962 19.1353C9.69611 19.1439 9.74279 19.1516 9.78963 19.1581C9.81822 19.162 9.84697 19.1655 9.87584 19.1686C9.89368 19.1705 9.91138 19.1726 9.92918 19.1742C9.96057 19.1772 9.99211 19.1792 10.0237 19.1812C10.039 19.182 10.0542 19.1833 10.0695 19.1841C10.1164 19.1862 10.1634 19.1875 10.2107 19.1875C10.2621 19.1875 10.3134 19.186 10.3644 19.1835C10.3768 19.1829 10.3889 19.1816 10.4011 19.1809C10.4401 19.1787 10.479 19.1757 10.5178 19.172C10.5284 19.171 10.5389 19.1694 10.5494 19.1682C10.5899 19.1638 10.6303 19.1586 10.6707 19.1527C10.6771 19.1517 10.6836 19.1503 10.6901 19.1493C10.7359 19.1422 10.7816 19.134 10.827 19.1247C11.3955 19.008 11.9197 18.7308 12.3429 18.315C12.3473 18.3107 12.351 18.3059 12.3552 18.3013C12.91 17.7497 13.2543 16.9863 13.2543 16.1439C13.2543 14.5529 12.0271 13.244 10.4698 13.112V10.6397H16.2518C16.4195 10.6397 16.5558 10.7761 16.5558 10.9437V13.1163C15.2838 13.2444 14.2186 14.154 13.9091 15.4167C13.8994 15.4532 13.8971 15.4913 13.9023 15.5287C13.9074 15.5661 13.92 15.6022 13.9393 15.6347C13.9586 15.6672 13.9841 15.6955 14.0145 15.718C14.0448 15.7405 14.0794 15.7567 14.1161 15.7657C14.1528 15.7747 14.1909 15.7763 14.2282 15.7704C14.2655 15.7645 14.3013 15.7512 14.3334 15.7313C14.3655 15.7114 14.3934 15.6853 14.4153 15.6545C14.4372 15.6237 14.4527 15.5889 14.461 15.552C14.7253 14.4745 15.6661 13.7129 16.7682 13.6706C16.7916 13.6767 16.8158 13.6799 16.84 13.68C16.8659 13.68 16.891 13.6762 16.9149 13.6697C18.2567 13.6964 19.3404 14.7955 19.3404 16.1439C19.3404 16.6711 19.1743 17.1597 18.8924 17.5616C18.6723 17.1477 18.3135 16.8244 17.879 16.6485C18.1379 16.3891 18.2981 16.0313 18.2981 15.6367C18.2981 14.8467 17.6552 14.2037 16.8652 14.2037C16.075 14.2037 15.4321 14.8467 15.4321 15.6367C15.4321 16.0313 15.5924 16.3891 15.8513 16.6485C15.4155 16.8249 15.0561 17.1494 14.8363 17.5649C14.661 17.3142 14.5338 17.0332 14.461 16.7362C14.443 16.663 14.3967 16.6 14.3323 16.5609C14.2678 16.5219 14.1905 16.51 14.1173 16.5279C14.0442 16.5459 13.9811 16.5922 13.9421 16.6567C13.903 16.7211 13.8911 16.7984 13.9091 16.8716C14.0346 17.3861 14.2926 17.8587 14.6574 18.2426C15.0222 18.6264 15.4812 18.9081 15.9886 19.0596C15.9896 19.06 15.9908 19.0602 15.992 19.0606C16.0341 19.0731 16.0766 19.0846 16.1194 19.0954C16.1327 19.0988 16.1461 19.1017 16.1595 19.1048C16.1906 19.1122 16.2217 19.1192 16.2531 19.1256C16.2699 19.129 16.2869 19.1322 16.3038 19.1353C16.3504 19.144 16.3971 19.1516 16.444 19.1581C16.4726 19.162 16.5015 19.1655 16.5304 19.1686C16.5482 19.1705 16.5658 19.1726 16.5837 19.1742C16.6149 19.1772 16.6465 19.1792 16.6782 19.1812C16.6933 19.182 16.7085 19.1833 16.7238 19.1841C16.7707 19.1862 16.8177 19.1875 16.8652 19.1875C16.9166 19.1875 16.9678 19.186 17.0189 19.1835C17.0311 19.1829 17.0432 19.1816 17.0555 19.1809C17.0944 19.1787 17.1333 19.1757 17.1722 19.172C17.1828 19.171 17.1932 19.1694 17.2039 19.1682C17.2443 19.1638 17.2847 19.1586 17.325 19.1527C17.3315 19.1517 17.3379 19.1503 17.3444 19.1493C17.3888 19.1424 17.433 19.1345 17.4769 19.1256L17.4814 19.1247C18.0499 19.008 18.574 18.7308 18.9973 18.315C19.0017 18.3107 19.0055 18.3059 19.0095 18.3013C19.5645 17.7497 19.9087 16.9863 19.9087 16.1439C19.9088 14.5529 18.6816 13.244 17.1243 13.112L17.1243 13.1121ZM3.55617 14.7719C4.03306 14.7719 4.42099 15.16 4.42099 15.6367C4.42099 16.1135 4.0331 16.5015 3.55617 16.5015C3.07944 16.5015 2.69151 16.1135 2.69151 15.6367C2.69151 15.16 3.07944 14.7719 3.55617 14.7719ZM4.17575 18.5406C4.17413 18.5411 4.17236 18.5414 4.17058 18.5418C4.13538 18.5509 4.09984 18.559 4.06404 18.5666C4.05683 18.568 4.04959 18.5695 4.04223 18.5708C4.01171 18.577 3.98105 18.5825 3.95029 18.5874C3.9398 18.5891 3.92935 18.5907 3.91874 18.5923C3.8906 18.5965 3.86215 18.6 3.8337 18.6031C3.82163 18.6046 3.80937 18.6061 3.7973 18.6072C3.76885 18.61 3.7401 18.612 3.71139 18.6137C3.69973 18.6145 3.68822 18.6155 3.6766 18.6161C3.63665 18.618 3.59658 18.6192 3.55617 18.6192C3.51965 18.6192 3.48325 18.6183 3.44699 18.6168C3.43548 18.6162 3.42397 18.6152 3.41235 18.6146C3.38787 18.6131 3.36327 18.6118 3.33878 18.6096C3.32509 18.6086 3.31169 18.6068 3.29811 18.6053C3.27585 18.603 3.25348 18.6009 3.23133 18.598C3.21768 18.5962 3.20394 18.5938 3.1904 18.5918C3.16829 18.5885 3.14633 18.5854 3.12452 18.5816C3.11155 18.5792 3.09872 18.5766 3.08589 18.5742C3.06337 18.5698 3.04065 18.5654 3.01824 18.5605C3.00677 18.558 2.99542 18.5551 2.98406 18.5524C2.96001 18.5468 2.93604 18.5408 2.91215 18.5346C2.90287 18.5321 2.89374 18.5293 2.88446 18.5268C2.85805 18.5194 2.83198 18.5117 2.80591 18.5035C2.79957 18.5016 2.79323 18.4993 2.78689 18.4973C2.75737 18.4877 2.72804 18.4776 2.69891 18.4669C2.69638 18.4661 2.69389 18.465 2.69136 18.4641C2.41859 18.3623 2.16603 18.2129 1.94536 18.0229C2.14758 17.4544 2.68386 17.07 3.30034 17.07H3.81216C4.42808 17.07 4.96393 17.4539 5.16657 18.0214C4.88406 18.264 4.54685 18.4445 4.17575 18.5406ZM10.2107 14.7719C10.6876 14.7719 11.0755 15.16 11.0755 15.6367C11.0755 16.1135 10.6876 16.5015 10.2107 16.5015C9.7339 16.5015 9.34601 16.1135 9.34601 15.6367C9.34601 15.16 9.7339 14.7719 10.2107 14.7719ZM10.8303 18.5406C10.8286 18.5411 10.8269 18.5414 10.8251 18.5418C10.7899 18.5508 10.7543 18.559 10.7185 18.5666C10.7113 18.568 10.7041 18.5695 10.6967 18.5708C10.6664 18.577 10.6357 18.5825 10.6049 18.5874C10.5943 18.5889 10.5838 18.5907 10.5732 18.5923C10.5451 18.5965 10.5168 18.5999 10.4883 18.6031C10.4761 18.6046 10.464 18.6061 10.4518 18.6072C10.4232 18.6099 10.3946 18.6121 10.366 18.6137C10.3544 18.6145 10.3429 18.6155 10.3313 18.6161C10.2913 18.618 10.2512 18.6192 10.2108 18.6192C10.1743 18.6192 10.1379 18.6183 10.1016 18.6168C10.0901 18.6162 10.0786 18.6152 10.067 18.6146C10.0425 18.6131 10.0178 18.6118 9.99343 18.6096C9.97974 18.6086 9.96635 18.6068 9.95276 18.6053C9.9305 18.603 9.90813 18.6009 9.88598 18.598C9.87218 18.5962 9.85859 18.5938 9.84486 18.5918C9.82294 18.5885 9.80098 18.5854 9.77917 18.5816C9.7662 18.5792 9.75337 18.5766 9.74054 18.5742C9.71787 18.5698 9.6953 18.5654 9.67274 18.5605C9.66142 18.558 9.65007 18.5551 9.63871 18.5524C9.61466 18.5468 9.59069 18.5408 9.5668 18.5346C9.55752 18.5321 9.54824 18.5293 9.53907 18.5268C9.5127 18.5194 9.48663 18.5117 9.46052 18.5035C9.45418 18.5016 9.44784 18.4993 9.44151 18.4973C9.41198 18.4877 9.38265 18.4776 9.35352 18.4669C9.35103 18.4661 9.34854 18.465 9.34601 18.4641C9.07325 18.3623 8.82068 18.2129 8.60001 18.0229C8.80224 17.4544 9.33851 17.07 9.95499 17.07H10.4668C11.0827 17.07 11.6186 17.4539 11.8212 18.0214C11.5387 18.264 11.2015 18.4445 10.8303 18.5406ZM10.2107 2.85925C10.6876 2.85925 11.0755 3.24709 11.0755 3.72402C11.0755 4.20079 10.6876 4.58883 10.2107 4.58883C9.73394 4.58883 9.34605 4.20079 9.34605 3.72402C9.34605 3.24713 9.73394 2.85925 10.2107 2.85925ZM10.4508 6.69457C10.424 6.69721 10.3968 6.69909 10.3697 6.70075C10.3565 6.70162 10.3435 6.70283 10.3302 6.70339C10.2944 6.70502 10.2583 6.70592 10.222 6.70619C10.2182 6.70619 10.2146 6.70634 10.2107 6.70634C10.1739 6.70634 10.1372 6.70558 10.1006 6.704C10.0937 6.7037 10.0868 6.70294 10.0797 6.70268C10.0505 6.70127 10.0214 6.69935 9.9923 6.6969C9.98155 6.69589 9.9708 6.69457 9.96004 6.6934C9.9349 6.691 9.9098 6.68823 9.88474 6.6851C9.87308 6.68351 9.86142 6.68159 9.8498 6.67981C9.8258 6.67653 9.80186 6.6728 9.77801 6.66861C9.76654 6.66672 9.75518 6.66435 9.74382 6.66212C9.71968 6.65765 9.6956 6.65279 9.67161 6.64756C9.66142 6.64533 9.65143 6.64265 9.64124 6.64031C9.61591 6.63446 9.59066 6.62822 9.56552 6.6216C9.55741 6.61941 9.5493 6.61688 9.54103 6.61469C9.50819 6.6056 9.47556 6.59576 9.44317 6.58519C9.41265 6.57527 9.38234 6.56476 9.35224 6.55365C9.35062 6.55308 9.34884 6.55252 9.34726 6.55191C9.0739 6.45011 8.82083 6.3005 8.59986 6.11008C8.80208 5.54177 9.33839 5.15713 9.95473 5.15713H10.4667C11.0826 5.15713 11.6183 5.54106 11.8211 6.10872C11.5389 6.35116 11.2018 6.53169 10.8312 6.62764C10.8286 6.62839 10.826 6.62899 10.8234 6.62971C10.7891 6.63839 10.7545 6.64635 10.7196 6.65374L10.6954 6.65861C10.6658 6.6645 10.6362 6.66966 10.6063 6.67453C10.5949 6.67627 10.5834 6.67819 10.5721 6.67981C10.545 6.68381 10.5177 6.68721 10.4904 6.6903C10.4772 6.69162 10.4641 6.69325 10.4508 6.69457H10.4508ZM16.8652 14.772C17.3421 14.772 17.73 15.16 17.73 15.6368C17.73 16.1135 17.3421 16.5016 16.8652 16.5016C16.3884 16.5016 16.0006 16.1135 16.0006 15.6368C16.0006 15.16 16.3884 14.772 16.8652 14.772ZM17.4848 18.5407C17.483 18.5411 17.4814 18.5414 17.4796 18.5419C17.4444 18.5509 17.4089 18.5591 17.3731 18.5666C17.3659 18.5681 17.3585 18.5696 17.3513 18.5709C17.3209 18.5771 17.2903 18.5826 17.2594 18.5874C17.2489 18.589 17.2382 18.5908 17.2277 18.5924C17.1996 18.5966 17.1712 18.6 17.1429 18.6032C17.1306 18.6047 17.1186 18.6061 17.1063 18.6073C17.0778 18.61 17.0492 18.6122 17.0205 18.6138C17.0089 18.6146 16.9974 18.6156 16.9858 18.6161C16.9458 18.6181 16.9058 18.6192 16.8654 18.6192C16.8288 18.6192 16.7924 18.6184 16.7562 18.6169C16.7447 18.6163 16.7332 18.6153 16.7215 18.6147C16.6969 18.6132 16.6723 18.6119 16.6478 18.6097C16.6343 18.6086 16.6209 18.6069 16.6073 18.6054C16.5849 18.6031 16.5627 18.601 16.5404 18.598C16.5267 18.5963 16.5131 18.5939 16.4994 18.5918C16.4775 18.5886 16.4554 18.5855 16.4336 18.5817C16.4207 18.5793 16.4079 18.5766 16.3951 18.5743C16.3724 18.5699 16.3498 18.5654 16.3273 18.5606C16.316 18.5581 16.3048 18.5551 16.2934 18.5525C16.2692 18.5469 16.2451 18.5409 16.2212 18.5345C16.2121 18.5322 16.2029 18.5295 16.1938 18.527C16.1674 18.5195 16.1412 18.5118 16.1151 18.5036C16.1087 18.5017 16.1025 18.4994 16.0963 18.4974C16.0666 18.4878 16.0371 18.4776 16.0079 18.4669C16.0056 18.466 16.0032 18.4651 16.0009 18.4644C15.728 18.3624 15.4753 18.2129 15.2545 18.0228C15.4568 17.4545 15.993 17.07 16.6095 17.07H17.1214C17.7372 17.07 18.2731 17.454 18.4758 18.0215C18.1932 18.2641 17.856 18.4446 17.4848 18.5407Z" fill="white"/>
<path d="M17.1243 13.1121V10.9437C17.1243 10.4627 16.733 10.0714 16.252 10.0714H10.4697V7.2631C10.4855 7.26178 10.5013 7.26091 10.517 7.25928C10.53 7.25793 10.5428 7.25604 10.5558 7.25457C10.5939 7.25042 10.6319 7.24561 10.6698 7.24012C10.6781 7.2388 10.6864 7.23718 10.6948 7.23586C10.7372 7.22912 10.7795 7.22149 10.8217 7.21299C10.8246 7.21239 10.8277 7.21167 10.8308 7.21111C11.3978 7.09392 11.9205 6.81714 12.3429 6.40228C12.3473 6.39798 12.3512 6.39315 12.3553 6.38844C12.9101 5.83677 13.2543 5.07338 13.2543 4.23098C13.2543 2.55282 11.889 1.1875 10.2107 1.1875C8.80488 1.1875 7.58934 2.13984 7.25465 3.50365C7.23671 3.57685 7.24858 3.65417 7.28764 3.71863C7.3267 3.78308 7.38976 3.82938 7.46295 3.84735C7.53616 3.86529 7.6135 3.85341 7.67795 3.81434C7.74241 3.77526 7.7887 3.71218 7.80666 3.63898C8.07857 2.5301 9.06716 1.75577 10.2106 1.75577C11.5755 1.75577 12.686 2.86626 12.686 4.23098C12.686 4.75815 12.5197 5.247 12.2378 5.64888C12.0178 5.23495 11.6591 4.91168 11.2246 4.73574C11.4834 4.47636 11.6438 4.11851 11.6438 3.72398C11.6438 2.93376 11.0009 2.29091 10.2106 2.29091C9.42057 2.29091 8.77756 2.9338 8.77756 3.72398C8.77756 4.11851 8.93791 4.47636 9.19684 4.73574C8.76109 4.9121 8.40159 5.23664 8.18172 5.65213C8.00653 5.40133 7.87931 5.12026 7.80651 4.82312C7.79762 4.78688 7.78168 4.75273 7.7596 4.72265C7.73752 4.69256 7.70972 4.66712 7.6778 4.64778C7.64588 4.62844 7.61047 4.61558 7.57358 4.60993C7.53669 4.60428 7.49904 4.60596 7.4628 4.61486C7.38962 4.63285 7.32658 4.67916 7.28753 4.74361C7.24847 4.80806 7.23661 4.88537 7.25454 4.95857C7.52826 6.07393 8.39141 6.91381 9.46595 7.18292C9.47803 7.18587 9.4904 7.18869 9.50266 7.19149C9.53492 7.19915 9.56718 7.2065 9.59993 7.21314C9.6157 7.21624 9.63162 7.21918 9.6475 7.22227C9.69419 7.23097 9.74107 7.23858 9.78812 7.2451C9.81804 7.24925 9.84811 7.2528 9.87829 7.25619C9.88598 7.25695 9.89364 7.25808 9.90145 7.25898V10.0714H4.16956C3.68853 10.0714 3.29724 10.4626 3.29724 10.9437V13.1112C2.00282 13.2199 0.913865 14.1374 0.600116 15.4167C0.583098 15.4896 0.595498 15.5662 0.634625 15.63C0.673753 15.6938 0.73645 15.7395 0.80911 15.7574C0.881771 15.7752 0.958532 15.7636 1.02273 15.7252C1.08694 15.6868 1.1334 15.6246 1.15204 15.5522C1.41995 14.4595 2.38365 13.6921 3.50577 13.6695C3.53038 13.6764 3.55582 13.6799 3.58138 13.68C3.60571 13.68 3.62914 13.6766 3.6517 13.6709C4.97246 13.7213 6.03154 14.811 6.03154 16.1439C6.03154 16.6711 5.86527 17.1597 5.58332 17.5616C5.36332 17.1477 5.00462 16.8244 4.57013 16.6485C4.82894 16.3891 4.98929 16.0313 4.98929 15.6367C4.98929 14.8465 4.3464 14.2037 3.55617 14.2037C2.76595 14.2037 2.1231 14.8465 2.1231 15.6367C2.1231 16.0313 2.28344 16.3891 2.54237 16.6485C2.10665 16.8249 1.74717 17.1494 1.52725 17.5649C1.35203 17.3142 1.22486 17.0332 1.1522 16.7362C1.11473 16.5838 0.960912 16.4908 0.80849 16.5279C0.772247 16.5368 0.738111 16.5527 0.70803 16.5748C0.67795 16.5969 0.652514 16.6247 0.633175 16.6566C0.613836 16.6885 0.600973 16.724 0.59532 16.7608C0.589667 16.7977 0.591335 16.8354 0.600229 16.8716C0.725742 17.386 0.983698 17.8587 1.34846 18.2425C1.71322 18.6263 2.17208 18.908 2.67944 19.0596L2.68401 19.0607C2.72589 19.0733 2.76803 19.0846 2.81047 19.0952C2.82387 19.0988 2.83745 19.1017 2.85099 19.1048C2.88193 19.1122 2.91287 19.1191 2.94414 19.1254C2.96108 19.129 2.97802 19.1321 2.99512 19.1353C3.02356 19.1406 3.05201 19.1455 3.08076 19.1499C3.09887 19.1529 3.11698 19.1555 3.13513 19.158C3.16372 19.162 3.19247 19.1654 3.22133 19.1686C3.23918 19.1705 3.25688 19.1726 3.27468 19.1742C3.30607 19.177 3.33761 19.1792 3.36915 19.181C3.38451 19.182 3.39968 19.1832 3.41499 19.184C3.51329 19.1887 3.61175 19.1885 3.71003 19.1835C3.72229 19.1829 3.73437 19.1816 3.74663 19.1809C3.78558 19.1787 3.82448 19.1757 3.86332 19.172C3.87392 19.1708 3.88441 19.1694 3.89501 19.168C3.93548 19.1637 3.97586 19.1586 4.01612 19.1527C4.02265 19.1517 4.0291 19.1503 4.03559 19.1493C4.07988 19.1424 4.124 19.1345 4.16794 19.1256C4.16956 19.1253 4.17103 19.1248 4.17251 19.1246C4.74096 19.008 5.26516 18.7308 5.68843 18.315C5.69285 18.3107 5.69655 18.3059 5.70051 18.3014C6.25553 17.7499 6.5998 16.9863 6.5998 16.1439C6.5998 14.57 5.39898 13.2713 3.86555 13.1159V10.9437C3.86555 10.7761 4.00186 10.6396 4.16956 10.6396H9.90149V13.1163C8.62933 13.2444 7.56422 14.154 7.25462 15.4167C7.23669 15.4899 7.24855 15.5672 7.2876 15.6317C7.32665 15.6961 7.3897 15.7424 7.46288 15.7604C7.53606 15.7783 7.61337 15.7664 7.67781 15.7274C7.74225 15.6883 7.78856 15.6253 7.80654 15.5521C8.07845 14.4432 9.06705 13.6685 10.2107 13.6685C11.5755 13.6685 12.686 14.779 12.686 16.1439C12.686 16.6711 12.5198 17.1597 12.2378 17.5616C12.0178 17.1477 11.6591 16.8244 11.2246 16.6485C11.4834 16.3891 11.6438 16.0313 11.6438 15.6367C11.6438 14.8467 11.0009 14.2037 10.2107 14.2037C9.4206 14.2037 8.7776 14.8467 8.7776 15.6367C8.7776 16.0313 8.93794 16.3891 9.19687 16.6485C8.76113 16.8249 8.40163 17.1494 8.18175 17.5649C8.00652 17.3142 7.87933 17.0332 7.80666 16.7362C7.76923 16.5838 7.61538 16.4908 7.46299 16.5279C7.42675 16.5368 7.39261 16.5527 7.36253 16.5748C7.33245 16.5969 7.30701 16.6247 7.28768 16.6566C7.26834 16.6885 7.25547 16.724 7.24982 16.7608C7.24417 16.7977 7.24584 16.8354 7.25473 16.8716C7.38024 17.386 7.6382 17.8587 8.00296 18.2425C8.36772 18.6263 8.82658 18.908 9.33394 19.0596C9.33541 19.06 9.33704 19.0605 9.33851 19.0607C9.38039 19.0733 9.42238 19.0846 9.46482 19.0954C9.4784 19.0988 9.49191 19.1017 9.50549 19.1049C9.53643 19.1122 9.56737 19.1193 9.59864 19.1256C9.61558 19.129 9.63252 19.1322 9.64962 19.1353C9.69611 19.1439 9.74279 19.1516 9.78963 19.1581C9.81822 19.162 9.84697 19.1655 9.87584 19.1686C9.89368 19.1705 9.91138 19.1726 9.92918 19.1742C9.96057 19.1772 9.99211 19.1792 10.0237 19.1812C10.039 19.182 10.0542 19.1833 10.0695 19.1841C10.1164 19.1862 10.1634 19.1875 10.2107 19.1875C10.2621 19.1875 10.3134 19.186 10.3644 19.1835C10.3768 19.1829 10.3889 19.1816 10.4011 19.1809C10.4401 19.1787 10.479 19.1757 10.5178 19.172C10.5284 19.171 10.5389 19.1694 10.5494 19.1682C10.5899 19.1638 10.6303 19.1586 10.6707 19.1527C10.6771 19.1517 10.6836 19.1503 10.6901 19.1493C10.7359 19.1422 10.7816 19.134 10.827 19.1247C11.3955 19.008 11.9197 18.7308 12.3429 18.315C12.3473 18.3107 12.351 18.3059 12.3552 18.3013C12.91 17.7497 13.2543 16.9863 13.2543 16.1439C13.2543 14.5529 12.0271 13.244 10.4698 13.112V10.6397H16.2518C16.4195 10.6397 16.5558 10.7761 16.5558 10.9437V13.1163C15.2838 13.2444 14.2186 14.154 13.9091 15.4167C13.8994 15.4532 13.8971 15.4913 13.9023 15.5287C13.9074 15.5661 13.92 15.6022 13.9393 15.6347C13.9586 15.6672 13.9841 15.6955 14.0145 15.718C14.0448 15.7405 14.0794 15.7567 14.1161 15.7657C14.1528 15.7747 14.1909 15.7763 14.2282 15.7704C14.2655 15.7645 14.3013 15.7512 14.3334 15.7313C14.3655 15.7114 14.3934 15.6853 14.4153 15.6545C14.4372 15.6237 14.4527 15.5889 14.461 15.552C14.7253 14.4745 15.6661 13.7129 16.7682 13.6706C16.7916 13.6767 16.8158 13.6799 16.84 13.68C16.8659 13.68 16.891 13.6762 16.9149 13.6697C18.2567 13.6964 19.3404 14.7955 19.3404 16.1439C19.3404 16.6711 19.1743 17.1597 18.8924 17.5616C18.6723 17.1477 18.3135 16.8244 17.879 16.6485C18.1379 16.3891 18.2981 16.0313 18.2981 15.6367C18.2981 14.8467 17.6552 14.2037 16.8652 14.2037C16.075 14.2037 15.4321 14.8467 15.4321 15.6367C15.4321 16.0313 15.5924 16.3891 15.8513 16.6485C15.4155 16.8249 15.0561 17.1494 14.8363 17.5649C14.661 17.3142 14.5338 17.0332 14.461 16.7362C14.443 16.663 14.3967 16.6 14.3323 16.5609C14.2678 16.5219 14.1905 16.51 14.1173 16.5279C14.0442 16.5459 13.9811 16.5922 13.9421 16.6567C13.903 16.7211 13.8911 16.7984 13.9091 16.8716C14.0346 17.3861 14.2926 17.8587 14.6574 18.2426C15.0222 18.6264 15.4812 18.9081 15.9886 19.0596C15.9896 19.06 15.9908 19.0602 15.992 19.0606C16.0341 19.0731 16.0766 19.0846 16.1194 19.0954C16.1327 19.0988 16.1461 19.1017 16.1595 19.1048C16.1906 19.1122 16.2217 19.1192 16.2531 19.1256C16.2699 19.129 16.2869 19.1322 16.3038 19.1353C16.3504 19.144 16.3971 19.1516 16.444 19.1581C16.4726 19.162 16.5015 19.1655 16.5304 19.1686C16.5482 19.1705 16.5658 19.1726 16.5837 19.1742C16.6149 19.1772 16.6465 19.1792 16.6782 19.1812C16.6933 19.182 16.7085 19.1833 16.7238 19.1841C16.7707 19.1862 16.8177 19.1875 16.8652 19.1875C16.9166 19.1875 16.9678 19.186 17.0189 19.1835C17.0311 19.1829 17.0432 19.1816 17.0555 19.1809C17.0944 19.1787 17.1333 19.1757 17.1722 19.172C17.1828 19.171 17.1932 19.1694 17.2039 19.1682C17.2443 19.1638 17.2847 19.1586 17.325 19.1527C17.3315 19.1517 17.3379 19.1503 17.3444 19.1493C17.3888 19.1424 17.433 19.1345 17.4769 19.1256L17.4814 19.1247C18.0499 19.008 18.574 18.7308 18.9973 18.315C19.0017 18.3107 19.0055 18.3059 19.0095 18.3013C19.5645 17.7497 19.9087 16.9863 19.9087 16.1439C19.9088 14.5529 18.6816 13.244 17.1243 13.112L17.1243 13.1121ZM3.55617 14.7719C4.03306 14.7719 4.42099 15.16 4.42099 15.6367C4.42099 16.1135 4.0331 16.5015 3.55617 16.5015C3.07944 16.5015 2.69151 16.1135 2.69151 15.6367C2.69151 15.16 3.07944 14.7719 3.55617 14.7719ZM4.17575 18.5406C4.17413 18.5411 4.17236 18.5414 4.17058 18.5418C4.13538 18.5509 4.09984 18.559 4.06404 18.5666C4.05683 18.568 4.04959 18.5695 4.04223 18.5708C4.01171 18.577 3.98105 18.5825 3.95029 18.5874C3.9398 18.5891 3.92935 18.5907 3.91874 18.5923C3.8906 18.5965 3.86215 18.6 3.8337 18.6031C3.82163 18.6046 3.80937 18.6061 3.7973 18.6072C3.76885 18.61 3.7401 18.612 3.71139 18.6137C3.69973 18.6145 3.68822 18.6155 3.6766 18.6161C3.63665 18.618 3.59658 18.6192 3.55617 18.6192C3.51965 18.6192 3.48325 18.6183 3.44699 18.6168C3.43548 18.6162 3.42397 18.6152 3.41235 18.6146C3.38787 18.6131 3.36327 18.6118 3.33878 18.6096C3.32509 18.6086 3.31169 18.6068 3.29811 18.6053C3.27585 18.603 3.25348 18.6009 3.23133 18.598C3.21768 18.5962 3.20394 18.5938 3.1904 18.5918C3.16829 18.5885 3.14633 18.5854 3.12452 18.5816C3.11155 18.5792 3.09872 18.5766 3.08589 18.5742C3.06337 18.5698 3.04065 18.5654 3.01824 18.5605C3.00677 18.558 2.99542 18.5551 2.98406 18.5524C2.96001 18.5468 2.93604 18.5408 2.91215 18.5346C2.90287 18.5321 2.89374 18.5293 2.88446 18.5268C2.85805 18.5194 2.83198 18.5117 2.80591 18.5035C2.79957 18.5016 2.79323 18.4993 2.78689 18.4973C2.75737 18.4877 2.72804 18.4776 2.69891 18.4669C2.69638 18.4661 2.69389 18.465 2.69136 18.4641C2.41859 18.3623 2.16603 18.2129 1.94536 18.0229C2.14758 17.4544 2.68386 17.07 3.30034 17.07H3.81216C4.42808 17.07 4.96393 17.4539 5.16657 18.0214C4.88406 18.264 4.54685 18.4445 4.17575 18.5406ZM10.2107 14.7719C10.6876 14.7719 11.0755 15.16 11.0755 15.6367C11.0755 16.1135 10.6876 16.5015 10.2107 16.5015C9.7339 16.5015 9.34601 16.1135 9.34601 15.6367C9.34601 15.16 9.7339 14.7719 10.2107 14.7719ZM10.8303 18.5406C10.8286 18.5411 10.8269 18.5414 10.8251 18.5418C10.7899 18.5508 10.7543 18.559 10.7185 18.5666C10.7113 18.568 10.7041 18.5695 10.6967 18.5708C10.6664 18.577 10.6357 18.5825 10.6049 18.5874C10.5943 18.5889 10.5838 18.5907 10.5732 18.5923C10.5451 18.5965 10.5168 18.5999 10.4883 18.6031C10.4761 18.6046 10.464 18.6061 10.4518 18.6072C10.4232 18.6099 10.3946 18.6121 10.366 18.6137C10.3544 18.6145 10.3429 18.6155 10.3313 18.6161C10.2913 18.618 10.2512 18.6192 10.2108 18.6192C10.1743 18.6192 10.1379 18.6183 10.1016 18.6168C10.0901 18.6162 10.0786 18.6152 10.067 18.6146C10.0425 18.6131 10.0178 18.6118 9.99343 18.6096C9.97974 18.6086 9.96635 18.6068 9.95276 18.6053C9.9305 18.603 9.90813 18.6009 9.88598 18.598C9.87218 18.5962 9.85859 18.5938 9.84486 18.5918C9.82294 18.5885 9.80098 18.5854 9.77917 18.5816C9.7662 18.5792 9.75337 18.5766 9.74054 18.5742C9.71787 18.5698 9.6953 18.5654 9.67274 18.5605C9.66142 18.558 9.65007 18.5551 9.63871 18.5524C9.61466 18.5468 9.59069 18.5408 9.5668 18.5346C9.55752 18.5321 9.54824 18.5293 9.53907 18.5268C9.5127 18.5194 9.48663 18.5117 9.46052 18.5035C9.45418 18.5016 9.44784 18.4993 9.44151 18.4973C9.41198 18.4877 9.38265 18.4776 9.35352 18.4669C9.35103 18.4661 9.34854 18.465 9.34601 18.4641C9.07325 18.3623 8.82068 18.2129 8.60001 18.0229C8.80224 17.4544 9.33851 17.07 9.95499 17.07H10.4668C11.0827 17.07 11.6186 17.4539 11.8212 18.0214C11.5387 18.264 11.2015 18.4445 10.8303 18.5406ZM10.2107 2.85925C10.6876 2.85925 11.0755 3.24709 11.0755 3.72402C11.0755 4.20079 10.6876 4.58883 10.2107 4.58883C9.73394 4.58883 9.34605 4.20079 9.34605 3.72402C9.34605 3.24713 9.73394 2.85925 10.2107 2.85925ZM10.4508 6.69457C10.424 6.69721 10.3968 6.69909 10.3697 6.70075C10.3565 6.70162 10.3435 6.70283 10.3302 6.70339C10.2944 6.70502 10.2583 6.70592 10.222 6.70619C10.2182 6.70619 10.2146 6.70634 10.2107 6.70634C10.1739 6.70634 10.1372 6.70558 10.1006 6.704C10.0937 6.7037 10.0868 6.70294 10.0797 6.70268C10.0505 6.70127 10.0214 6.69935 9.9923 6.6969C9.98155 6.69589 9.9708 6.69457 9.96004 6.6934C9.9349 6.691 9.9098 6.68823 9.88474 6.6851C9.87308 6.68351 9.86142 6.68159 9.8498 6.67981C9.8258 6.67653 9.80186 6.6728 9.77801 6.66861C9.76654 6.66672 9.75518 6.66435 9.74382 6.66212C9.71968 6.65765 9.6956 6.65279 9.67161 6.64756C9.66142 6.64533 9.65143 6.64265 9.64124 6.64031C9.61591 6.63446 9.59066 6.62822 9.56552 6.6216C9.55741 6.61941 9.5493 6.61688 9.54103 6.61469C9.50819 6.6056 9.47556 6.59576 9.44317 6.58519C9.41265 6.57527 9.38234 6.56476 9.35224 6.55365C9.35062 6.55308 9.34884 6.55252 9.34726 6.55191C9.0739 6.45011 8.82083 6.3005 8.59986 6.11008C8.80208 5.54177 9.33839 5.15713 9.95473 5.15713H10.4667C11.0826 5.15713 11.6183 5.54106 11.8211 6.10872C11.5389 6.35116 11.2018 6.53169 10.8312 6.62764C10.8286 6.62839 10.826 6.62899 10.8234 6.62971C10.7891 6.63839 10.7545 6.64635 10.7196 6.65374L10.6954 6.65861C10.6658 6.6645 10.6362 6.66966 10.6063 6.67453C10.5949 6.67627 10.5834 6.67819 10.5721 6.67981C10.545 6.68381 10.5177 6.68721 10.4904 6.6903C10.4772 6.69162 10.4641 6.69325 10.4508 6.69457H10.4508ZM16.8652 14.772C17.3421 14.772 17.73 15.16 17.73 15.6368C17.73 16.1135 17.3421 16.5016 16.8652 16.5016C16.3884 16.5016 16.0006 16.1135 16.0006 15.6368C16.0006 15.16 16.3884 14.772 16.8652 14.772ZM17.4848 18.5407C17.483 18.5411 17.4814 18.5414 17.4796 18.5419C17.4444 18.5509 17.4089 18.5591 17.3731 18.5666C17.3659 18.5681 17.3585 18.5696 17.3513 18.5709C17.3209 18.5771 17.2903 18.5826 17.2594 18.5874C17.2489 18.589 17.2382 18.5908 17.2277 18.5924C17.1996 18.5966 17.1712 18.6 17.1429 18.6032C17.1306 18.6047 17.1186 18.6061 17.1063 18.6073C17.0778 18.61 17.0492 18.6122 17.0205 18.6138C17.0089 18.6146 16.9974 18.6156 16.9858 18.6161C16.9458 18.6181 16.9058 18.6192 16.8654 18.6192C16.8288 18.6192 16.7924 18.6184 16.7562 18.6169C16.7447 18.6163 16.7332 18.6153 16.7215 18.6147C16.6969 18.6132 16.6723 18.6119 16.6478 18.6097C16.6343 18.6086 16.6209 18.6069 16.6073 18.6054C16.5849 18.6031 16.5627 18.601 16.5404 18.598C16.5267 18.5963 16.5131 18.5939 16.4994 18.5918C16.4775 18.5886 16.4554 18.5855 16.4336 18.5817C16.4207 18.5793 16.4079 18.5766 16.3951 18.5743C16.3724 18.5699 16.3498 18.5654 16.3273 18.5606C16.316 18.5581 16.3048 18.5551 16.2934 18.5525C16.2692 18.5469 16.2451 18.5409 16.2212 18.5345C16.2121 18.5322 16.2029 18.5295 16.1938 18.527C16.1674 18.5195 16.1412 18.5118 16.1151 18.5036C16.1087 18.5017 16.1025 18.4994 16.0963 18.4974C16.0666 18.4878 16.0371 18.4776 16.0079 18.4669C16.0056 18.466 16.0032 18.4651 16.0009 18.4644C15.728 18.3624 15.4753 18.2129 15.2545 18.0228C15.4568 17.4545 15.993 17.07 16.6095 17.07H17.1214C17.7372 17.07 18.2731 17.454 18.4758 18.0215C18.1932 18.2641 17.856 18.4446 17.4848 18.5407Z" stroke="white" stroke-width="0.257143" mask="url(#path-1-outside-1_238_16737)"/>
</svg>
