<svg width="232" height="85" viewBox="0 0 232 85" fill="none" xmlns="http://www.w3.org/2000/svg">
<path d="M101.392 74.1438C103.002 74.142 104.544 73.5354 105.681 72.4575C106.818 71.3797 107.455 69.9188 107.454 68.3961C107.455 67.6422 107.299 66.8954 106.995 66.1985C106.691 65.5016 106.244 64.8682 105.681 64.3345C105.119 63.8008 104.45 63.3771 103.714 63.0878C102.978 62.7986 102.189 62.6492 101.392 62.6484C100.595 62.6491 99.8062 62.7983 99.0701 63.0876C98.3341 63.3768 97.6654 63.8004 97.1024 64.3341C96.5393 64.8679 96.0929 65.5013 95.7887 66.1983C95.4844 66.8952 95.3283 67.6421 95.3291 68.3961C95.3276 69.919 95.9656 71.38 97.1027 72.4579C98.2397 73.5358 99.7827 74.1422 101.392 74.1438Z" fill="#E5004E"/>
<path d="M83.1185 56.6696C84.1586 57.1957 85.0961 57.886 85.8905 58.7108V61.9409C85.9288 63.1666 85.6268 64.3803 85.0145 65.4612C84.4798 66.3852 83.6962 67.1591 82.7434 67.7043C81.8366 68.2221 80.7968 68.4943 79.7376 68.491C78.9217 68.5208 78.1091 68.377 77.3597 68.0702C76.6104 67.7634 75.9433 67.3014 75.4078 66.7182C74.313 65.5183 73.7313 63.9747 73.7769 62.3902C73.767 61.295 74.0261 60.2126 74.5337 59.2283C75.0156 58.2826 75.739 57.4654 76.6385 56.8506C77.5874 56.2244 78.7234 55.9024 79.8799 55.9318C81.0082 55.9228 82.1214 56.1768 83.1213 56.6713M73.0423 51.7821C71.322 52.787 69.9297 54.2234 69.0202 55.9318C67.9755 57.9378 67.4639 60.1547 67.5298 62.3902C67.4602 64.6094 67.9635 66.8112 68.9962 68.8049C69.8748 70.4684 71.2269 71.8668 72.9001 72.8427C74.5044 73.7635 76.3476 74.2447 78.2241 74.2326C79.8784 74.2646 81.5011 73.8014 82.8607 72.9091C84.1208 72.0967 85.1591 71.0131 85.8905 69.7472V73.688C85.9085 74.7964 85.5702 75.8838 84.9203 76.8062C84.2528 77.7349 83.328 78.472 82.2472 78.9366C81.0455 79.4582 79.7355 79.7187 78.4135 79.6989C77.2024 79.7194 75.9958 79.5528 74.8414 79.2058C73.8796 78.9044 72.9583 78.4978 72.0962 77.9942C71.2917 77.5163 70.5266 77.0679 69.801 76.6488V82.032C70.9967 82.8248 72.2645 83.5154 73.5894 84.096C75.2356 84.7466 77.0112 85.0525 78.7942 84.9929C81.0584 85.0155 83.2962 84.5314 85.325 83.5802C87.2845 82.6611 88.9383 81.2489 90.1048 79.4987C91.3563 77.5325 91.9804 75.266 91.902 72.9721V50.9053H85.896V53.4622C84.9797 52.4816 83.8492 51.701 82.5826 51.1745C81.3534 50.6261 80.0136 50.3351 78.6547 50.3213C76.6785 50.3022 74.7361 50.8074 73.0479 51.7794" fill="#E5004E"/>
<path d="M43.1797 51.0172V73.6689H49.1902V59.3123C49.8492 58.4183 50.6561 57.6305 51.5797 56.9791C52.4389 56.3451 53.4959 55.9984 54.5855 55.993C55.1705 55.9628 55.7559 56.0466 56.3052 56.2394C56.8546 56.4322 57.3562 56.7298 57.7788 57.1137C58.6246 58.0614 59.041 59.2866 58.9375 60.523L58.9855 73.6654H64.9915V59.7651C64.9915 56.6548 64.1713 54.3219 62.5309 52.7665C61.7357 52.0039 60.7837 51.4035 59.7337 51.0026C58.6837 50.6016 57.558 50.4084 56.4261 50.435C54.9011 50.4107 53.4054 50.8333 52.1443 51.6449C51.0126 52.3508 50.0133 53.2303 49.1875 54.2473V51.0172H43.1797Z" fill="#E5004E"/>
<path d="M1.39844 43.616V73.671H7.97544V65.1915L11.4312 61.5121L21.1803 73.6693H29.7919L15.9273 56.7566L28.3735 43.6143H20.0437L7.97637 57.0713V43.616H1.39844Z" fill="#E5004E"/>
<path d="M124.685 10.7979L120.285 24.2094L115.173 10.7979H110.867L105.708 24.2094L101.308 10.7979H94.7773L103.011 33.4495H107.413L112.996 18.7826L118.58 33.4495H122.934L131.216 10.7979H124.685Z" fill="#E5004E"/>
<path d="M10.8197 3.86896C8.83421 4.61062 7.01842 5.70728 5.4716 7.09901C3.91615 8.50178 2.67629 10.1874 1.82644 12.0547C0.922504 14.0678 0.471278 16.2369 0.501436 18.424C0.471075 20.6116 0.922304 22.7813 1.82644 24.7949C2.67626 26.6623 3.91613 28.3479 5.4716 29.7506C7.01839 31.1424 8.83419 32.2391 10.8197 32.9807C12.867 33.7483 15.0512 34.1365 17.2534 34.1241C19.089 34.1481 20.9149 33.867 22.6477 33.2937C24.1302 32.8118 25.4974 32.0575 26.6708 31.0741V25.0179C25.4788 25.9289 24.1673 26.6902 22.7688 27.2828C21.082 27.9416 19.2669 28.255 17.4429 28.2025C15.6331 28.2232 13.8509 27.7817 12.2842 26.9244C10.7494 26.0856 9.47481 24.8798 8.58822 23.4277C7.66276 21.9082 7.18895 20.1801 7.21701 18.4266C7.18285 16.6654 7.65693 14.9288 8.58822 13.4036C9.48387 11.9581 10.7564 10.7542 12.2842 9.90687C13.8459 9.03568 15.63 8.58581 17.4429 8.60609C18.6699 8.58333 19.8927 8.74985 21.0631 9.09912C22.0389 9.4063 22.9702 9.82803 23.8351 10.3544C24.6537 10.8644 25.4422 11.3889 26.2005 11.928V5.64788C25.0844 4.72662 23.8008 4.0048 22.4121 3.51753C20.7573 2.96121 19.0092 2.69461 17.2534 2.73078C15.0512 2.71842 12.867 3.10658 10.8197 3.87419" fill="#E5004E"/>
<path d="M45.2012 16.538C46.2387 17.0773 47.1752 17.7747 47.9732 18.6019V21.832C48.0108 23.0576 47.7088 24.2712 47.0973 25.3523C46.5574 26.2794 45.7747 27.0597 44.8242 27.6182C43.922 28.148 42.8804 28.4273 41.8185 28.4241C41.0009 28.4534 40.187 28.3072 39.4376 27.9966C38.6882 27.6859 38.0229 27.2188 37.4914 26.6303C36.3962 25.4215 35.8138 23.8712 35.8569 22.2796C35.8496 21.1774 36.1084 20.0881 36.6136 19.095C37.0909 18.1399 37.8156 17.3145 38.7203 16.6954C39.6686 16.0679 40.805 15.7455 41.9617 15.7757C43.0923 15.7668 44.2068 16.029 45.2012 16.538ZM35.1242 11.6715C33.4034 12.6759 32.011 14.1124 31.102 15.8212C30.0567 17.8271 29.5444 20.044 29.6097 22.2796C29.5409 24.4987 30.0442 26.7003 31.0761 28.6943C31.9548 30.3577 33.3068 31.7561 34.98 32.7321C36.5844 33.6529 38.4276 34.1341 40.3041 34.122C41.959 34.154 43.5823 33.6908 44.9425 32.7985C46.2023 31.986 47.2403 30.9024 47.9714 29.6366V33.4489H53.982V10.7964H47.9714V13.3534C47.0551 12.3728 45.9245 11.5922 44.6579 11.0657C43.4293 10.5175 42.0902 10.2265 40.7319 10.2125C38.755 10.193 36.812 10.6981 35.1232 11.6706" fill="#E5004E"/>
<path d="M73.1829 10.7501C72.4453 10.4731 71.6572 10.3358 70.8637 10.3463C69.4627 10.34 68.1077 10.8189 67.0541 11.6925C65.8854 12.6454 64.9009 13.7834 64.1444 15.0555V10.7956H58.1338V33.4481H64.1444V20.7953C64.7689 19.6277 65.5833 18.5602 66.5579 17.6316C67.0126 17.2091 67.5531 16.8781 68.1466 16.6584C68.7402 16.4388 69.3747 16.3351 70.0118 16.3536C71.1253 16.3559 72.2187 16.6345 73.1829 17.1613V10.7501Z" fill="#E5004E"/>
<path d="M221.561 4.20401C220.955 6.23533 219.918 8.12834 218.512 9.76724C217.407 11.0555 215.963 12.0454 214.325 12.6372V15.5525H218.631V26.8128C218.573 27.7879 218.72 28.7642 219.065 29.6847C219.411 30.6051 219.947 31.4511 220.642 32.1732C221.322 32.8239 222.139 33.3335 223.039 33.6694C223.939 34.0053 224.904 34.1602 225.871 34.1244C227.029 34.1596 228.183 33.9605 229.254 33.5404C230.087 33.1921 230.848 32.7054 231.499 32.1033V27.5751C230.963 27.9025 230.381 28.1589 229.771 28.3373C229.056 28.5289 228.315 28.6196 227.572 28.6066C227.158 28.635 226.742 28.5706 226.36 28.4187C225.977 28.2668 225.637 28.0317 225.369 27.7324C224.842 27.0352 224.583 26.1885 224.634 25.3328V15.5517H231.259V10.7979H224.634V4.20312L221.561 4.20401Z" fill="#E5004E"/>
<path d="M199.769 11.4267C198.637 12.1322 197.638 13.0118 196.812 14.0291V1.1543H190.802V33.4507H196.812V19.0967C197.471 18.2024 198.278 17.4145 199.202 16.7635C200.061 16.1299 201.118 15.7831 202.208 15.7775C202.793 15.7465 203.378 15.8301 203.927 16.0229C204.477 16.2158 204.978 16.5137 205.4 16.8982C206.247 17.8453 206.664 19.0707 206.56 20.3075L206.609 33.4498H212.619V19.5461C212.619 16.4357 211.799 14.1029 210.159 12.5474C209.363 11.7847 208.411 11.1841 207.361 10.7828C206.311 10.3816 205.186 10.188 204.054 10.2142C202.528 10.1904 201.033 10.6137 199.772 11.4258" fill="#E5004E"/>
<path d="M178.562 16.5607C179.602 17.0869 180.539 17.7772 181.334 18.6019V21.832C181.372 23.0577 181.07 24.2715 180.458 25.3523C179.922 26.2768 179.137 27.0507 178.183 27.5954C177.276 28.1133 176.236 28.3854 175.177 28.3822C174.361 28.4119 173.549 28.268 172.799 27.9612C172.05 27.6544 171.383 27.1925 170.847 26.6094C169.752 25.4094 169.171 23.8659 169.216 22.2813C169.206 21.1861 169.466 20.1037 169.973 19.1194C170.455 18.1734 171.178 17.356 172.078 16.7408C173.027 16.115 174.163 15.7933 175.319 15.8229C176.448 15.8137 177.561 16.0677 178.561 16.5625M168.482 11.6732C166.761 12.678 165.369 14.1145 164.46 15.8229C163.415 17.829 162.903 20.0459 162.969 22.2813C162.9 24.5005 163.403 26.7023 164.436 28.696C165.314 30.3595 166.666 31.7579 168.339 32.7338C169.944 33.6546 171.787 34.1358 173.664 34.1237C175.318 34.1557 176.941 33.6925 178.3 32.8002C179.56 31.9877 180.598 30.9041 181.329 29.6384V33.5853C181.347 34.6936 181.009 35.7811 180.359 36.7035C179.691 37.6322 178.767 38.3692 177.686 38.8338C176.484 39.3555 175.174 39.6159 173.852 39.5961C172.641 39.6166 171.434 39.4501 170.28 39.1031C169.318 38.8017 168.397 38.3951 167.535 37.8914C166.73 37.4136 165.965 36.9651 165.24 36.5461V41.9293C166.435 42.7219 167.703 43.4126 169.028 43.9932C170.674 44.6438 172.45 44.9497 174.233 44.8901C176.497 44.9127 178.735 44.4287 180.764 43.4774C182.723 42.5583 184.377 41.1461 185.543 39.3959C186.795 37.4299 187.42 35.1634 187.342 32.8693V10.7964H181.332V13.3534C180.415 12.3728 179.285 11.5922 178.018 11.0657C176.79 10.5175 175.451 10.2265 174.092 10.2124C172.115 10.1931 170.172 10.6983 168.484 11.6706" fill="#E5004E"/>
<path d="M148.492 10.7501C147.754 10.4732 146.966 10.336 146.172 10.3462C144.771 10.3398 143.416 10.8186 142.363 11.6925C141.193 12.6446 140.209 13.7827 139.453 15.0554V10.7956H133.442V33.448H139.453V20.7952C140.077 19.6277 140.892 18.5602 141.866 17.6316C142.321 17.2092 142.861 16.8781 143.454 16.6585C144.048 16.4388 144.682 16.3351 145.318 16.3536C146.433 16.3559 147.527 16.6344 148.492 17.1613V10.7501Z" fill="#E5004E"/>
<path d="M82.9447 4.20401C82.3396 6.2356 81.302 8.12874 79.8956 9.76724C78.7903 11.0551 77.346 12.045 75.708 12.6372V15.5525H80.0138V26.8128C79.9553 27.7879 80.103 28.7642 80.4482 29.6847C80.7935 30.6051 81.3293 31.4511 82.0244 32.1732C82.7054 32.8237 83.5219 33.333 84.422 33.6689C85.3222 34.0048 86.2864 34.1599 87.2533 34.1244C88.4123 34.1599 89.5659 33.9608 90.637 33.5404C91.4718 33.1937 92.2336 32.7075 92.886 32.105V27.5751C92.3494 27.903 91.7677 28.1595 91.1572 28.3373C90.4422 28.5291 89.7011 28.6198 88.9581 28.6066C88.5444 28.635 88.1295 28.5706 87.747 28.4187C87.3646 28.2668 87.0254 28.0317 86.7571 27.7324C86.2299 27.0354 85.9706 26.1885 86.0226 25.3328V15.5517H92.6476V10.7979H86.0226V4.20312L82.9447 4.20401Z" fill="#E5004E"/>
<path d="M150.764 10.7979V15.6416H154.597V33.4495H160.603V10.7979H150.764Z" fill="#E5004E"/>
<path d="M156.665 7.46893C157.184 7.46858 157.696 7.3717 158.175 7.18377C158.653 6.99584 159.088 6.72056 159.454 6.37367C159.82 6.02679 160.11 5.6151 160.308 5.16211C160.505 4.70911 160.607 4.2237 160.606 3.7336C160.607 3.24364 160.505 2.75841 160.307 2.30562C160.109 1.85282 159.819 1.44131 159.453 1.09461C159.087 0.747916 158.653 0.472815 158.174 0.284998C157.696 0.0971805 157.183 0.000344274 156.665 0C156.148 0.000344274 155.635 0.0971805 155.157 0.284998C154.678 0.472815 154.244 0.747916 153.878 1.09461C153.512 1.44131 153.222 1.85282 153.024 2.30562C152.826 2.75841 152.724 3.24364 152.725 3.7336C152.724 4.2237 152.825 4.70911 153.023 5.16211C153.221 5.6151 153.511 6.02679 153.877 6.37367C154.243 6.72056 154.678 6.99584 155.156 7.18377C155.635 7.3717 156.147 7.46858 156.665 7.46893Z" fill="#E5004E"/>
<path d="M29.7969 51.0186V55.8623H33.6305V73.6702H39.6365V51.0186H29.7969Z" fill="#E5004E"/>
<path d="M35.6986 47.6897C36.2166 47.6893 36.7295 47.5923 37.2078 47.4043C37.6862 47.2164 38.1208 46.9411 38.4867 46.5942C38.8527 46.2474 39.1428 45.8357 39.3406 45.3828C39.5384 44.9298 39.6399 44.4445 39.6394 43.9544C39.64 43.4642 39.5386 42.9787 39.3409 42.5256C39.1432 42.0725 38.8531 41.6607 38.4871 41.3137C38.1212 40.9666 37.6866 40.6912 37.2081 40.5031C36.7297 40.315 36.2167 40.2179 35.6986 40.2173C35.1804 40.2177 34.6674 40.3148 34.1888 40.5028C33.7103 40.6909 33.2755 40.9663 32.9095 41.3134C32.5435 41.6604 32.2533 42.0722 32.0555 42.5254C31.8577 42.9785 31.7562 43.4641 31.7568 43.9544C31.7564 44.4445 31.8579 44.93 32.0558 45.383C32.2536 45.836 32.5438 46.2477 32.9099 46.5945C33.2759 46.9414 33.7106 47.2167 34.1891 47.4046C34.6676 47.5925 35.1805 47.6894 35.6986 47.6897Z" fill="#E5004E"/>
</svg>
