<svg width="118" height="46" viewBox="0 0 118 46" fill="none" xmlns="http://www.w3.org/2000/svg">
<path d="M51.5387 40.0857C52.3608 40.0847 53.1488 39.7572 53.7295 39.1752C54.3102 38.5932 54.6359 37.8044 54.635 36.9823C54.6355 36.5752 54.5558 36.172 54.4005 35.7957C54.2451 35.4195 54.0172 35.0775 53.7296 34.7893C53.4421 34.5011 53.1006 34.2724 52.7247 34.1162C52.3488 33.96 51.9458 33.8793 51.5387 33.8789C51.1315 33.8793 50.7284 33.9598 50.3524 34.116C49.9764 34.2722 49.6349 34.5009 49.3472 34.7891C49.0596 35.0773 48.8316 35.4193 48.6762 35.7956C48.5207 36.1719 48.441 36.5752 48.4414 36.9823C48.4407 37.8046 48.7665 38.5934 49.3474 39.1754C49.9282 39.7574 50.7164 40.0848 51.5387 40.0857Z" fill="white"/>
<path d="M42.2037 30.6506C42.735 30.9347 43.2139 31.3074 43.6197 31.7527V33.4968C43.6392 34.1586 43.485 34.8139 43.1722 35.3975C42.899 35.8965 42.4988 36.3143 42.012 36.6087C41.5488 36.8883 41.0177 37.0352 40.4766 37.0335C40.0598 37.0495 39.6447 36.9719 39.2619 36.8062C38.8791 36.6406 38.5384 36.3911 38.2648 36.0763C37.7056 35.4284 37.4084 34.5949 37.4317 33.7394C37.4267 33.148 37.559 32.5636 37.8183 32.0322C38.0645 31.5215 38.434 31.0803 38.8935 30.7483C39.3782 30.4102 39.9585 30.2364 40.5493 30.2522C41.1256 30.2474 41.6943 30.3845 42.2051 30.6515M37.0565 28.0117C36.1777 28.5543 35.4665 29.3298 35.0019 30.2522C34.4682 31.3354 34.2069 32.5324 34.2406 33.7394C34.205 34.9376 34.4621 36.1265 34.9896 37.2029C35.4385 38.1011 36.1291 38.8561 36.9838 39.3831C37.8034 39.8803 38.7449 40.1401 39.7035 40.1336C40.5485 40.1508 41.3775 39.9007 42.072 39.419C42.7156 38.9803 43.2461 38.3952 43.6197 37.7117V39.8395C43.6289 40.438 43.456 41.0251 43.1241 41.5231C42.7831 42.0246 42.3107 42.4225 41.7586 42.6734C41.1447 42.955 40.4756 43.0957 39.8002 43.085C39.1816 43.0961 38.5652 43.0061 37.9755 42.8188C37.4842 42.656 37.0135 42.4365 36.5732 42.1646C36.1622 41.9065 35.7714 41.6644 35.4007 41.4382V44.3447C36.0115 44.7728 36.6591 45.1457 37.3359 45.4591C38.1769 45.8104 39.0839 45.9756 39.9947 45.9434C41.1513 45.9556 42.2944 45.6943 43.3308 45.1807C44.3317 44.6844 45.1766 43.9219 45.7725 42.9769C46.4118 41.9153 46.7306 40.6915 46.6905 39.4529V27.5382H43.6225V28.9188C43.1544 28.3894 42.5769 27.9679 41.9299 27.6836C41.302 27.3875 40.6176 27.2304 39.9234 27.2229C38.9139 27.2126 37.9217 27.4854 37.0593 28.0102" fill="white"/>
<path d="M21.8018 27.5987V39.8292H24.8721V32.0775C25.2087 31.5948 25.6209 31.1695 26.0927 30.8178C26.5316 30.4755 27.0715 30.2882 27.6281 30.2854C27.927 30.269 28.226 30.3143 28.5066 30.4184C28.7872 30.5225 29.0435 30.6832 29.2594 30.8905C29.6914 31.4021 29.9041 32.0637 29.8512 32.7313L29.8758 39.8273H32.9438V32.322C32.9438 30.6427 32.5248 29.3831 31.6869 28.5432C31.2806 28.1315 30.7943 27.8073 30.258 27.5908C29.7216 27.3743 29.1466 27.27 28.5683 27.2844C27.7893 27.2713 27.0253 27.4994 26.3811 27.9376C25.803 28.3188 25.2925 28.7937 24.8707 29.3428V27.5987H21.8018Z" fill="white"/>
<path d="M0.458984 23.6025V39.8303H3.81869V35.2519L5.58396 33.2653L10.564 39.8294H14.9631L7.88071 30.6976L14.2386 23.6016H9.98348L3.81916 30.8675V23.6025H0.458984Z" fill="white"/>
<path d="M63.4369 5.88281L61.1892 13.1242L58.5776 5.88281H56.3781L53.7429 13.1242L51.4953 5.88281H48.1592L52.3652 18.1133H54.6138L57.4656 10.1941L60.3184 18.1133H62.5424L66.773 5.88281H63.4369Z" fill="white"/>
<path d="M5.27155 2.14169C4.25733 2.54214 3.32977 3.13427 2.53962 3.88572C1.74506 4.64312 1.1117 5.55325 0.677577 6.56149C0.215826 7.64845 -0.0146719 8.81961 0.00073379 10.0005C-0.0147756 11.1817 0.215724 12.3532 0.677577 13.4404C1.11169 14.4487 1.74505 15.3588 2.53962 16.1162C3.32976 16.8677 4.25732 17.4598 5.27155 17.8602C6.31739 18.2747 7.43313 18.4843 8.55808 18.4776C9.49576 18.4905 10.4284 18.3388 11.3136 18.0292C12.0709 17.769 12.7693 17.3617 13.3687 16.8308V13.5608C12.7598 14.0527 12.0898 14.4637 11.3755 14.7837C10.5138 15.1394 9.5866 15.3086 8.65485 15.2803C7.73038 15.2915 6.82 15.0531 6.01967 14.5902C5.23567 14.1373 4.58456 13.4862 4.13167 12.7022C3.65892 11.8818 3.41689 10.9487 3.43122 10.0019C3.41377 9.05099 3.65594 8.11332 4.13167 7.28978C4.58919 6.50935 5.23923 5.8593 6.01967 5.40178C6.81743 4.9314 7.7288 4.68849 8.65485 4.69944C9.28165 4.68715 9.90626 4.77707 10.5041 4.96565C11.0026 5.1315 11.4783 5.35921 11.9201 5.64344C12.3383 5.91878 12.7411 6.20199 13.1285 6.49305V3.10219C12.5584 2.60477 11.9027 2.21503 11.1933 1.95194C10.3479 1.65156 9.45498 1.50761 8.55808 1.52714C7.43313 1.52046 6.31739 1.73005 5.27155 2.14451" fill="white"/>
<path d="M22.8349 8.98209C23.3649 9.27331 23.8433 9.64983 24.2509 10.0965V11.8405C24.2701 12.5023 24.1158 13.1576 23.8035 13.7413C23.5277 14.2419 23.1278 14.6632 22.6423 14.9647C22.1814 15.2508 21.6494 15.4016 21.1069 15.3999C20.6893 15.4157 20.2735 15.3367 19.8907 15.169C19.5079 15.0013 19.168 14.7491 18.8965 14.4313C18.337 13.7786 18.0395 12.9416 18.0616 12.0822C18.0578 11.4871 18.1901 10.899 18.4481 10.3627C18.6919 9.84703 19.0621 9.40135 19.5243 9.06706C20.0087 8.72829 20.5892 8.55421 21.1801 8.57051C21.7576 8.56569 22.3269 8.70728 22.8349 8.98209ZM17.6873 6.35447C16.8082 6.8968 16.097 7.67245 15.6327 8.59506C15.0987 9.67812 14.837 10.8751 14.8704 12.0822C14.8352 13.2804 15.0923 14.4691 15.6194 15.5457C16.0683 16.4439 16.7589 17.1989 17.6136 17.7259C18.4332 18.2231 19.3747 18.4829 20.3333 18.4764C21.1787 18.4937 22.0079 18.2436 22.7027 17.7618C23.3463 17.3231 23.8765 16.738 24.25 16.0545V18.1129H27.3203V5.882H24.25V7.2626C23.7819 6.73313 23.2044 6.31167 22.5574 6.02738C21.9297 5.73142 21.2457 5.57428 20.5518 5.5667C19.542 5.55617 18.5494 5.82892 17.6868 6.354" fill="white"/>
<path d="M37.1279 5.85704C36.7511 5.70744 36.3486 5.63335 35.9432 5.63897C35.2275 5.6356 34.5353 5.89414 33.9971 6.36585C33.4002 6.88037 32.8972 7.49479 32.5108 8.18164V5.88158H29.4404V18.1125H32.5108V11.2808C32.8298 10.6504 33.2458 10.074 33.7437 9.57262C33.976 9.34449 34.252 9.16575 34.5553 9.04716C34.8585 8.92856 35.1826 8.87257 35.508 8.88256C36.0768 8.88383 36.6353 9.03421 37.1279 9.31869V5.85704Z" fill="white"/>
<path d="M112.924 2.32274C112.614 3.41953 112.084 4.44164 111.366 5.32654C110.802 6.0221 110.064 6.5566 109.228 6.87613V8.45024H111.427V14.5301C111.397 15.0566 111.473 15.5837 111.649 16.0807C111.825 16.5777 112.099 17.0345 112.454 17.4244C112.802 17.7757 113.219 18.0508 113.679 18.2322C114.139 18.4136 114.631 18.4973 115.125 18.4779C115.717 18.4969 116.306 18.3894 116.854 18.1626C117.279 17.9745 117.668 17.7117 118.001 17.3866V14.9417C117.726 15.1184 117.429 15.2569 117.117 15.3532C116.752 15.4567 116.374 15.5057 115.994 15.4986C115.783 15.5139 115.571 15.4792 115.375 15.3972C115.18 15.3152 115.006 15.1882 114.869 15.0266C114.6 14.6502 114.467 14.193 114.494 13.731V8.44977H117.878V5.88304H114.494V2.32227L112.924 2.32274Z" fill="white"/>
<path d="M101.792 6.22226C101.213 6.60314 100.703 7.07807 100.281 7.6274V0.675781H97.2109V18.1138H100.281V10.3636C100.618 9.88069 101.03 9.45529 101.502 9.10381C101.941 8.76165 102.481 8.57444 103.037 8.5714C103.336 8.55468 103.635 8.5998 103.916 8.70392C104.196 8.80803 104.452 8.96892 104.668 9.17651C105.101 9.68787 105.314 10.3495 105.261 11.0173L105.285 18.1133H108.356V10.6062C108.356 8.92681 107.937 7.6672 107.099 6.82735C106.693 6.41551 106.206 6.09126 105.67 5.87459C105.134 5.65793 104.559 5.55344 103.98 5.56758C103.201 5.55474 102.437 5.78326 101.793 6.22178" fill="white"/>
<path d="M90.9585 8.99436C91.4898 9.27846 91.9686 9.6512 92.3745 10.0965V11.8405C92.394 12.5023 92.2398 13.1577 91.927 13.7413C91.6533 14.2404 91.2524 14.6583 90.765 14.9524C90.3017 15.232 89.7706 15.379 89.2296 15.3772C88.8128 15.3933 88.3977 15.3156 88.0149 15.1499C87.6321 14.9843 87.2913 14.7348 87.0178 14.42C86.4585 13.7721 86.1614 12.9387 86.1847 12.0831C86.1796 11.4918 86.312 10.9074 86.5712 10.3759C86.8174 9.86513 87.1869 9.42375 87.6465 9.0916C88.1312 8.75371 88.7115 8.58001 89.3022 8.59599C89.8786 8.59101 90.4473 8.72816 90.958 8.99531M85.8094 6.3554C84.9306 6.89796 84.2194 7.67355 83.7548 8.59599C83.2212 9.67914 82.9598 10.8761 82.9935 12.0831C82.9579 13.2814 83.215 14.4702 83.7426 15.5467C84.1914 16.4448 84.882 17.1999 85.7367 17.7268C86.5563 18.224 87.4979 18.4838 88.4564 18.4773C89.3015 18.4945 90.1304 18.2444 90.8249 17.7627C91.4684 17.324 91.9987 16.7389 92.3721 16.0555V18.1866C92.3813 18.785 92.2085 19.3722 91.8765 19.8702C91.5355 20.3717 91.0631 20.7696 90.511 21.0204C89.8972 21.3021 89.228 21.4428 88.5527 21.432C87.934 21.4431 87.3177 21.3532 86.7279 21.1658C86.2366 21.0031 85.766 20.7836 85.3256 20.5116C84.9147 20.2536 84.5239 20.0115 84.1532 19.7852V22.6918C84.764 23.1198 85.4116 23.4927 86.0884 23.8062C86.9294 24.1575 87.8364 24.3227 88.7472 24.2905C89.9038 24.3027 91.0469 24.0413 92.0833 23.5277C93.0842 23.0315 93.929 22.269 94.5249 21.3239C95.1645 20.2624 95.4836 19.0387 95.4439 17.8V5.88199H92.3735V7.2626C91.9055 6.73312 91.328 6.31166 90.681 6.02737C90.0533 5.7314 89.3693 5.57426 88.6754 5.56669C87.6656 5.55627 86.6731 5.82901 85.8104 6.35399" fill="white"/>
<path d="M75.5976 5.85703C75.2208 5.70753 74.8183 5.63344 74.4129 5.63896C73.6972 5.63546 73.005 5.89402 72.4668 6.36584C71.8695 6.87996 71.3665 7.49446 70.9805 8.18163V5.88157H67.9102V18.1125H70.9805V11.2808C71.2995 10.6504 71.7156 10.074 72.2134 9.57261C72.4455 9.34451 72.7214 9.16577 73.0245 9.04717C73.3275 8.92858 73.6515 8.87258 73.9768 8.88255C74.5459 8.88381 75.1047 9.03418 75.5976 9.31868V5.85703Z" fill="white"/>
<path d="M42.1147 2.32274C41.8056 3.41968 41.2755 4.44186 40.5571 5.32654C39.9925 6.02192 39.2547 6.55638 38.418 6.87613V8.45024H40.6175V14.5301C40.5876 15.0566 40.663 15.5837 40.8394 16.0807C41.0158 16.5777 41.2895 17.0345 41.6446 17.4244C41.9924 17.7756 42.4095 18.0506 42.8693 18.232C43.3291 18.4133 43.8217 18.4971 44.3156 18.4779C44.9076 18.4971 45.4969 18.3896 46.0441 18.1626C46.4705 17.9754 46.8597 17.7128 47.1929 17.3876V14.9417C46.9188 15.1187 46.6217 15.2572 46.3098 15.3532C45.9446 15.4568 45.566 15.5058 45.1864 15.4986C44.9751 15.5139 44.7632 15.4792 44.5678 15.3972C44.3725 15.3151 44.1992 15.1882 44.0621 15.0266C43.7928 14.6503 43.6604 14.193 43.6869 13.731V8.44977H47.0711V5.88304H43.6869V2.32227L42.1147 2.32274Z" fill="white"/>
<path d="M76.7588 5.88269V8.49804H78.7171V18.1131H81.7851V5.88269H76.7588Z" fill="white"/>
<path d="M79.7729 4.08549C80.0375 4.08531 80.2995 4.03299 80.5439 3.93152C80.7883 3.83005 81.0103 3.68142 81.1972 3.49412C81.3842 3.30683 81.5324 3.08454 81.6334 2.83995C81.7344 2.59536 81.7862 2.33327 81.7859 2.06864C81.7861 1.8041 81.7342 1.54211 81.6331 1.29763C81.5321 1.05314 81.3838 0.830952 81.1969 0.643757C81.01 0.456562 80.788 0.308025 80.5437 0.206615C80.2993 0.105206 80.0374 0.0529203 79.7729 0.0527344C79.5083 0.0529203 79.2464 0.105206 79.0021 0.206615C78.7577 0.308025 78.5357 0.456562 78.3488 0.643757C78.1619 0.830952 78.0136 1.05314 77.9126 1.29763C77.8115 1.54211 77.7596 1.8041 77.7598 2.06864C77.7595 2.33327 77.8113 2.59536 77.9123 2.83995C78.0133 3.08454 78.1615 3.30683 78.3485 3.49412C78.5354 3.68142 78.7574 3.83005 79.0018 3.93152C79.2462 4.03299 79.5082 4.08531 79.7729 4.08549Z" fill="white"/>
<path d="M14.9658 27.5996V30.215H16.9242V39.8301H19.9922V27.5996H14.9658Z" fill="white"/>
<path d="M17.9804 25.8022C18.245 25.802 18.5069 25.7496 18.7513 25.6481C18.9957 25.5466 19.2177 25.398 19.4046 25.2107C19.5915 25.0234 19.7397 24.8012 19.8408 24.5566C19.9418 24.3121 19.9937 24.05 19.9934 23.7854C19.9937 23.5207 19.9419 23.2586 19.8409 23.0139C19.7399 22.7693 19.5917 22.5469 19.4048 22.3596C19.2179 22.1722 18.9959 22.0235 18.7515 21.9219C18.507 21.8203 18.245 21.7679 17.9804 21.7676C17.7156 21.7678 17.4536 21.8202 17.2091 21.9218C16.9647 22.0233 16.7426 22.172 16.5556 22.3594C16.3686 22.5468 16.2204 22.7691 16.1194 23.0138C16.0183 23.2585 15.9665 23.5207 15.9668 23.7854C15.9666 24.05 16.0184 24.3121 16.1195 24.5567C16.2206 24.8013 16.3688 25.0236 16.5558 25.2109C16.7428 25.3982 16.9648 25.5468 17.2093 25.6483C17.4537 25.7497 17.7157 25.8021 17.9804 25.8022Z" fill="white"/>
</svg>
