<svg width="232" height="85" viewBox="0 0 232 85" fill="none" xmlns="http://www.w3.org/2000/svg">
<path d="M101.393 74.1438C103.003 74.142 104.545 73.5354 105.682 72.4575C106.819 71.3797 107.456 69.9188 107.455 68.3961C107.456 67.6422 107.3 66.8954 106.996 66.1985C106.691 65.5016 106.245 64.8682 105.682 64.3345C105.12 63.8008 104.451 63.3771 103.715 63.0878C102.979 62.7986 102.19 62.6492 101.393 62.6484C100.596 62.6491 99.8072 62.7983 99.0711 63.0876C98.335 63.3768 97.6664 63.8004 97.1033 64.3341C96.5403 64.8679 96.0939 65.5013 95.7897 66.1983C95.4854 66.8952 95.3292 67.6421 95.3301 68.3961C95.3286 69.919 95.9666 71.38 97.1036 72.4579C98.2407 73.5358 99.7837 74.1422 101.393 74.1438Z" fill="#D64575"/>
<path d="M83.1185 56.6696C84.1586 57.1957 85.0961 57.886 85.8905 58.7108V61.9409C85.9288 63.1666 85.6268 64.3803 85.0145 65.4612C84.4798 66.3852 83.6962 67.1591 82.7434 67.7043C81.8366 68.2221 80.7968 68.4943 79.7376 68.491C78.9217 68.5208 78.1091 68.377 77.3597 68.0702C76.6104 67.7634 75.9433 67.3014 75.4078 66.7182C74.313 65.5183 73.7313 63.9747 73.7769 62.3902C73.767 61.295 74.0261 60.2126 74.5337 59.2283C75.0156 58.2826 75.739 57.4654 76.6385 56.8506C77.5874 56.2244 78.7234 55.9024 79.8799 55.9318C81.0082 55.9228 82.1214 56.1768 83.1213 56.6713M73.0423 51.7821C71.322 52.787 69.9297 54.2234 69.0202 55.9318C67.9755 57.9378 67.4639 60.1547 67.5298 62.3902C67.4602 64.6094 67.9635 66.8112 68.9962 68.8049C69.8748 70.4684 71.2269 71.8668 72.9001 72.8427C74.5044 73.7635 76.3476 74.2447 78.2241 74.2326C79.8784 74.2646 81.5011 73.8014 82.8607 72.9091C84.1208 72.0967 85.1591 71.0131 85.8905 69.7472V73.688C85.9085 74.7964 85.5702 75.8838 84.9203 76.8062C84.2528 77.7349 83.328 78.472 82.2472 78.9366C81.0455 79.4582 79.7355 79.7187 78.4135 79.6989C77.2024 79.7194 75.9958 79.5528 74.8414 79.2058C73.8796 78.9044 72.9583 78.4978 72.0962 77.9942C71.2917 77.5163 70.5266 77.0679 69.801 76.6488V82.032C70.9967 82.8248 72.2645 83.5154 73.5894 84.096C75.2356 84.7466 77.0112 85.0525 78.7942 84.9929C81.0584 85.0155 83.2962 84.5314 85.325 83.5802C87.2845 82.6611 88.9383 81.2489 90.1048 79.4987C91.3563 77.5325 91.9804 75.266 91.902 72.9721V50.9053H85.896V53.4622C84.9797 52.4816 83.8492 51.701 82.5826 51.1745C81.3534 50.6261 80.0136 50.3351 78.6547 50.3213C76.6785 50.3022 74.7361 50.8074 73.0479 51.7794" fill="#D64575"/>
<path d="M43.1807 51.0172V73.6689H49.1912V59.3123C49.8502 58.4183 50.657 57.6305 51.5807 56.9791C52.4399 56.3451 53.4969 55.9984 54.5864 55.993C55.1715 55.9628 55.7569 56.0466 56.3062 56.2394C56.8556 56.4322 57.3571 56.7298 57.7798 57.1137C58.6256 58.0614 59.042 59.2866 58.9385 60.523L58.9865 73.6654H64.9925V59.7651C64.9925 56.6548 64.1723 54.3219 62.5319 52.7665C61.7367 52.0039 60.7847 51.4035 59.7347 51.0026C58.6847 50.6016 57.559 50.4084 56.427 50.435C54.902 50.4107 53.4064 50.8333 52.1453 51.6449C51.0136 52.3508 50.0143 53.2303 49.1885 54.2473V51.0172H43.1807Z" fill="#D64575"/>
<path d="M1.39844 43.616V73.671H7.97544V65.1915L11.4312 61.5121L21.1803 73.6693H29.7919L15.9273 56.7566L28.3735 43.6143H20.0437L7.97637 57.0713V43.616H1.39844Z" fill="#D64575"/>
<path d="M124.685 10.7979L120.285 24.2094L115.173 10.7979H110.867L105.708 24.2094L101.308 10.7979H94.7773L103.011 33.4495H107.413L112.996 18.7826L118.58 33.4495H122.934L131.216 10.7979H124.685Z" fill="#D64575"/>
<path d="M10.8197 3.86896C8.83421 4.61062 7.01842 5.70728 5.4716 7.09901C3.91615 8.50178 2.67629 10.1874 1.82644 12.0547C0.922504 14.0678 0.471278 16.2369 0.501436 18.424C0.471075 20.6116 0.922304 22.7813 1.82644 24.7949C2.67626 26.6623 3.91613 28.3479 5.4716 29.7506C7.01839 31.1424 8.83419 32.2391 10.8197 32.9807C12.867 33.7483 15.0512 34.1365 17.2534 34.1241C19.089 34.1481 20.9149 33.867 22.6477 33.2937C24.1302 32.8118 25.4974 32.0575 26.6708 31.0741V25.0179C25.4788 25.9289 24.1673 26.6902 22.7688 27.2828C21.082 27.9416 19.2669 28.255 17.4429 28.2025C15.6331 28.2232 13.8509 27.7817 12.2842 26.9244C10.7494 26.0856 9.47481 24.8798 8.58822 23.4277C7.66276 21.9082 7.18895 20.1801 7.21701 18.4266C7.18285 16.6654 7.65693 14.9288 8.58822 13.4036C9.48387 11.9581 10.7564 10.7542 12.2842 9.90687C13.8459 9.03568 15.63 8.58581 17.4429 8.60609C18.6699 8.58333 19.8927 8.74985 21.0631 9.09912C22.0389 9.4063 22.9702 9.82803 23.8351 10.3544C24.6537 10.8644 25.4422 11.3889 26.2005 11.928V5.64788C25.0844 4.72662 23.8008 4.0048 22.4121 3.51753C20.7573 2.96121 19.0092 2.69461 17.2534 2.73078C15.0512 2.71842 12.867 3.10658 10.8197 3.87419" fill="#D64575"/>
<path d="M45.2022 16.538C46.2397 17.0773 47.1762 17.7747 47.9742 18.6019V21.832C48.0118 23.0576 47.7098 24.2712 47.0983 25.3523C46.5584 26.2794 45.7757 27.0597 44.8252 27.6182C43.9229 28.148 42.8814 28.4273 41.8195 28.4241C41.0019 28.4534 40.1879 28.3072 39.4386 27.9966C38.6892 27.6859 38.0239 27.2188 37.4924 26.6303C36.3971 25.4215 35.8148 23.8712 35.8579 22.2796C35.8506 21.1774 36.1094 20.0881 36.6146 19.095C37.0919 18.1399 37.8166 17.3145 38.7213 16.6954C39.6696 16.0679 40.806 15.7455 41.9627 15.7757C43.0933 15.7668 44.2078 16.029 45.2022 16.538ZM35.1251 11.6715C33.4043 12.6759 32.012 14.1124 31.103 15.8212C30.0577 17.8271 29.5454 20.044 29.6107 22.2796C29.5419 24.4987 30.0452 26.7003 31.0771 28.6943C31.9558 30.3577 33.3078 31.7561 34.981 32.7321C36.5854 33.6529 38.4285 34.1341 40.305 34.122C41.9599 34.154 43.5833 33.6908 44.9435 32.7985C46.2032 31.986 47.2413 30.9024 47.9723 29.6366V33.4489H53.9829V10.7964H47.9723V13.3534C47.056 12.3728 45.9255 11.5922 44.6589 11.0657C43.4303 10.5175 42.0912 10.2265 40.7329 10.2125C38.756 10.193 36.8129 10.6981 35.1242 11.6706" fill="#D64575"/>
<path d="M73.1829 10.7501C72.4453 10.4731 71.6572 10.3358 70.8637 10.3463C69.4627 10.34 68.1077 10.8189 67.0541 11.6925C65.8854 12.6454 64.9009 13.7834 64.1444 15.0555V10.7956H58.1338V33.4481H64.1444V20.7953C64.7689 19.6277 65.5833 18.5602 66.5579 17.6316C67.0126 17.2091 67.5531 16.8781 68.1466 16.6584C68.7402 16.4388 69.3747 16.3351 70.0118 16.3536C71.1253 16.3559 72.2187 16.6345 73.1829 17.1613V10.7501Z" fill="#D64575"/>
<path d="M221.562 4.20449C220.956 6.23582 219.919 8.12883 218.513 9.76773C217.408 11.0559 215.964 12.0459 214.326 12.6377V15.553H218.632V26.8133C218.573 27.7884 218.721 28.7647 219.066 29.6852C219.412 30.6056 219.948 31.4516 220.643 32.1737C221.323 32.8244 222.14 33.334 223.04 33.6699C223.94 34.0058 224.905 34.1607 225.871 34.1249C227.03 34.1601 228.184 33.961 229.255 33.5409C230.088 33.1926 230.849 32.7058 231.5 32.1038V27.5755C230.964 27.9029 230.382 28.1594 229.772 28.3378C229.057 28.5294 228.316 28.6201 227.573 28.6071C227.159 28.6355 226.743 28.5711 226.361 28.4192C225.978 28.2673 225.638 28.0322 225.37 27.7329C224.843 27.0357 224.584 26.189 224.635 25.3333V15.5521H231.26V10.7984H224.635V4.20361L221.562 4.20449Z" fill="#D64575"/>
<path d="M199.769 11.4267C198.637 12.1322 197.638 13.0118 196.812 14.0291V1.1543H190.802V33.4507H196.812V19.0967C197.471 18.2024 198.278 17.4145 199.202 16.7635C200.061 16.1299 201.118 15.7831 202.208 15.7775C202.793 15.7465 203.378 15.8301 203.927 16.0229C204.477 16.2158 204.978 16.5137 205.4 16.8982C206.247 17.8453 206.664 19.0707 206.56 20.3075L206.609 33.4498H212.619V19.5461C212.619 16.4357 211.799 14.1029 210.159 12.5474C209.363 11.7847 208.411 11.1841 207.361 10.7828C206.311 10.3816 205.186 10.188 204.054 10.2142C202.528 10.1904 201.033 10.6137 199.772 11.4258" fill="#D64575"/>
<path d="M178.562 16.5607C179.602 17.0869 180.539 17.7772 181.334 18.6019V21.832C181.372 23.0577 181.07 24.2715 180.458 25.3523C179.922 26.2768 179.137 27.0507 178.183 27.5954C177.276 28.1133 176.236 28.3854 175.177 28.3822C174.361 28.4119 173.549 28.268 172.799 27.9612C172.05 27.6544 171.383 27.1925 170.847 26.6094C169.752 25.4094 169.171 23.8659 169.216 22.2813C169.206 21.1861 169.466 20.1037 169.973 19.1194C170.455 18.1734 171.178 17.356 172.078 16.7408C173.027 16.115 174.163 15.7933 175.319 15.8229C176.448 15.8137 177.561 16.0677 178.561 16.5625M168.482 11.6732C166.761 12.678 165.369 14.1145 164.46 15.8229C163.415 17.829 162.903 20.0459 162.969 22.2813C162.9 24.5005 163.403 26.7023 164.436 28.696C165.314 30.3595 166.666 31.7579 168.339 32.7338C169.944 33.6546 171.787 34.1358 173.664 34.1237C175.318 34.1557 176.941 33.6925 178.3 32.8002C179.56 31.9877 180.598 30.9041 181.329 29.6384V33.5853C181.347 34.6936 181.009 35.7811 180.359 36.7035C179.691 37.6322 178.767 38.3692 177.686 38.8338C176.484 39.3555 175.174 39.6159 173.852 39.5961C172.641 39.6166 171.434 39.4501 170.28 39.1031C169.318 38.8017 168.397 38.3951 167.535 37.8914C166.73 37.4136 165.965 36.9651 165.24 36.5461V41.9293C166.435 42.7219 167.703 43.4126 169.028 43.9932C170.674 44.6438 172.45 44.9497 174.233 44.8901C176.497 44.9127 178.735 44.4287 180.764 43.4774C182.723 42.5583 184.377 41.1461 185.543 39.3959C186.795 37.4299 187.42 35.1634 187.342 32.8693V10.7964H181.332V13.3534C180.415 12.3728 179.285 11.5922 178.018 11.0657C176.79 10.5175 175.451 10.2265 174.092 10.2124C172.115 10.1931 170.172 10.6983 168.484 11.6706" fill="#D64575"/>
<path d="M148.492 10.7501C147.754 10.4732 146.966 10.336 146.172 10.3462C144.771 10.3398 143.416 10.8186 142.363 11.6925C141.193 12.6446 140.209 13.7827 139.453 15.0554V10.7956H133.442V33.448H139.453V20.7952C140.077 19.6277 140.892 18.5602 141.866 17.6316C142.321 17.2092 142.861 16.8781 143.454 16.6585C144.048 16.4388 144.682 16.3351 145.318 16.3536C146.433 16.3559 147.527 16.6344 148.492 17.1613V10.7501Z" fill="#D64575"/>
<path d="M82.9447 4.20449C82.3396 6.23609 81.302 8.12923 79.8956 9.76773C78.7903 11.0556 77.346 12.0455 75.708 12.6377V15.553H80.0138V26.8133C79.9553 27.7884 80.103 28.7647 80.4482 29.6852C80.7935 30.6056 81.3293 31.4516 82.0244 32.1737C82.7054 32.8242 83.5219 33.3335 84.422 33.6694C85.3222 34.0053 86.2864 34.1604 87.2533 34.1249C88.4123 34.1604 89.5659 33.9613 90.637 33.5409C91.4718 33.1942 92.2336 32.708 92.886 32.1055V27.5755C92.3494 27.9035 91.7677 28.16 91.1572 28.3378C90.4422 28.5296 89.7011 28.6203 88.9581 28.6071C88.5444 28.6355 88.1295 28.5711 87.747 28.4192C87.3646 28.2673 87.0254 28.0322 86.7571 27.7329C86.2299 27.0359 85.9706 26.189 86.0226 25.3333V15.5521H92.6476V10.7984H86.0226V4.20361L82.9447 4.20449Z" fill="#D64575"/>
<path d="M150.764 10.7979V15.6416H154.597V33.4495H160.603V10.7979H150.764Z" fill="#D64575"/>
<path d="M156.665 7.46893C157.184 7.46858 157.696 7.3717 158.175 7.18377C158.653 6.99584 159.088 6.72056 159.454 6.37367C159.82 6.02679 160.11 5.6151 160.308 5.16211C160.505 4.70911 160.607 4.2237 160.606 3.7336C160.607 3.24364 160.505 2.75841 160.307 2.30562C160.109 1.85282 159.819 1.44131 159.453 1.09461C159.087 0.747916 158.653 0.472815 158.174 0.284998C157.696 0.0971805 157.183 0.000344274 156.665 0C156.148 0.000344274 155.635 0.0971805 155.157 0.284998C154.678 0.472815 154.244 0.747916 153.878 1.09461C153.512 1.44131 153.222 1.85282 153.024 2.30562C152.826 2.75841 152.724 3.24364 152.725 3.7336C152.724 4.2237 152.825 4.70911 153.023 5.16211C153.221 5.6151 153.511 6.02679 153.877 6.37367C154.243 6.72056 154.678 6.99584 155.156 7.18377C155.635 7.3717 156.147 7.46858 156.665 7.46893Z" fill="#D64575"/>
<path d="M29.7979 51.0186V55.8623H33.6315V73.6702H39.6375V51.0186H29.7979Z" fill="#D64575"/>
<path d="M35.6996 47.6897C36.2176 47.6893 36.7304 47.5923 37.2088 47.4043C37.6872 47.2164 38.1218 46.9411 38.4877 46.5942C38.8537 46.2474 39.1438 45.8357 39.3416 45.3828C39.5394 44.9298 39.6409 44.4445 39.6404 43.9544C39.641 43.4642 39.5396 42.9787 39.3419 42.5256C39.1441 42.0725 38.854 41.6607 38.4881 41.3137C38.1222 40.9666 37.6875 40.6912 37.2091 40.5031C36.7306 40.315 36.2177 40.2179 35.6996 40.2173C35.1814 40.2177 34.6683 40.3148 34.1898 40.5028C33.7112 40.6909 33.2765 40.9663 32.9105 41.3134C32.5444 41.6604 32.2542 42.0722 32.0565 42.5254C31.8587 42.9785 31.7572 43.4641 31.7578 43.9544C31.7573 44.4445 31.8589 44.93 32.0567 45.383C32.2546 45.836 32.5448 46.2477 32.9109 46.5945C33.2769 46.9414 33.7116 47.2167 34.1901 47.4046C34.6686 47.5925 35.1815 47.6894 35.6996 47.6897Z" fill="#D64575"/>
</svg>
