<svg width="74" height="70" viewBox="0 0 74 70" fill="none" xmlns="http://www.w3.org/2000/svg">
<g clip-path="url(#clip0_654_9498)">
<path d="M65.1943 29.7213C64.6857 29.6365 64.177 29.6365 63.7532 29.5518C62.6511 29.3822 61.4643 29.1279 60.3623 28.8736L49.9352 26.839C47.053 26.2456 44.0859 25.6522 41.2036 25.1436C40.3559 24.974 39.4234 24.8045 38.5757 24.4654C36.7955 23.872 35.0152 23.7872 33.1502 24.1263C27.64 25.1436 23.9948 29.9756 24.0796 35.1468V36.164C24.0796 36.5031 24.1643 36.927 24.2491 37.2661C25.5207 43.8783 32.3873 47.8626 38.7452 45.6586C39.4234 45.4042 40.1016 45.2347 40.7798 45.1499C40.9493 45.1499 41.2036 45.0651 41.3732 45.0651C44.9336 44.387 48.5789 43.624 52.1393 42.9458C55.4454 42.2677 58.7516 41.5895 62.1425 40.9961C62.9054 40.8265 63.6684 40.657 64.5161 40.5722C67.3136 40.4027 69.5177 38.1138 69.6025 35.2315C69.6025 32.5188 67.7375 30.3147 65.1943 29.7213ZM42.4752 43.5392C44.9336 41.2504 46.29 38.4529 46.29 35.062C46.29 31.6711 44.9336 28.8736 42.3905 26.5847L42.4752 26.4999C48.7484 27.7715 55.0216 29.0431 61.3795 30.3147C59.5993 31.5015 58.6668 33.0274 58.6668 35.1468C58.6668 37.2661 59.6841 38.792 61.5491 39.894C55.1064 41.1656 48.8332 42.3524 42.4752 43.5392Z" fill="#C63943"/>
<path d="M56.9707 45.2348C56.5468 45.3196 56.2077 45.4891 56.0382 45.913C56.0382 45.913 56.0382 45.9977 55.9534 45.9977C52.3082 52.9491 45.4416 57.6964 37.5577 58.5441C35.0145 58.7984 32.4714 58.7136 29.9282 58.1202C25.2657 57.103 21.1966 54.8989 17.8905 51.3384C12.5498 45.6587 10.4305 38.7073 11.7021 30.8234C12.5498 25.8219 14.9234 21.4984 18.5687 17.938C24.1636 12.5125 32.0475 10.2237 39.677 11.8344C46.7979 13.2755 52.8168 17.938 56.1229 24.3807C56.2925 24.635 56.462 24.8046 56.7163 24.8046C59.6834 25.398 62.7352 25.9914 65.7022 26.5848C66.55 26.7544 67.3977 26.9239 68.3302 27.0934C65.2784 12.2582 50.4432 -0.457668 32.4714 0.813922C13.9062 2.17028 -0.759507 18.4466 0.7664 37.8596C2.29231 56.5943 18.9077 71.0904 38.3207 69.2254C44.17 68.632 49.4259 66.767 54.2579 63.4609C59.3443 59.9852 63.2438 55.4075 65.9566 49.8125C67.0586 47.6084 68.3302 43.7089 68.2454 42.9459H68.0759C64.4307 43.7089 60.7007 44.4718 56.9707 45.2348Z" fill="#C63943"/>
</g>
<defs>
<clipPath id="clip0_654_9498">
<rect width="72.9045" height="68.6658" fill="white" transform="translate(0.681641 0.729004)"/>
</clipPath>
</defs>
</svg>
