<svg width="43" height="43" viewBox="0 0 43 43" fill="none" xmlns="http://www.w3.org/2000/svg">
<rect y="0.5" width="43" height="42" rx="21" fill="#CC13CF"/>
<path d="M27.2288 16.2292H27.2393M16.2913 11.9167H26.708C29.5845 11.9167 31.9163 14.0621 31.9163 16.7084V26.2917C31.9163 28.9381 29.5845 31.0834 26.708 31.0834H16.2913C13.4149 31.0834 11.083 28.9381 11.083 26.2917V16.7084C11.083 14.0621 13.4149 11.9167 16.2913 11.9167ZM25.6663 20.8963C25.7949 21.6939 25.6468 22.5085 25.2432 23.2241C24.8395 23.9398 24.2009 24.5202 23.418 24.8827C22.6352 25.2452 21.7481 25.3714 20.8828 25.2433C20.0175 25.1152 19.2182 24.7393 18.5985 24.1692C17.9788 23.5991 17.5702 22.8637 17.431 22.0676C17.2918 21.2716 17.4289 20.4554 17.8229 19.7352C18.217 19.015 18.8478 18.4274 19.6257 18.0561C20.4036 17.6847 21.289 17.5485 22.1559 17.6667C23.0402 17.7874 23.8589 18.1665 24.491 18.748C25.1231 19.3296 25.5352 20.0828 25.6663 20.8963Z" stroke="white" stroke-width="2" stroke-linecap="round" stroke-linejoin="round"/>
</svg>
