<svg width="69" height="70" viewBox="0 0 69 70" fill="none" xmlns="http://www.w3.org/2000/svg">
<path d="M34.5484 0.729004H34.3921C15.4793 0.729004 0.147461 16.0654 0.147461 34.9837V35.1401C0.147461 54.0585 15.4793 69.3948 34.3921 69.3948H34.5484C53.4612 69.3948 68.7931 54.0585 68.7931 35.1401V34.9837C68.7931 16.0654 53.4612 0.729004 34.5484 0.729004Z" fill="#007EBB"/>
<path d="M16.518 23.5543C15.6138 22.7148 15.1641 21.6755 15.1641 20.439C15.1641 19.2024 15.6162 18.1175 16.518 17.2755C17.4223 16.4359 18.5863 16.0149 20.0125 16.0149C21.4387 16.0149 22.557 16.4359 23.4589 17.2755C24.3631 18.1151 24.8128 19.1712 24.8128 20.439C24.8128 21.7068 24.3607 22.7148 23.4589 23.5543C22.5546 24.3939 21.4074 24.8149 20.0125 24.8149C18.6176 24.8149 17.4223 24.3939 16.518 23.5543ZM24.0529 28.3706V54.1115H15.9216V28.3706H24.0529Z" fill="#FEFFFC"/>
<path d="M51.1213 30.9132C52.8938 32.8378 53.7789 35.4792 53.7789 38.8424V53.6567H46.0565V39.8865C46.0565 38.1904 45.6164 36.8721 44.7385 35.9339C43.8607 34.9957 42.6775 34.5242 41.196 34.5242C39.7145 34.5242 38.5312 34.9933 37.6534 35.9339C36.7756 36.8721 36.3355 38.1904 36.3355 39.8865V53.6567H28.5674V28.2982H36.3355V31.6614C37.1219 30.5403 38.1825 29.655 39.5149 29.0031C40.8473 28.3511 42.3456 28.0264 44.0122 28.0264C46.98 28.0264 49.3513 28.9886 51.1213 30.9132Z" fill="#FEFFFC"/>
</svg>
