<svg width="43" height="43" viewBox="0 0 43 43" fill="none" xmlns="http://www.w3.org/2000/svg">
<rect y="0.5" width="43" height="42" rx="21" fill="#375DFB"/>
<path d="M25.3337 17.3333C26.8587 17.3333 28.3212 17.9917 29.3995 19.1638C30.4779 20.3359 31.0837 21.9256 31.0837 23.5833V30.8749H27.2503V23.5833C27.2503 23.0307 27.0484 22.5008 26.6889 22.1101C26.3295 21.7194 25.842 21.4999 25.3337 21.4999C24.8253 21.4999 24.3378 21.7194 23.9784 22.1101C23.6189 22.5008 23.417 23.0307 23.417 23.5833V30.8749H19.5837V23.5833C19.5837 21.9256 20.1895 20.3359 21.2678 19.1638C22.3461 17.9917 23.8087 17.3333 25.3337 17.3333Z" stroke="white" stroke-width="2" stroke-linecap="round" stroke-linejoin="round"/>
<path d="M15.7503 18.3749H11.917V30.8749H15.7503V18.3749Z" stroke="white" stroke-width="2" stroke-linecap="round" stroke-linejoin="round"/>
<path d="M13.8337 15.2499C14.8922 15.2499 15.7503 14.3172 15.7503 13.1666C15.7503 12.016 14.8922 11.0833 13.8337 11.0833C12.7751 11.0833 11.917 12.016 11.917 13.1666C11.917 14.3172 12.7751 15.2499 13.8337 15.2499Z" stroke="white" stroke-width="2" stroke-linecap="round" stroke-linejoin="round"/>
</svg>
