<svg width="69" height="70" viewBox="0 0 69 70" fill="none" xmlns="http://www.w3.org/2000/svg">
<path d="M34.7555 0.729004H34.5992C15.6864 0.729004 0.354492 16.0654 0.354492 34.9837V35.1401C0.354492 54.0585 15.6864 69.3948 34.5992 69.3948H34.7555C53.6683 69.3948 69.0002 54.0585 69.0002 35.1401V34.9837C69.0002 16.0654 53.6683 0.729004 34.7555 0.729004Z" fill="#383D38"/>
<path d="M57.7538 37.6804C57.2319 35.7029 56.1376 33.8482 54.6537 32.412C56.9144 28.6928 56.8423 23.9607 54.4373 20.5134C53.04 18.5118 50.926 17.042 48.4849 16.378C46.5129 15.8415 44.3579 15.8632 42.3738 16.4309C40.2839 12.6131 36.1522 10.3108 31.9627 10.6693C29.5312 10.8786 27.2008 11.9756 25.4067 13.7582C23.9565 15.1992 22.8983 17.0756 22.398 19.0772C18.0522 18.9833 13.9878 21.4083 12.2057 25.2141C11.1691 27.4249 10.9551 29.9918 11.602 32.4384C12.1239 34.4159 13.2182 36.2707 14.7021 37.7069C12.4414 41.4261 12.5135 46.1581 14.9185 49.6055C16.3158 51.607 18.4298 53.0769 20.8708 53.7409C22.8525 54.2798 24.9954 54.2605 26.9819 53.688C28.9179 57.2243 32.6192 59.4857 36.5225 59.4857C36.8111 59.4857 37.1045 59.4736 37.3907 59.4496C39.8221 59.2403 42.1526 58.1433 43.9467 56.3607C45.3969 54.9197 46.4551 53.0456 46.9578 51.0417C47.0419 51.0417 47.1285 51.0441 47.2127 51.0441C51.5032 51.0441 55.4041 48.6336 57.1501 44.9023C58.1867 42.6915 58.4007 40.1246 57.7538 37.678V37.6804ZM38.7808 43.8919L27.4485 50.4354C27.3523 50.4812 27.2561 50.5245 27.1623 50.5653C26.0921 51.0224 24.9641 51.2534 23.8097 51.2534C21.1666 51.2534 18.728 50.0193 17.2874 47.9528C15.5823 45.5062 15.5005 42.131 17.0469 39.4174L29.1272 46.3963L38.6894 40.5288L38.7784 43.8919H38.7808ZM31.9506 41.2721L29.0839 43.0307L17.754 36.4872C17.665 36.4247 17.5808 36.3645 17.499 36.302C14.3726 33.9564 13.2446 29.809 14.8223 26.4434C16.0873 23.7418 18.9709 21.9857 22.095 21.9688V35.9219L31.9531 41.2721H31.9506ZM38.4681 37.2498L34.6779 39.439L30.8876 37.2498V32.8714L34.6779 30.6823L38.4681 32.8714V37.2498ZM37.4051 28.8491L40.2719 27.0906L51.6018 33.634C51.6908 33.6966 51.775 33.7567 51.8567 33.8193C54.9832 36.1648 56.1087 40.3123 54.5335 43.6778C53.2684 46.3794 50.3849 48.1356 47.2608 48.1524V34.1994L37.4027 28.8491H37.4051ZM30.575 26.2293L41.9073 19.6858C42.0035 19.6401 42.0997 19.5968 42.1935 19.5559C45.7889 18.0211 49.9423 19.1181 52.0684 22.1661C53.7735 24.6127 53.8553 27.9879 52.3089 30.7015L40.2286 23.7226L30.6664 29.5901L30.5774 26.2269L30.575 26.2293ZM27.9367 35.804L24.981 34.1994V21.1124C24.9906 21.0041 25.0002 20.8983 25.0122 20.7997C25.4812 16.9169 28.5067 13.8688 32.2103 13.5513C35.1829 13.2963 38.1435 14.9153 39.7212 17.6121L27.6385 24.5862L27.9367 35.804ZM41.4191 34.3173L44.3748 35.9219V49.0089C44.3652 49.1171 44.3556 49.223 44.3436 49.3216C43.8746 53.2044 40.8491 56.2524 37.1454 56.57C34.1728 56.8274 31.2123 55.2059 29.6346 52.5092L41.7173 45.535L41.4191 34.3173Z" fill="white"/>
</svg>
