<svg width="69" height="70" viewBox="0 0 69 70" fill="none" xmlns="http://www.w3.org/2000/svg">
<g clip-path="url(#clip0_654_9484)">
<rect width="68.6658" height="68.6658" transform="translate(0.227539 0.729004)" fill="white"/>
<path d="M34.5605 69.3948C53.522 69.3948 68.8934 54.0235 68.8934 35.0619C68.8934 16.1004 53.522 0.729004 34.5605 0.729004C15.5989 0.729004 0.227539 16.1004 0.227539 35.0619C0.227539 54.0235 15.5989 69.3948 34.5605 69.3948Z" fill="#D2F0FF"/>
<path d="M67.2679 45.5237L67.2658 45.5216C67.3274 45.329 67.3894 45.1365 67.4476 44.9425L49.3296 26.8246L48.372 25.8264H46.8702L36.9394 15.8958L13.0342 20.0897V50.0342L32.3202 69.3202C33.061 69.3679 33.8075 69.3949 34.5604 69.3949C45.2642 69.3949 54.822 64.4953 61.1178 56.8178L61.1192 56.8191C63.8334 53.5068 65.948 49.6556 67.2679 45.5237Z" fill="#73C8F0"/>
<path d="M36.9395 54.2282L13.0342 50.0341V20.0896L36.9395 15.8955V54.2282Z" fill="#1E73BE"/>
<path d="M24.933 40.5575C21.5676 40.5575 19.3154 37.6719 19.3154 34.7125C19.3154 31.7 21.6758 28.8674 24.9818 28.8674C28.3052 28.8674 30.567 31.8323 30.567 34.7449C30.567 37.8244 28.1761 40.5575 24.933 40.5575ZM21.5885 34.7125C21.5885 36.767 22.8769 38.5767 24.9495 38.5767C27.0263 38.5767 28.3103 36.7181 28.3103 34.7125C28.3103 32.7988 27.1069 30.8645 24.9495 30.8645C22.821 30.8646 21.5885 32.7297 21.5885 34.7125Z" fill="white"/>
<path d="M48.3714 25.8262H38.1182V36.7899L48.3714 28.1784V25.8262ZM38.1182 38.1439V44.2974H48.3714V29.5324L38.1182 38.1439Z" fill="#1E73BE"/>
</g>
<defs>
<clipPath id="clip0_654_9484">
<rect width="68.6658" height="68.6658" fill="white" transform="translate(0.227539 0.729004)"/>
</clipPath>
</defs>
</svg>
