<svg width="70" height="70" viewBox="0 0 70 70" fill="none" xmlns="http://www.w3.org/2000/svg">
<g clip-path="url(#clip0_654_9491)">
<rect width="68.6658" height="68.6658" transform="translate(0.454102 0.729004)" fill="white"/>
<path d="M34.787 69.3948C53.7486 69.3948 69.1199 54.0235 69.1199 35.0619C69.1199 16.1004 53.7486 0.729004 34.787 0.729004C15.8255 0.729004 0.454102 16.1004 0.454102 35.0619C0.454102 54.0235 15.8255 69.3948 34.787 69.3948Z" fill="#827DDC"/>
<path d="M47.8736 26.3356L43.9134 22.3754C43.2301 21.6922 42.3023 21.2534 41.2726 21.2017L36.2101 16.1392L12.9434 20.2213V49.3658L32.9214 69.3438C33.5391 69.3769 34.1608 69.3947 34.7869 69.3947C52.225 69.3947 66.6254 56.3937 68.8269 39.5561L54.3526 25.0817L54.3521 25.0811C53.6316 24.3608 52.6364 23.9153 51.537 23.9153C49.8923 23.9153 48.4807 24.9128 47.8736 26.3356Z" fill="#6E64C3"/>
<path d="M12.9434 49.366L36.2101 53.448V16.1394L12.9434 20.2214V49.366ZM37.8857 47.2662C38.7856 47.9952 39.909 48.3923 41.0671 48.3908C43.8652 48.3908 46.1336 46.1224 46.1336 43.3242V31.1425H37.8856L37.8857 47.2662ZM41.0671 29.2476C43.2903 29.2476 45.0926 27.4454 45.0926 25.2221C45.0926 22.9989 43.2904 21.1965 41.0671 21.1965C39.7728 21.1965 38.622 21.8081 37.8857 22.7572V27.6869C38.6221 28.6362 39.7728 29.2476 41.0671 29.2476ZM56.5483 33.7526H47.7999V44.513C48.7195 45.5953 50.09 46.2817 51.6197 46.2817C52.2823 46.2817 52.9383 46.1503 53.5498 45.8951C54.1612 45.6399 54.716 45.2659 55.182 44.7948C55.648 44.3238 56.0159 43.7649 56.2644 43.1507C56.513 42.5365 56.6372 41.8791 56.63 41.2165L56.5483 33.7526Z" fill="#302C89"/>
<path d="M51.5382 31.8779C53.7371 31.8779 55.5197 30.0953 55.5197 27.8963C55.5197 25.6974 53.7371 23.9148 51.5382 23.9148C49.3392 23.9148 47.5566 25.6974 47.5566 27.8963C47.5566 30.0953 49.3392 31.8779 51.5382 31.8779Z" fill="#302C89"/>
<path d="M29.1653 30.6222H25.6945V40.7629H23.5998V30.6222H20.1289V28.5391H29.1652L29.1653 30.6222Z" fill="white"/>
</g>
<defs>
<clipPath id="clip0_654_9491">
<rect width="68.6658" height="68.6658" fill="white" transform="translate(0.454102 0.729004)"/>
</clipPath>
</defs>
</svg>
