<svg width="43" height="43" viewBox="0 0 43 43" fill="none" xmlns="http://www.w3.org/2000/svg">
<rect y="0.5" width="43" height="42" rx="21" fill="black"/>
<path d="M29.6359 29.3422L23.7672 20.1191L29.5581 13.7488C29.6891 13.6011 29.7566 13.4078 29.746 13.2107C29.7354 13.0137 29.6475 12.8287 29.5015 12.696C29.3554 12.5633 29.1629 12.4935 28.9658 12.5017C28.7686 12.5099 28.5826 12.5956 28.4481 12.74L22.9319 18.8075L19.1359 12.8422C19.0682 12.7357 18.9748 12.6479 18.8641 12.5871C18.7535 12.5263 18.6293 12.4944 18.5031 12.4944H14.0031C13.8686 12.4943 13.7366 12.5304 13.6209 12.5989C13.5051 12.6673 13.4099 12.7657 13.3453 12.8836C13.2806 13.0015 13.2487 13.1346 13.2532 13.269C13.2576 13.4034 13.298 13.5341 13.3703 13.6475L19.2391 22.8697L13.4481 29.2447C13.3805 29.3173 13.328 29.4027 13.2936 29.4958C13.2592 29.5889 13.2436 29.6879 13.2477 29.787C13.2519 29.8862 13.2757 29.9836 13.3177 30.0735C13.3597 30.1634 13.4192 30.244 13.4927 30.3108C13.5661 30.3775 13.6521 30.429 13.7456 30.4623C13.8391 30.4956 13.9383 30.51 14.0374 30.5046C14.1365 30.4993 14.2335 30.4744 14.3229 30.4312C14.4123 30.3881 14.4923 30.3277 14.5581 30.2534L20.0744 24.1859L23.8703 30.1513C23.9385 30.2569 24.0323 30.3437 24.1429 30.4037C24.2534 30.4637 24.3773 30.4948 24.5031 30.4944H29.0031C29.1374 30.4943 29.2693 30.4582 29.3849 30.3898C29.5005 30.3214 29.5956 30.2232 29.6603 30.1054C29.7249 29.9877 29.7568 29.8547 29.7525 29.7205C29.7482 29.5862 29.708 29.4556 29.6359 29.3422ZM24.9147 28.9944L15.3691 13.9944H18.0878L27.6372 28.9944H24.9147Z" fill="white"/>
</svg>
